<svg id="图层_1" data-name="图层 1" xmlns="http://www.w3.org/2000/svg" viewBox="0 0 140 50"><defs><style>.cls-1{fill:gray;}.cls-2{fill:#00abe2;}.cls-3{fill:#0059bc;}.cls-4{fill:#003ba6;}.cls-5{fill:#29abce;}.cls-6{fill:#00a99d;}.cls-7{fill:#fff;}</style></defs><path class="cls-1" d="M33.52,44H32.27l-.26.88h-.66l1.21-3.63h.73l1.17,3.63h-.69Zm-.14-.5-.46-1.7h0l-.5,1.7Z"/><path class="cls-1" d="M35.38,41.28v2.35a1.08,1.08,0,0,0,.13.62.52.52,0,0,0,.44.18.51.51,0,0,0,.43-.18,1.08,1.08,0,0,0,.13-.62V41.28h.67v2.35a1.57,1.57,0,0,1-.1.6,1.11,1.11,0,0,1-.26.42,1.09,1.09,0,0,1-.39.23A1.51,1.51,0,0,1,36,45a1.53,1.53,0,0,1-.49-.08,1.09,1.09,0,0,1-.39-.23,1.13,1.13,0,0,1-.27-.42,1.8,1.8,0,0,1-.09-.6V41.28Z"/><path class="cls-1" d="M40.22,44.83a1,1,0,0,1-.32.09,2.35,2.35,0,0,1-.47,0,1.76,1.76,0,0,1-.71-.14,1.59,1.59,0,0,1-.53-.39,1.91,1.91,0,0,1-.32-.6,2.75,2.75,0,0,1,0-1.47,1.91,1.91,0,0,1,.32-.6,1.35,1.35,0,0,1,.52-.39,1.75,1.75,0,0,1,.7-.14,2.16,2.16,0,0,1,.46.05,2.47,2.47,0,0,1,.35.1l0,.6,0,0a1.94,1.94,0,0,0-.3-.13,1.16,1.16,0,0,0-.34,0,1,1,0,0,0-.4.08.9.9,0,0,0-.32.23,1.16,1.16,0,0,0-.23.41,2.13,2.13,0,0,0-.08.6,2.1,2.1,0,0,0,.08.59,1.16,1.16,0,0,0,.23.41.79.79,0,0,0,.32.23,1,1,0,0,0,.4.08,1.48,1.48,0,0,0,.39,0,.78.78,0,0,0,.29-.14Z"/><path class="cls-1" d="M40.8,41.28h.66v1.54h0l1-1.54h.77L42.05,43l1.32,1.92h-.8L41.48,43.2h0v1.71H40.8Z"/><path class="cls-1" d="M43.75,41.28h.66v3.1h1.2v.53H43.75Z"/><path class="cls-1" d="M47.9,44H46.65l-.25.88h-.67L47,41.28h.72l1.17,3.63h-.68Zm-.14-.5-.46-1.7h0l-.49,1.7Z"/><path class="cls-1" d="M49.25,41.28H50l1.2,2.85h0V41.28h.61v3.63h-.8l-1.2-2.83h0v2.83h-.6Z"/><path class="cls-1" d="M52.59,41.28h.94a1.76,1.76,0,0,1,1.3.46,1.9,1.9,0,0,1,.44,1.36,1.79,1.79,0,0,1-.48,1.34,1.71,1.71,0,0,1-1.26.47h-.94Zm.66,3.12h.23a1,1,0,0,0,.81-.34,1.86,1.86,0,0,0,0-1.93,1,1,0,0,0-.81-.34h-.23Z"/><path class="cls-1" d="M57.21,41.28h1a1.14,1.14,0,0,1,.84.29,1.29,1.29,0,0,1,0,1.63,1.14,1.14,0,0,1-.84.29h-.38v1.42h-.66Zm.91,1.7a.6.6,0,1,0,0-1.19h-.25V43Z"/><path class="cls-1" d="M59.9,41.28H61a1.18,1.18,0,0,1,.79.24.86.86,0,0,1,.29.72.84.84,0,0,1-.19.57.77.77,0,0,1-.51.28v0a.4.4,0,0,1,.23.1.77.77,0,0,1,.17.32l.47,1.38h-.7l-.36-1.18a.45.45,0,0,0-.19-.29.52.52,0,0,0-.31-.09h-.15v1.56H59.9Zm.94,1.58a.65.65,0,0,0,.43-.14.5.5,0,0,0,.16-.41.49.49,0,0,0-.15-.41.73.73,0,0,0-.44-.11h-.27v1.07Z"/><path class="cls-1" d="M62.79,42.27a1.57,1.57,0,0,1,.31-.59,1.29,1.29,0,0,1,.47-.34,1.42,1.42,0,0,1,.55-.11,1.5,1.5,0,0,1,.55.11,1.34,1.34,0,0,1,.46.34,1.74,1.74,0,0,1,.32.59,3.15,3.15,0,0,1,0,1.65,1.84,1.84,0,0,1-.32.59,1.3,1.3,0,0,1-1,.45,1.34,1.34,0,0,1-1-.45,1.65,1.65,0,0,1-.31-.59,2.9,2.9,0,0,1,0-1.65Zm.63,1.45a1,1,0,0,0,.16.42.65.65,0,0,0,.24.23.6.6,0,0,0,.6,0,.65.65,0,0,0,.24-.23,1.36,1.36,0,0,0,.16-.42,2.82,2.82,0,0,0,.05-.62,2.87,2.87,0,0,0-.05-.63,1.27,1.27,0,0,0-.16-.42.65.65,0,0,0-.24-.23.6.6,0,0,0-.6,0,.65.65,0,0,0-.24.23,1.15,1.15,0,0,0-.16.42,2.86,2.86,0,0,0-.06.63A2.77,2.77,0,0,0,63.42,43.72Z"/><path class="cls-1" d="M66.18,41.28H68v.53H66.85v1H68v.53H66.85v1.58h-.67Z"/><path class="cls-1" d="M68.59,41.28h1.9v.53H69.25v1h1.17v.53H69.25v1.07h1.29v.53h-2Z"/><path class="cls-1" d="M71.13,44.21a2.84,2.84,0,0,0,.34.15,1.21,1.21,0,0,0,.43.07.56.56,0,0,0,.39-.13.48.48,0,0,0,.16-.4.41.41,0,0,0-.1-.29,1.71,1.71,0,0,0-.37-.26l-.34-.18a1.29,1.29,0,0,1-.44-.39,1,1,0,0,1-.15-.56.88.88,0,0,1,.33-.73,1.29,1.29,0,0,1,.81-.26,1.64,1.64,0,0,1,.4,0l.33.08h0l0,.56,0,0a2.22,2.22,0,0,0-.31-.1,1.15,1.15,0,0,0-.33,0,.51.51,0,0,0-.37.12.39.39,0,0,0-.13.31.41.41,0,0,0,.09.28,1.3,1.3,0,0,0,.29.2l.39.22a1.34,1.34,0,0,1,.48.4,1.16,1.16,0,0,1-.19,1.39,1.29,1.29,0,0,1-.88.28,1.72,1.72,0,0,1-.82-.16Z"/><path class="cls-1" d="M73.73,44.21l.33.15a1.27,1.27,0,0,0,.44.07.59.59,0,0,0,.39-.13.48.48,0,0,0,.16-.4.42.42,0,0,0-.11-.29,1.59,1.59,0,0,0-.36-.26l-.34-.18a1.2,1.2,0,0,1-.44-.39,1,1,0,0,1-.15-.56.88.88,0,0,1,.33-.73,1.29,1.29,0,0,1,.81-.26,1.51,1.51,0,0,1,.39,0l.33.08h0l0,.56,0,0-.31-.1a1.15,1.15,0,0,0-.33,0,.54.54,0,0,0-.38.12.42.42,0,0,0-.13.31.37.37,0,0,0,.1.28,1.09,1.09,0,0,0,.29.2l.39.22a1.54,1.54,0,0,1,.48.4,1,1,0,0,1,.14.58,1,1,0,0,1-.33.81,1.31,1.31,0,0,1-.88.28,1.76,1.76,0,0,1-.83-.16Z"/><path class="cls-1" d="M76.38,41.28H77v3.63h-.66Z"/><path class="cls-1" d="M77.78,42.27a1.74,1.74,0,0,1,.32-.59,1.34,1.34,0,0,1,.46-.34,1.5,1.5,0,0,1,.55-.11,1.42,1.42,0,0,1,.55.11,1.29,1.29,0,0,1,.47.34,1.57,1.57,0,0,1,.31.59,2.9,2.9,0,0,1,0,1.65,1.65,1.65,0,0,1-.31.59,1.34,1.34,0,0,1-1,.45,1.3,1.3,0,0,1-1-.45,1.84,1.84,0,0,1-.32-.59,3.15,3.15,0,0,1,0-1.65Zm.63,1.45a1.19,1.19,0,0,0,.16.42.65.65,0,0,0,.24.23.6.6,0,0,0,.6,0,.65.65,0,0,0,.24-.23,1.15,1.15,0,0,0,.16-.42,2.77,2.77,0,0,0,.06-.62,2.8,2.8,0,0,0-.06-.63,1.08,1.08,0,0,0-.16-.42.65.65,0,0,0-.24-.23.6.6,0,0,0-.6,0,.65.65,0,0,0-.24.23,1.36,1.36,0,0,0-.16.42,2.92,2.92,0,0,0,0,.63A2.82,2.82,0,0,0,78.41,43.72Z"/><path class="cls-1" d="M81.17,41.28H82l1.21,2.85h0V41.28h.6v3.63H83l-1.2-2.83h0v2.83h-.61Z"/><path class="cls-1" d="M86.36,44H85.11l-.26.88h-.66l1.21-3.63h.73l1.17,3.63h-.69Zm-.14-.5-.46-1.7h0l-.5,1.7Z"/><path class="cls-1" d="M87.68,41.28h.67v3.1h1.19v.53H87.68Z"/><path class="cls-1" d="M90,44.21a2.27,2.27,0,0,0,.34.15,1.18,1.18,0,0,0,.43.07.56.56,0,0,0,.39-.13.48.48,0,0,0,.16-.4.41.41,0,0,0-.1-.29,2,2,0,0,0-.37-.26l-.34-.18a1.2,1.2,0,0,1-.44-.39,1,1,0,0,1-.15-.56.88.88,0,0,1,.33-.73,1.29,1.29,0,0,1,.81-.26,1.64,1.64,0,0,1,.4,0l.32.08h0l0,.56,0,0-.31-.1a1.15,1.15,0,0,0-.33,0,.56.56,0,0,0-.38.12.42.42,0,0,0-.13.31.41.41,0,0,0,.1.28,1.3,1.3,0,0,0,.29.2l.39.22a1.54,1.54,0,0,1,.48.4,1,1,0,0,1,.15.58,1,1,0,0,1-.34.81,1.31,1.31,0,0,1-.88.28,1.72,1.72,0,0,1-.82-.16Z"/><path class="cls-1" d="M95.41,42.88h1.17v1.89a1.54,1.54,0,0,1-.4.14,3.3,3.3,0,0,1-.58.05,2,2,0,0,1-.76-.14,1.49,1.49,0,0,1-.56-.39,1.58,1.58,0,0,1-.34-.59,2.21,2.21,0,0,1-.12-.74,2.27,2.27,0,0,1,.12-.75,1.58,1.58,0,0,1,.34-.59,1.49,1.49,0,0,1,.56-.39,2,2,0,0,1,.76-.14,2.78,2.78,0,0,1,.52.05,1.73,1.73,0,0,1,.36.11l0,.59a1.89,1.89,0,0,0-.38-.16,1.63,1.63,0,0,0-.45-.06,1,1,0,0,0-.8.37,1.55,1.55,0,0,0-.29,1,1.57,1.57,0,0,0,.28,1,.91.91,0,0,0,.77.36.94.94,0,0,0,.39-.07v-1h-.55Z"/><path class="cls-1" d="M97.3,41.28h1.13a1.2,1.2,0,0,1,.79.24.89.89,0,0,1,.29.72.84.84,0,0,1-.2.57.77.77,0,0,1-.5.28v0a.4.4,0,0,1,.22.1.77.77,0,0,1,.18.32l.47,1.38H99l-.36-1.18a.49.49,0,0,0-.18-.29.55.55,0,0,0-.32-.09H98v1.56H97.3Zm.93,1.58a.63.63,0,0,0,.43-.14.5.5,0,0,0,.16-.41.52.52,0,0,0-.14-.41.78.78,0,0,0-.45-.11H98v1.07Z"/><path class="cls-1" d="M100.18,42.27a1.58,1.58,0,0,1,.32-.59,1.25,1.25,0,0,1,.46-.34,1.43,1.43,0,0,1,1.1,0,1.25,1.25,0,0,1,.46.34,1.58,1.58,0,0,1,.32.59,3.15,3.15,0,0,1,0,1.65,1.67,1.67,0,0,1-.32.59,1.38,1.38,0,0,1-.46.34,1.43,1.43,0,0,1-1.1,0,1.38,1.38,0,0,1-.46-.34,1.67,1.67,0,0,1-.32-.59,3.15,3.15,0,0,1,0-1.65Zm.63,1.45a1.19,1.19,0,0,0,.16.42.65.65,0,0,0,.24.23.6.6,0,0,0,.6,0,.65.65,0,0,0,.24-.23,1.36,1.36,0,0,0,.16-.42,2.77,2.77,0,0,0,.06-.62,2.8,2.8,0,0,0-.06-.63,1.27,1.27,0,0,0-.16-.42.65.65,0,0,0-.24-.23.6.6,0,0,0-.6,0,.65.65,0,0,0-.24.23,1.36,1.36,0,0,0-.16.42,2.86,2.86,0,0,0-.06.63A2.77,2.77,0,0,0,100.81,43.72Z"/><path class="cls-1" d="M104.21,41.28v2.35a1.07,1.07,0,0,0,.14.62.6.6,0,0,0,.86,0,1.07,1.07,0,0,0,.14-.62V41.28H106v2.35a1.8,1.8,0,0,1-.09.6,1.11,1.11,0,0,1-.26.42,1.29,1.29,0,0,1-.39.23,1.54,1.54,0,0,1-1,0,1.09,1.09,0,0,1-.39-.23,1.11,1.11,0,0,1-.26-.42,1.8,1.8,0,0,1-.09-.6V41.28Z"/><path class="cls-1" d="M106.72,41.28h1a1.14,1.14,0,0,1,.84.29,1.29,1.29,0,0,1,0,1.63,1.14,1.14,0,0,1-.84.29h-.38v1.42h-.66Zm.91,1.7a.6.6,0,1,0,0-1.19h-.25V43Z"/><path class="cls-2" d="M70.83,26.61a5.43,5.43,0,0,1-5.42-5.43V5.29a.61.61,0,1,1,1.22,0V21.18a4.21,4.21,0,1,0,8.41,0V8.33a.61.61,0,0,1,.61-.61.62.62,0,0,1,.61.61V21.18A5.44,5.44,0,0,1,70.83,26.61Z"/><path class="cls-3" d="M64.71,37.87a.61.61,0,0,1,0-1.21A3.66,3.66,0,0,0,68.37,33V18.38a.61.61,0,0,1,.61-.61.62.62,0,0,1,.61.61V33A4.88,4.88,0,0,1,64.71,37.87Z"/><path class="cls-4" d="M76.9,37.87A4.88,4.88,0,0,1,72,33V18.38a.62.62,0,0,1,.61-.61.61.61,0,0,1,.61.61V33a3.66,3.66,0,0,0,3.66,3.66.61.61,0,1,1,0,1.21Z"/><path class="cls-4" d="M76.21,30A4.2,4.2,0,0,1,72,25.78V13.05a.62.62,0,0,1,.61-.61.61.61,0,0,1,.61.61V25.78a3,3,0,1,0,5.94,0V12a.61.61,0,1,1,1.22,0V25.78A4.2,4.2,0,0,1,76.21,30Z"/><path class="cls-3" d="M65.55,28.68a4,4,0,0,1-4-4V12.9a.61.61,0,1,1,1.21,0V24.65a2.82,2.82,0,0,0,5.64,0V18.08a.61.61,0,0,1,.61-.61.61.61,0,0,1,.61.61v6.57A4,4,0,0,1,65.55,28.68Z"/><path class="cls-5" d="M60.07,26.39a4.64,4.64,0,0,1-4.64-4.64v-4a.61.61,0,1,1,1.21,0v4a3.43,3.43,0,0,0,6.86,0V18.69a.61.61,0,1,1,1.21,0v3.06A4.64,4.64,0,0,1,60.07,26.39Z"/><path class="cls-6" d="M80.91,27.61a3.86,3.86,0,0,1-3.86-3.87V16.56a.61.61,0,0,1,.61-.61.61.61,0,0,1,.61.61v7.18a2.65,2.65,0,1,0,5.29,0V19.82a.61.61,0,1,1,1.22,0v3.92A3.87,3.87,0,0,1,80.91,27.61Z"/><circle class="cls-7" cx="66.16" cy="5.97" r="1.45"/><path class="cls-2" d="M66.16,8A2.06,2.06,0,1,1,68.22,6,2.05,2.05,0,0,1,66.16,8Zm0-2.89a.84.84,0,0,0-.84.83A.84.84,0,1,0,67,6,.84.84,0,0,0,66.16,5.14Z"/><circle class="cls-7" cx="68.9" cy="18.15" r="1.45"/><path class="cls-3" d="M68.9,20.21A2.06,2.06,0,1,1,71,18.15,2.05,2.05,0,0,1,68.9,20.21Zm0-2.89a.84.84,0,1,0,.84.83A.84.84,0,0,0,68.9,17.32Z"/><circle class="cls-7" cx="72.56" cy="12.98" r="1.45"/><path class="cls-4" d="M72.56,15a2.06,2.06,0,1,1,2-2A2.05,2.05,0,0,1,72.56,15Zm0-2.89a.84.84,0,0,0-.84.84.84.84,0,1,0,.84-.84Z"/><circle class="cls-7" cx="75.6" cy="7.5" r="1.45"/><path class="cls-2" d="M75.6,9.55A2.06,2.06,0,1,1,77.66,7.5,2.05,2.05,0,0,1,75.6,9.55Zm0-2.89a.84.84,0,1,0,.84.84A.84.84,0,0,0,75.6,6.66Z"/><circle class="cls-7" cx="79.87" cy="11.45" r="1.45"/><path class="cls-4" d="M79.87,13.51a2.06,2.06,0,1,1,2-2.06A2.06,2.06,0,0,1,79.87,13.51Zm0-2.89a.84.84,0,1,0,.83.83A.83.83,0,0,0,79.87,10.62Z"/><circle class="cls-7" cx="84.13" cy="19.68" r="1.45"/><path class="cls-6" d="M84.13,21.73a2.06,2.06,0,1,1,2.05-2.05A2.06,2.06,0,0,1,84.13,21.73Zm0-2.89a.85.85,0,0,0-.84.84.84.84,0,0,0,1.68,0A.85.85,0,0,0,84.13,18.84Z"/><circle class="cls-7" cx="62.2" cy="12.67" r="1.45"/><path class="cls-3" d="M62.2,14.73a2.06,2.06,0,1,1,2.06-2.06A2.05,2.05,0,0,1,62.2,14.73Zm0-2.89a.84.84,0,0,0-.84.83.84.84,0,1,0,1.68,0A.84.84,0,0,0,62.2,11.84Z"/><circle class="cls-7" cx="56.11" cy="17.85" r="1.45"/><path class="cls-5" d="M56.11,19.91a2.06,2.06,0,1,1,2.06-2.06A2.06,2.06,0,0,1,56.11,19.91Zm0-2.9a.84.84,0,1,0,.84.84A.85.85,0,0,0,56.11,17Z"/></svg>