<?xml version="1.0" encoding="utf-8"?>
<!-- Generator: Adobe Illustrator 16.0.0, SVG Export Plug-In . SVG Version: 6.00 Build 0)  -->
<!DOCTYPE svg PUBLIC "-//W3C//DTD SVG 1.1//EN" "http://www.w3.org/Graphics/SVG/1.1/DTD/svg11.dtd">
<svg version="1.1" xmlns="http://www.w3.org/2000/svg" xmlns:xlink="http://www.w3.org/1999/xlink" x="0px" y="0px"
	 width="470.287px" height="514.25px" viewBox="0 0 470.287 514.25" enable-background="new 0 0 470.287 514.25"
	 xml:space="preserve">
<g id="Background">
</g>
<g id="Logos_and_symbols">
	<g id="SYMBOL_VER_3">
	</g>
	<g id="SYMBOL_VER_3_3_">
	</g>
	<g id="SYMBOL_VER_4">
	</g>
	<g id="SYMBOL_VER_4_1_">
		<g id="SYMBOL_VER_4_3_">
		</g>
	</g>
	<g id="SYMBOL_VER_5_1_">
	</g>
	<g id="off_2_1_">
	</g>
	<g id="VER_3_1_">
		<g id="SYMBOL_VER_2_1_">
		</g>
	</g>
	<g id="VER_3">
		<g id="SYMBOL_VER_2">
		</g>
	</g>
	<g id="off_2">
	</g>
	<g id="SYMBOL_VER_5">
	</g>
	<g id="SYMBOL_VER_1">
	</g>
	<g id="SYMBOL_VER_1_1_">
	</g>
	<g id="SYMBOL_VER_1-1_3_">
	</g>
	<g id="SYMBOL_VER_1-1_2_">
	</g>
	<g id="SYMBOL_VER_1-1">
	</g>
	<g id="SYMBOL_VER_1-1_1_">
		<g id="_x31_-3">
		</g>
		<g id="Symbol_-_Original_14_">
		</g>
		<g id="Symbol_-_Original_13_">
		</g>
		<g id="Symbol_-_Original_6_">
		</g>
		<g id="Symbol_-_Original_4_">
		</g>
		<g id="One_color_version_-_White_3_">
			<g id="Symbol_-_Original_15_">
			</g>
		</g>
		<g id="One_color_version_-_White">
			<g id="Symbol_-_Original">
				<g>
					<polygon fill="#28A0F0" points="237.069,328.261 303.209,432.065 364.305,396.658 277.444,259.75 					"/>
					<path fill="#28A0F0" d="M419.942,355.018l-0.045-28.37L324.986,178.82l-35.212,59.75l91.624,148.182l33.127-19.197
						c3.25-2.639,5.217-6.511,5.423-10.69L419.942,355.018z"/>
					<path fill="#28A0F0" d="M22.219,381.771l46.783,26.957L224.68,159.064l-26.422-0.699c-22.512-0.318-46.762,5.535-57.893,23.704
						L51.961,319.094l-29.742,45.697V381.771z"/>
					<polygon fill="#28A0F0" points="314.531,159.064 244.896,159.316 87.353,419.294 142.419,450.999 157.394,425.601 					"/>
					<path fill="#28A0F0" d="M449.287,158.705c-0.582-14.563-8.467-27.895-20.817-35.656L255.354,23.494
						c-12.218-6.152-27.48-6.16-39.719-0.004c-1.447,0.73-168.352,97.527-168.352,97.527c-2.31,1.108-4.535,2.428-6.627,3.925
						c-11.025,7.901-17.747,20.182-18.438,33.673v206.176l29.742-45.697L51.7,160.009c0.036-0.582,0.108-1.155,0.212-1.72
						c0.672-3.743,2.762-7.082,5.908-9.34c0.786-0.561,170.541-98.822,171.08-99.092c3.99-2.004,9.061-2.027,13.057-0.062
						l170.875,98.289c4.043,2.575,6.577,6.94,6.802,11.712v197.067c-0.206,4.18-1.858,8.052-5.108,10.69l-33.127,19.197
						l-17.094,9.906l-61.096,35.407l-61.96,35.907c-3.337,1.205-7.239,1.138-10.548-0.208l-73.308-42.164l-14.975,25.398
						l65.879,37.93c2.179,1.239,4.119,2.338,5.712,3.232c2.467,1.383,4.147,2.308,4.74,2.596c4.684,2.274,11.419,3.598,17.49,3.598
						c5.566,0,10.994-1.022,16.13-3.034l179.964-104.223c10.33-8.003,16.406-20.072,16.953-33.147V158.705z"/>
				</g>
			</g>
		</g>
		<g id="Symbol_-_Monochromatic_3_">
			<g id="_x33__7_">
			</g>
		</g>
		<g id="Symbol_-_Monochromatic">
			<g id="_x33__3_">
			</g>
		</g>
		<g id="_x33__2_">
		</g>
		<g id="_x33__1_">
		</g>
		<g id="_x33_">
		</g>
		<g id="Symbol_-_Original_10_">
		</g>
		<g id="Symbol_-_Original_1_">
		</g>
		<g id="Symbol_-_Original_2_">
		</g>
		<g id="_x34__1_">
		</g>
		<g id="Symbol_-_Monochromatic_2_">
			<g id="_x33__6_">
			</g>
		</g>
		<g id="One_color_version_-_White_2_">
			<g id="Symbol_-_Original_11_">
			</g>
		</g>
		<g id="Symbol_-_Original_5_">
			<g id="Symbol_-_Original_12_">
			</g>
		</g>
		<g id="One_color_version_-_White_1_">
			<g id="Symbol_-_Original_9_">
			</g>
		</g>
	</g>
	<g id="SYMBOL_VER_1_2_">
		<g id="SYMBOL_VER_2_4_">
		</g>
		<g id="SYMBOL_VER_2-1-1_1_">
		</g>
		<g id="SYMBOL_VER_2-2-1_1_">
		</g>
		<g id="SYMBOL_VER_2-3-1_4_">
		</g>
		<g id="New_Symbol_1_">
			<g id="SYMBOL_VER_2-3-1_3_">
			</g>
		</g>
		<g id="New_Symbol">
			<g id="SYMBOL_VER_2-3-1_1_">
			</g>
		</g>
	</g>
	<g id="SYMBOL_VER_2_2_">
	</g>
	<g id="SYMBOL_VER_4_2_">
	</g>
	<g id="SYMBOL_VER_3_2_">
	</g>
	<g id="SYMBOL_VER_3_1_">
	</g>
	<g id="SYMBOL_VER_1-1-1_1_">
	</g>
	<g id="SYMBOL_VER_1-1-1">
	</g>
	<g id="SYMBOL_VER_1-1-1_2_2_">
	</g>
	<g id="SYMBOL_VER_1-1-1_2">
	</g>
	<g id="SYMBOL_VER_1-1-1_2_1_">
	</g>
	<g id="Symbol_-_Original_7_">
	</g>
	<g id="Symbol_-_Original_8_">
	</g>
	<g id="SYMBOL_VER_2-1-1">
	</g>
	<g id="SYMBOL_VER_2-2-1">
	</g>
	<g id="SYMBOL_VER_2-3-1">
	</g>
	<g id="SYMBOL_VER_5-1_1_">
	</g>
	<g id="SYMBOL_VER_5-1">
	</g>
	<g id="SYMBOL_VER_5-2_1_">
	</g>
	<g id="SYMBOL_VER_5-2">
	</g>
	<g id="Symbol_-_Monochromatic_1_">
		<g id="_x33__4_">
		</g>
	</g>
</g>
</svg>
