<svg id="图层_1" data-name="图层 1" xmlns="http://www.w3.org/2000/svg" viewBox="0 0 140 50"><defs><style>.cls-1{fill:#ed771d;}.cls-2{fill:#5a5958;}</style></defs><path class="cls-1" d="M58,27.14A10.19,10.19,0,0,1,57.87,25c0-2.23,0-4.47,0-6.7a7.07,7.07,0,0,1,1-3.77,6.09,6.09,0,0,1,4.41-2.8,5.72,5.72,0,0,1,.92-.08h7.61a2.52,2.52,0,0,1,2.49,2.24,2.58,2.58,0,0,1-2,2.87,3.25,3.25,0,0,1-.7.05H64.87A1.75,1.75,0,0,0,63,18.64c0,2.27,0,4.55,0,6.82a1.74,1.74,0,0,0,1.76,1.69h9.44c.27,0,.35-.07.35-.35,0-3,0-5.94,0-8.91a5.72,5.72,0,0,1,2.17-4.68,7.38,7.38,0,0,1,3.55-1.49,5.61,5.61,0,0,1,1-.07h7.32a5.92,5.92,0,0,1,4.59,1.87,7.13,7.13,0,0,1,1.69,3.89,7.86,7.86,0,0,1,.07,1.18V29.67a2.55,2.55,0,0,1-5.07.45,3.62,3.62,0,0,1,0-.47V18.81a1.87,1.87,0,0,0-2-2H81.57a1.79,1.79,0,0,0-1.9,1.89c0,1,0,2.08,0,3.12V29.6a2.61,2.61,0,0,1-2.73,2.73H64.45l-.44,0-.64-.09a6.3,6.3,0,0,1-3.54-1.72A6.93,6.93,0,0,1,58,27.14Z"/><path class="cls-2" d="M58,27.14a6.93,6.93,0,0,0,1.79,3.36,6.3,6.3,0,0,0,3.54,1.72l.64.09-.56,0c-5.2,0-10.39,0-15.59,0A6.45,6.45,0,0,1,43,30.39a7,7,0,0,1-1.8-4,4.73,4.73,0,0,1,0-.92c0-2.36,0-4.72,0-7.08a7.38,7.38,0,0,1,.94-3.65,6.08,6.08,0,0,1,4.55-3,6.23,6.23,0,0,1,1.06-.07c2.43,0,4.86,0,7.29,0a2.6,2.6,0,1,1,0,5.19c-2.28,0-4.57,0-6.85,0a1.79,1.79,0,0,0-1.86,2v6.38a1.8,1.8,0,0,0,2,2H58Z"/><path class="cls-2" d="M53,19.93c.51,0,1,0,1.53,0a2.07,2.07,0,0,1,0,4.12c-1,0-2,0-3,0a2.06,2.06,0,0,1,0-4.12c.5,0,1,0,1.51,0Z"/><path class="cls-1" d="M75.17,38a1.9,1.9,0,0,1,1.63-.89,1.43,1.43,0,0,1,1.41,1c.15-.06.18-.19.26-.29a1.77,1.77,0,0,1,2.34-.48,1.56,1.56,0,0,1,.67,1.32c0,1,0,2,0,3,0,.3-.24.14-.37.17s-.25,0-.25-.22c0-.79,0-1.59,0-2.39a5.4,5.4,0,0,0,0-.56,1.06,1.06,0,0,0-1.54-.91,1.42,1.42,0,0,0-.86,1,4.9,4.9,0,0,0-.13,1.38c0,.48,0,1,0,1.44,0,.25-.09.3-.31.29s-.32,0-.31-.28c0-.82,0-1.65,0-2.48,0-.11,0-.21,0-.32A1,1,0,0,0,77,37.71a1.38,1.38,0,0,0-1.38.46,2.25,2.25,0,0,0-.41,1.39q0,1,0,2c0,.26-.1.28-.31.28s-.32,0-.32-.28c0-1.37,0-2.73,0-4.1,0-.27.13-.27.32-.27s.34,0,.31.28A3.71,3.71,0,0,0,75.17,38Z"/><path class="cls-1" d="M57.76,39.56H56c-.24,0-.31.06-.27.3A1.79,1.79,0,0,0,57,41.36a1.87,1.87,0,0,0,2-.77c.16-.24.28-.3.53-.14s.16.18.07.33A2.41,2.41,0,0,1,57.15,42a2.27,2.27,0,0,1-2-1.72,2.51,2.51,0,0,1,.87-2.7,2.47,2.47,0,0,1,2.7-.1,2.41,2.41,0,0,1,1.13,1.94c0,.2-.09.2-.23.2Zm-.3-.51h1.47c.2,0,.26,0,.19-.25a1.74,1.74,0,0,0-1.72-1.14,1.7,1.7,0,0,0-1.6,1.17c-.06.18,0,.22.16.22Z"/><path class="cls-1" d="M43.78,39.56H42c-.22,0-.26.07-.23.28A1.72,1.72,0,0,0,43,41.33a1.84,1.84,0,0,0,2-.62l.14-.19a.39.39,0,0,1,.61,0c0,.08,0,.13,0,.18a2.41,2.41,0,0,1-2.58,1.2A2.3,2.3,0,0,1,41.13,40a2.39,2.39,0,0,1,1-2.5,2.39,2.39,0,0,1,3.78,1.82c0,.19-.06.23-.23.23Zm-.3-.51h1.45c.23,0,.29,0,.2-.28a1.77,1.77,0,0,0-3.32.11c-.06.19.06.17.16.17Z"/><path class="cls-1" d="M66.07,39.56H64.3c-.33,0-.35,0-.29.36a1.76,1.76,0,0,0,1.35,1.45,2,2,0,0,0,2-.8c.07-.11.09-.33.34-.2s.37.19.14.54a2.47,2.47,0,0,1-2.85.93,2.45,2.45,0,1,1,2.94-3.48,3,3,0,0,1,.26.93c0,.21,0,.28-.25.28Zm-.31-.51h1.48c.22,0,.24-.07.17-.26a1.76,1.76,0,0,0-3.31.06c-.06.18,0,.2.16.2Z"/><path class="cls-1" d="M50.55,38a7.23,7.23,0,0,1,.58-.5,1.76,1.76,0,0,1,2.66.54A2.92,2.92,0,0,1,54,39.24c0,.79,0,1.57,0,2.36,0,.3-.18.23-.35.25s-.27,0-.27-.26c0-.92,0-1.85,0-2.77a1.22,1.22,0,0,0-2-1,1.67,1.67,0,0,0-.82,1.32,23.86,23.86,0,0,0,0,2.39c0,.25-.09.29-.31.29s-.31,0-.31-.29c0-2,0-3.91,0-5.87,0-.25.09-.29.31-.29s.31,0,.3.29C50.54,36.42,50.55,37.16,50.55,38Z"/><path class="cls-1" d="M91.46,38c.19-.18.31-.31.45-.43a1.78,1.78,0,0,1,2.81.56,2.73,2.73,0,0,1,.17,1c0,.83,0,1.67,0,2.5,0,.25-.13.24-.29.23s-.34.06-.33-.22c0-.84,0-1.68,0-2.51,0-.11,0-.22,0-.32a1.22,1.22,0,0,0-1.91-1,1.66,1.66,0,0,0-.87,1.48c0,.74,0,1.49,0,2.24,0,.24-.07.31-.31.31s-.31-.06-.31-.31c0-1.35,0-2.69,0-4,0-.26.08-.3.31-.31s.34.08.31.32A3.32,3.32,0,0,0,91.46,38Z"/><path class="cls-1" d="M72.64,38.72c0-.43,0-.87,0-1.3,0-.23.11-.24.27-.22s.36-.11.35.2c0,.89,0,1.77,0,2.65a2,2,0,0,1-2.89,1.76A1.84,1.84,0,0,1,69.21,40c0-.87,0-1.75,0-2.62,0-.28.19-.19.33-.2s.29,0,.29.21c0,.77,0,1.53,0,2.3a4.19,4.19,0,0,0,0,.5,1.2,1.2,0,0,0,.88,1.08A1.47,1.47,0,0,0,72.24,41a1.18,1.18,0,0,0,.36-.73C72.65,39.74,72.64,39.23,72.64,38.72Z"/><path class="cls-1" d="M87.61,37.08a2.48,2.48,0,0,1,1.91.83c.07.08.28.19.07.32s-.28.33-.52.07a2.08,2.08,0,0,0-2.3-.51,1.85,1.85,0,0,0-1.17,2,1.88,1.88,0,0,0,1.74,1.65,2,2,0,0,0,1.73-.63c.25-.28.39,0,.53.09s0,.22-.09.29a2.78,2.78,0,0,1-3.53.35,2.37,2.37,0,0,1-.63-3.25A2.53,2.53,0,0,1,87.61,37.08Z"/><path class="cls-1" d="M47.5,39.8c0-.6,0-1.2,0-1.8,0-.22-.06-.31-.28-.28H47q-.42,0-.3-.42c0-.13.14-.09.22-.1.59,0,.59,0,.59-.61,0-.3,0-.61,0-.91s.19-.19.33-.2.3,0,.29.2c0,.42,0,.84,0,1.27,0,.18,0,.27.25.25s.26,0,.39,0c.32,0,.36.06.31.38,0,.1,0,.15-.14.14h-.09c-.22,0-.51-.09-.65.05s-.06.46-.06.71q0,1.55,0,3.09c0,.27-.11.28-.31.28s-.32,0-.31-.28C47.52,41,47.5,40.39,47.5,39.8Z"/><path class="cls-1" d="M61.38,37.76c.15-.14.28-.28.42-.4a1.12,1.12,0,0,1,.82-.27c.15,0,.33,0,.4.14s-.11.25-.16.38a.16.16,0,0,1-.21.1.83.83,0,0,0-1,.45,2.47,2.47,0,0,0-.32,1.39c0,.66,0,1.33,0,2,0,.26-.1.31-.33.3s-.31,0-.3-.28c0-1.37,0-2.74,0-4.1,0-.28.13-.27.33-.27s.34,0,.3.28A.39.39,0,0,0,61.38,37.76Z"/><path class="cls-1" d="M83.44,42a.53.53,0,0,1,0-1.06.52.52,0,0,1,.55.52A.54.54,0,0,1,83.44,42Z"/></svg>