<?xml version="1.0" encoding="utf-8"?>
<!-- Generator: Adobe Illustrator 26.3.1, SVG Export Plug-In . SVG Version: 6.00 Build 0)  -->
<svg version="1.1" id="图层_1" xmlns="http://www.w3.org/2000/svg" xmlns:xlink="http://www.w3.org/1999/xlink" x="0px" y="0px"
	 viewBox="0 0 80 78" style="enable-background:new 0 0 80 78;" xml:space="preserve">
<style type="text/css">
	.st0{fill:#77FAA1;}
</style>
<path class="st0" d="M39.8,0c21.1-0.2,39.7,16.6,39.7,39c0,21.4-17.5,39.1-39.9,39C17.6,77.9,0,60.7,0,38.9C0,16.6,18.7-0.2,39.8,0z
	 M40.4,43.3c-1.5,0-3.1,0-4.6,0c-0.7,0-1,0.9-0.9,1.6c0,1.1,0,2.1,0,3.2c0,1.1-0.5,2.1-1.2,2.8c-0.7,0.7-1.7,1.2-2.8,1.2
	c-2.2,0.1-4.2-1.6-4.3-3.7c-0.1-1.1,0.2-2.2,0.9-3c0.7-0.8,1.7-1.4,2.7-1.5c1.3-0.1,2.5-0.2,3.8-0.1c0.6,0,1.4-0.2,1.4-0.9
	c0-3,0-6.1,0-9.1c0-0.5-0.7-0.8-1.3-0.8c-1.9,0-3.8-0.1-5.7,0.2c-8.5,1.3-14.3,9.4-12.6,17.7c1.6,7.8,9,12.9,17.1,11.8
	c2.9-0.4,5.7-1.6,7.9-3.6c2.2-1.9,3.9-4.5,4.6-7.4c0.7-2.4,0.4-4.8,0.5-7.2c0-0.6-0.4-1.3-0.9-1.3C43.5,43.3,41.9,43.3,40.4,43.3
	L40.4,43.3z M55.8,16.7c-1.8,0-3.7,0-5.5,0c-1.8,0-3.7,0.3-5.4,1c-6,2.3-9.9,7.6-10,14.4c0,0.7,0.3,1.7,0.9,1.7c3.1,0,6.1,0,9.2,0
	c0.7,0,1-1,1-1.8c0.1-2.9,1.9-4.5,4.8-4.5c3.6,0,7.3,0,10.9,0c0.7,0,1-0.2,1-0.9c0-3,0-6,0-9c0-0.7-0.3-0.9-1-0.9
	C59.7,16.7,57.8,16.7,55.8,16.7z M51.7,43.8c1.5,0,3,0,4.5,0c0.7,0,1-0.2,1-1c0-2.9,0-5.9,0-8.8c0-0.7-0.2-1-0.9-1c-3,0-6.1,0-9.1,0
	c-0.7,0-1.8,0.2-1.8,0.9c0,3,0,5.9,0,8.9c0,0.7,1.2,0.9,1.8,0.9C48.6,43.8,50.1,43.8,51.7,43.8L51.7,43.8z"/>
</svg>
