<?xml version="1.0" encoding="utf-8"?>
<!-- Generator: Adobe Illustrator 26.3.1, SVG Export Plug-In . SVG Version: 6.00 Build 0)  -->
<svg version="1.1" id="图层_1" xmlns="http://www.w3.org/2000/svg" xmlns:xlink="http://www.w3.org/1999/xlink" x="0px" y="0px"
	 viewBox="0 0 140 50" style="enable-background:new 0 0 140 50;" xml:space="preserve">
<style type="text/css">
	.st0{fill:#174D9D;}
	.st1{fill:url(#SVGID_1_);}
</style>
<path class="st0" d="M12.6,24.7h8v2h-4.3l0.3-1.3h-2.9l-1,3.9h7.9V31h-7.1v2.6h7.1v1.6h-8v2.6h18.5v-2.6h-8v-1.6h7.1V31h-7.1v-1.8
	h7.5v-2.6h-7.5v-2h6.1c0.3,0,0.5-0.1,0.8-0.2c0.2-0.2,0.5-0.4,0.6-0.6c0.2-0.3,0.3-0.6,0.4-0.9c0.1-0.4,0.2-0.8,0.2-1.2v-7.1H12.6
	V24.7z M15,17.1h13.9v1.5H15V17.1z M15,20.7h13.9v1c0,0.3-0.1,0.5-0.3,0.5H15V20.7z"/>
<path class="st0" d="M51.8,14.6H41.1v2.6h10.7V14.6z"/>
<path class="st0" d="M41.1,22.8h4.2v11.3c0,0.3-0.1,0.7-0.2,0.9c-0.1,0.2-0.3,0.2-0.5,0.2h-1.1l-0.4,2.6h2.1c0.3,0,0.8-0.1,1-0.3
	c0.3-0.2,0.5-0.4,0.7-0.8c0.2-0.3,0.4-0.7,0.5-1.1c0.1-0.4,0.2-1.1,0.2-1.4V22.8h4.1v-2.6H41.1V22.8z"/>
<path class="st0" d="M39.5,16.5c0.1-1-0.2-1.9-1.1-1.9h-2.5h-1.2h-1.1v23.1h2.4V17.2h0.8c0.2,0,0.4,0.2,0.3,0.4l-1,9.9h1.3l-1.3,9
	h2.3l1.7-11.6h-1.5L39.5,16.5z"/>
<path class="st0" d="M48.7,27.4l0.7,10.2h2.4L51,27.4H48.7z"/>
<path class="st0" d="M41.4,27.4l-1.1,10.2h2.4l1.1-10.2H41.4z"/>
<path class="st0" d="M65.1,30.7l-0.7,1.1L61,37.8h2.8h0.1L66,34l0.6-1l0.9-1.5V20h-2.4V30.7z"/>
<path class="st0" d="M59.9,23.8h-1.6l2.4-6.5l0.1-0.2h-2.9l-0.7-2.5h-2.4l0.7,2.5h-2.2v2.6h3.8h0.1l-3.8,10.7h2.3v0v7.4h2.4V26.3
	l0.9,6h2.4L59.9,23.8z"/>
<path class="st0" d="M66.6,34.3c0,0.5,0.1,1,0.2,1.4c0.1,0.4,0.3,0.8,0.5,1.1c0.2,0.3,0.6,0.6,0.9,0.7c0.3,0.2,0.9,0.3,1.2,0.3h2.6
	v-2.5h-2c-0.2,0-0.5,0-0.7-0.2C69.1,35,69,34.8,69,34.5c0-0.4,0-1.5,0-1.5h-2.4C66.6,32.9,66.6,33.9,66.6,34.3z"/>
<path class="st0" d="M70.6,15.5c-0.4-0.6-0.9-0.9-1.4-0.9h-7.6v0.2v17.1h0.3h2.1v-1.5V17.1h3.7c0.3,0,0.5,0.1,0.7,0.4
	c0.2,0.3,0.3,0.6,0.3,1.1v13.3h2.5V17.6C71.1,16.8,70.9,16.1,70.6,15.5z"/>
<path class="st0" d="M90.9,30.7l-3.3-5.2h0.3h0.4c0.3,0,0.6-0.1,0.9-0.3c0.3-0.2,0.5-0.4,0.7-0.8c0.2-0.3,0.4-0.7,0.5-1.1
	c0.1-0.4,0.2-0.9,0.2-1.4v-4.6v-2.8H73v10.9h3.2l-3.3,5.2h3l0.4-0.6v4.2L75,37.8h2.4l1.3-3.5v-6h-1.2l1.8-2.7h5.6l1.7,2.7h-1.4v9.5
	h2.4V30l0.5,0.8H90.9L90.9,30.7z M83.3,17.2h5v1.7h-5V17.2z M80.8,23h-5.4v-1.6h5.4V23z M80.8,18.9h-5.4v-1.7h5.4V18.9z M83.3,21.4
	h5v0.6c0,0.3-0.1,0.5-0.2,0.7S87.8,23,87.7,23h-4.3L83.3,21.4L83.3,21.4z"/>
<linearGradient id="SVGID_1_" gradientUnits="userSpaceOnUse" x1="95.6522" y1="25.0641" x2="128.937" y2="25.0641" gradientTransform="matrix(1 0 0 -1 0 51)">
	<stop  offset="0" style="stop-color:#F03D03"/>
	<stop  offset="1" style="stop-color:#FFBA2F"/>
</linearGradient>
<path class="st1" d="M128.9,25.6H95.7v0.7h33.3V25.6z"/>
<path class="st0" d="M96.8,14.7v9.1h-1.2v-9.1H96.8z"/>
<path class="st0" d="M98.9,14.7h2.2c1.3,0,2.3,0.2,2.9,0.7c0.6,0.4,0.9,1.2,0.9,2.1c0,1.9-1.2,2.8-3.5,2.8l-1.3,0v3.4h-1.2V14.7z
	 M100.1,15.8v3.4l1.2,0c1.5,0,2.3-0.6,2.3-1.7c0-1.2-0.8-1.7-2.2-1.7H100.1z"/>
<path class="st0" d="M112.1,14.7v1.1h-4.7v2.7h4.6v1.1h-4.6v4.1h-1.2v-9.1L112.1,14.7L112.1,14.7z"/>
<path class="st0" d="M119.5,16.8h-1.3c-0.2-0.9-0.8-1.3-1.7-1.3c-0.5,0-0.9,0.1-1.2,0.4c-0.3,0.2-0.5,0.6-0.5,1c0,0.6,0.5,1,1.5,1.5
	l1.3,0.5c0.8,0.3,1.4,0.7,1.7,1.1c0.3,0.4,0.5,0.9,0.5,1.5c0,0.8-0.3,1.5-0.9,2c-0.6,0.5-1.4,0.7-2.5,0.7c-1.9,0-3-0.8-3.3-2.5h1.4
	l0,0.1c0.2,0.9,0.8,1.3,1.9,1.3c0.6,0,1-0.1,1.4-0.4c0.4-0.3,0.5-0.6,0.5-1c0-0.6-0.5-1.1-1.5-1.5l-1.1-0.5
	c-0.8-0.3-1.4-0.7-1.8-1.1c-0.3-0.4-0.5-0.9-0.5-1.5c0-1.7,1-2.5,3-2.5C118.3,14.5,119.3,15.2,119.5,16.8L119.5,16.8z"/>
<path class="st0" d="M102.7,28.7v9.1h-1l-4.8-6.9v6.9h-1.2v-9.1h1.2l4.6,7v-7H102.7z"/>
<path class="st0" d="M110.4,28.7v1.1h-4.8v2.7h4.8v1.1h-4.8v3h5v1.2h-6.2v-9.1L110.4,28.7L110.4,28.7z"/>
<path class="st0" d="M117,29.7l-1.7,8.1h-1.7l-2-9.1h1.1l1.7,7.8l1.7-7.8h1.2l1.7,7.8l1.9-7.8h1.1l-2.2,9.1h-1.7l-1.7-8.1H117z"/>
<path class="st0" d="M129,30.9h-1.3c-0.2-0.9-0.8-1.3-1.7-1.3c-0.5,0-0.9,0.1-1.2,0.4c-0.3,0.2-0.5,0.6-0.5,1c0,0.6,0.5,1,1.5,1.5
	l1.3,0.5c0.8,0.3,1.4,0.7,1.7,1.1c0.3,0.4,0.5,0.9,0.5,1.5c0,0.8-0.3,1.5-0.9,2c-0.6,0.5-1.4,0.7-2.5,0.7c-1.9,0-3-0.8-3.2-2.5h1.4
	l0,0.1c0.2,0.9,0.8,1.3,1.9,1.3c0.6,0,1-0.1,1.4-0.4c0.4-0.3,0.5-0.6,0.5-1c0-0.6-0.5-1.1-1.5-1.5l-1.1-0.5
	c-0.8-0.3-1.4-0.7-1.8-1.1c-0.3-0.4-0.5-0.9-0.5-1.5c0-1.7,1-2.5,3-2.5C127.7,28.5,128.7,29.3,129,30.9L129,30.9z"/>
</svg>
