<svg id="图层_1" data-name="图层 1" xmlns="http://www.w3.org/2000/svg" viewBox="0 0 140 50"><defs><style>.cls-1{fill:#040404;}.cls-2{fill:#f97808;}</style></defs><path class="cls-1" d="M35.33,22.51q0-4.86,0-9.7c0-.45.07-.64.59-.74,2.62-.5,5.26-.77,7.9-1.08a6.8,6.8,0,0,1,4.36.68c1.84,1.09,3.7,2.16,5.54,3.24l2.06,1.19a4.38,4.38,0,0,1,2.33,3.28,6.77,6.77,0,0,1-.84,5.16c-.4.56-.27.79.19,1.21a4.46,4.46,0,0,1,1.19,3.38,8,8,0,0,1-1.4,5.07,3.35,3.35,0,0,1-.6.59,8.86,8.86,0,0,1-5,2,19.47,19.47,0,0,0-3.15.48c-1.18.32-2.39.33-3.56.63a2,2,0,0,1-1.71-.48,6.74,6.74,0,0,0-.62-.42c-1.65-.85-3.21-1.86-4.83-2.75-.69-.38-1.36-.8-2.06-1.18a.7.7,0,0,1-.43-.73C35.33,29.08,35.33,25.8,35.33,22.51Zm17.79,2.77c.85-.37,1.38-.94,2.07-1.3a1.7,1.7,0,0,0,.81-.82,6,6,0,0,0,.28-3.68,2.45,2.45,0,0,0-1.17-1.55c-.84-.53-1.74-1-2.59-1.5-1.54-1-3.15-1.8-4.72-2.7a3.9,3.9,0,0,0-1.13-.66,9.67,9.67,0,0,0-2.84-.19c-2.15.24-4.27.66-6.4.94-.31,0-.31.19-.31.41q0,8.55,0,17.1a.46.46,0,0,0,.28.48c.53.28,1,.65,1.56.93,1.49.79,2.88,1.75,4.39,2.51a2,2,0,0,1,.72.4c.43.51.93.31,1.42.26.21,0,.35-.19.57-.22,1.83-.25,3.65-.56,5.49-.78a7.06,7.06,0,0,0,4.18-1.86,1.61,1.61,0,0,0,.36-.42,7.07,7.07,0,0,0,.67-4.29,2,2,0,0,0-1.18-1.64C54.77,26.29,54.09,25.68,53.12,25.28Z"/><path class="cls-1" d="M67.55,31.43c1.51.55,1.67,1.72,1.47,3a2.43,2.43,0,0,1-2.49,2.11c-1.54.15-3.09.06-4.64.08-.26,0-.31-.09-.31-.32V27c0-.16,0-.36.23-.35a30,30,0,0,1,5.19.2,2,2,0,0,1,1.72,1.52,2.8,2.8,0,0,1-.53,2.72A3,3,0,0,1,67.55,31.43Zm-3.27,2c0,1,0,1,1,.9a.88.88,0,0,1,.28,0c.62.08.94-.74.79-1.17s-.65-.52-1.1-.56C64.28,32.57,64.28,32.57,64.28,33.47Zm0-3.8c0,.39-.24.93.57.86,1-.07,1.33-.23,1.31-.82s-.3-.78-1.34-.85C64,28.81,64.34,29.34,64.28,29.67Z"/><path class="cls-1" d="M61.34,19.31a10.36,10.36,0,0,1,.23-2.48,3.21,3.21,0,0,1,2.78-2.73,8.24,8.24,0,0,1,3.28.12c1.54.4,2.1,1.61,2.35,3a9.4,9.4,0,0,1-.12,4.38c-.51,1.74-1.19,2.41-3.29,2.62a7.73,7.73,0,0,1-2.4-.1c-1.53-.32-2.12-1-2.58-2.59A7,7,0,0,1,61.34,19.31Zm5.94-.18c0-.36,0-.71,0-1.07a2.61,2.61,0,0,0-.08-.55,1.3,1.3,0,0,0-1.35-1.21c-.86,0-1.27.15-1.56,1.28a2.91,2.91,0,0,0-.08.78,6.44,6.44,0,0,0,.34,3,1.07,1.07,0,0,0,1.12.55c.48,0,1,0,1.26-.51A4.5,4.5,0,0,0,67.28,19.13Z"/><path class="cls-1" d="M97,28.84c-.69,1.14-1.32,2.19-2,3.22a.74.74,0,0,0,0,.86c.7,1.2,1.36,2.42,2.09,3.73H94.21c-.22,0-.27-.17-.34-.32l-1.05-2.21a3.88,3.88,0,0,0-.15-.36c0-.1-.1-.22-.24-.18s-.1.19-.1.29c0,.76,0,1.53,0,2.29,0,.4-.11.52-.5.5-.58,0-1.16,0-1.74,0-.26,0-.36-.07-.36-.35,0-3.46,0-6.91,0-10.37,0-.3.14-.33.38-.32.6,0,1.2,0,1.79,0,.37,0,.43.13.43.46,0,1.64,0,3.29,0,4.93,0,.16-.13.41.14.48s.34-.19.43-.36c.34-.65.68-1.32,1-2a.46.46,0,0,1,.47-.31C95.23,28.85,96.07,28.84,97,28.84Z"/><path class="cls-1" d="M86.64,21.7c0,.51,0,1,0,1.44a.66.66,0,0,1-.59.82,8.78,8.78,0,0,1-3.88.17,2.63,2.63,0,0,1-2.13-2.42,7.58,7.58,0,0,1,0-3.11,2.82,2.82,0,0,1,2.53-2.35,8.84,8.84,0,0,1,2.12,0,2.54,2.54,0,0,1,2.19,2.17A15,15,0,0,1,87,20.53c0,.34-.13.46-.49.47-1.2.05-2.39.14-3.58.22-.13,0-.32-.09-.37.12a.47.47,0,0,0,.14.41,1.46,1.46,0,0,0,.9.4A6.4,6.4,0,0,0,86.64,21.7ZM83,19.32c.46,0,.91-.1,1.35-.1s.39-.22.27-.49a.79.79,0,0,0-.83-.43c-.45,0-.92,0-1.18.44-.09.16-.21.38-.11.53S82.86,19.29,83,19.32Z"/><path class="cls-1" d="M74.17,17a2.8,2.8,0,0,1,2.46-.83,2,2,0,0,1,2,1.8,15.74,15.74,0,0,1,.08,2.57c0,1,0,2.09,0,3.14,0,.32-.06.47-.43.45a16.64,16.64,0,0,0-1.73,0c-.36,0-.44-.11-.44-.44,0-1.4,0-2.8,0-4.21,0-.35,0-.75-.35-.93a1.46,1.46,0,0,0-1.35,0c-.29.15-.32.42-.32.72,0,1.4,0,2.8,0,4.2,0,.55-.17.66-.66.63a13.71,13.71,0,0,0-1.57,0c-.3,0-.38-.08-.38-.37q0-3.57,0-7.12c0-.26.06-.36.34-.35.5,0,1,0,1.51,0S74.3,16.27,74.17,17Z"/><path class="cls-1" d="M74.59,32.89a4.38,4.38,0,0,1,1-3.45A2.49,2.49,0,0,1,77,28.79a7.21,7.21,0,0,1,2.62,0A2.65,2.65,0,0,1,81.81,31a6.64,6.64,0,0,1,0,3.54,2.54,2.54,0,0,1-2.52,2.15,9.42,9.42,0,0,1-1.84,0,2.75,2.75,0,0,1-2.74-2.58A5.39,5.39,0,0,1,74.59,32.89Zm2.58-.2a5.9,5.9,0,0,0,.14,1.45.82.82,0,0,0,.82.63c.42,0,.91,0,1-.45a4.69,4.69,0,0,0-.06-3.22.75.75,0,0,0-.81-.45.81.81,0,0,0-.83.42A3.51,3.51,0,0,0,77.17,32.69Z"/><path class="cls-1" d="M88.48,30v.06c0,.34.11.77-.06,1s-.52-.15-.81-.19a1.84,1.84,0,0,0-2,.73,2.77,2.77,0,0,0,.22,2.61,1.34,1.34,0,0,0,.92.34,2.75,2.75,0,0,0,1.28-.11c.53-.2.53.07.51.45s0,.56,0,.84c0,.82,0,.83-.79.94a8,8,0,0,1-2.4,0A2.73,2.73,0,0,1,83,34.23a8.4,8.4,0,0,1,0-3,2.85,2.85,0,0,1,2.82-2.51,15.89,15.89,0,0,1,2.07,0c.42,0,.72.14.61.67A3.11,3.11,0,0,0,88.48,30Z"/><path class="cls-1" d="M70.43,30.43c0-1.42,0-2.84,0-4.25,0-.49.14-.6.6-.57a9.52,9.52,0,0,0,1.51,0c.39,0,.5.1.5.5,0,2.48,0,5,0,7.44,0,.2,0,.41,0,.61s.16.46.42.42c.42,0,.39.2.38.47v.44c0,1.22,0,1.22-1.2,1.21a2.75,2.75,0,0,1-.5,0c-1.14-.14-1.64-.63-1.68-1.77,0-1.49,0-3,0-4.48Z"/><path class="cls-2" d="M102.12,34.88c0,1.47,0,1.46-1.5,1.45-.41,0-.5-.15-.48-.52,0-.67,0-1.34,0-2,0-.35-.11-.46-.45-.45-.64,0-1.27,0-1.91,0-.29,0-.39-.1-.38-.39,0-.45,0-.9,0-1.34s.1-.39.39-.39c.65,0,1.31,0,2,0,.3,0,.39-.1.39-.39,0-.69,0-1.38,0-2.07,0-.32.06-.46.43-.47,1.55,0,1.54,0,1.55,1.51,0,.46-.21,1.07.1,1.34s.86.07,1.31.07c1.3,0,1.3,0,1.3,1.31,0,.8,0,.8-.79.8h-1.57c-.26,0-.37.07-.36.34S102.12,34.49,102.12,34.88Z"/></svg>