<svg id="图层_1" data-name="图层 1" xmlns="http://www.w3.org/2000/svg" viewBox="0 0 140 50"><defs><style>.cls-1{fill:#0084dd;}</style></defs><path class="cls-1" d="M24.43,39.43H41.34c.47,0,.67-.06.6-.62-.09-.85.32-1.21,1.17-1.21h.09c1,0,1-.06.93-1.07,0-.24-.13-.34-.36-.34s-.74,0-1.1,0-.48-.12-.46-.45c0-.14,0-.28,0-.43V23.23l-.1,0c-.31.79-.65,1.57-.92,2.37Q40,29,39,32.53a1.87,1.87,0,0,1-.48.87,1.68,1.68,0,0,1-1.7.31,1.5,1.5,0,0,1-.62-1.51A12.29,12.29,0,0,1,37,29.05a90.61,90.61,0,0,1,4.74-11c.2-.36.1-.48-.29-.46s-.87,0-1.3,0a.56.56,0,0,1-.59-.39,1.74,1.74,0,0,1,.08-1.57.64.64,0,0,1,.63-.36c.72,0,1.44,0,2.16,0a.63.63,0,0,0,.64-.74c0-.19-.19-.15-.3-.15-.58,0-1.16,0-1.73,0a.67.67,0,0,1-.76-.51,1.65,1.65,0,0,1-.07-1,.82.82,0,0,1,.91-.71c1.59,0,3.17,0,4.76,0,.58,0,.62.05.47.62a29.07,29.07,0,0,1-2,5.48c-.26.51-.25.52.3.52,1.94,0,3.88,0,5.82,0,.4,0,.48-.09.28-.46a24.26,24.26,0,0,1-2.11-5.54c-.15-.59-.13-.62.5-.62h4.71c.68,0,.95.25,1,.94a1.85,1.85,0,0,1-.06.66c-.12.43-.33.69-.85.65a13,13,0,0,0-1.53,0c-.18,0-.51-.12-.48.21s.07.65.47.69a4.4,4.4,0,0,0,1,0c.53-.06,1,0,1.58-.05a.79.79,0,0,1,.88.64,1.65,1.65,0,0,1,.06.85c-.12.68-.29.82-1,.82-.35,0-.71,0-1.06,0s-.48.11-.29.45.4.77.63,1.13A25.33,25.33,0,0,1,56.52,24c.5,1.35,1,2.68,1.6,4s.8,2.49,1.23,3.73a2,2,0,0,1,.09.81,1.34,1.34,0,0,1-1.13,1.3A1.29,1.29,0,0,1,56.82,33c-.38-1-.71-2.09-1-3.14-.68-2.12-1.43-4.21-2.29-6.26a1.53,1.53,0,0,0-.37-.55V35.49c0,.71,0,.71-.73.71H52c-.77,0-.77,0-.77.75s0,.65.67.66,1.29-.17,1.56.65a1.6,1.6,0,0,1,.06.81c-.06.29.06.38.33.36H65.57c.66,0,.66,0,.67-.66,0-2.62,0-5.24,0-7.87,0-.39,0-.66-.53-.68s-.53-.41-.52-.79.14-.67.59-.65.48-.14.46-.48a6.32,6.32,0,0,1,0-.87c0-.43,0-.79-.6-.76-.31,0-.37-.34-.5-.67A33,33,0,0,0,64,29.26c-.36,1.12-.73,2.25-1.11,3.37a1.43,1.43,0,0,1-1,1c-.5.11-.77-.1-.78-.62a4.17,4.17,0,0,1,.29-1.4c.85-2.55,1.85-5.05,2.79-7.56.58-1.56,1.23-3.09,1.87-4.63a.93.93,0,0,1,.85-.67.7.7,0,0,1,.77.85,3.31,3.31,0,0,1-.25.92c-.16.38,0,.46.32.43H68a.71.71,0,0,1,.75,1,.48.48,0,0,1-.52.4c-.24,0-.49,0-.72,0a1,1,0,0,0-1.18.75c-.25.72-.58,1.41-.9,2.19h2.81a.63.63,0,0,1,.71.5.65.65,0,0,1-.7.87c-.4,0-.55.14-.52.53a6.15,6.15,0,0,1,0,1c0,.46.12.66.59.6a.58.58,0,0,1,.67.34.88.88,0,0,1-.08.87.64.64,0,0,1-.67.26c-.37,0-.52.1-.51.49,0,2.73,0,5.47,0,8.2,0,.39.14.5.51.5.81,0,1.63,0,2.45,0,.35,0,.47-.13.47-.48q0-5.88,0-11.76c0-.37-.11-.54-.49-.5a3.13,3.13,0,0,1-.53,0,.61.61,0,0,1-.68-.68.62.62,0,0,1,.67-.69h1.83c.67,0,.67,0,.67.71v10.8c0,.78,0,.78.79.78h4.15a1.29,1.29,0,0,1-.26-1c0-.31-.14-.41-.44-.41H74.31c-.58,0-.86-.24-.86-.72s.3-.75.88-.75c.84,0,1.67,0,2.5,0,.42,0,.46-.2.46-.54s-.09-.5-.46-.49c-.77,0-1.54,0-2.3,0a1.13,1.13,0,0,1-1.12-1.33,17.59,17.59,0,0,1,.86-3c.74-2.13,1.4-4.29,2.23-6.39.22-.56.19-.57-.42-.57-.19,0-.39,0-.58,0-.51,0-.72-.22-.73-.72S75,21,75.49,21s.87,0,1.3,0a.6.6,0,0,0,.69-.5,6.63,6.63,0,0,1,.51-1.3.84.84,0,0,1,.83-.47.7.7,0,0,1,.56,1c-.1.32-.23.63-.36.94s0,.36.26.36c.82,0,1.64,0,2.45,0,.51,0,.77.24.78.7s-.25.67-.79.67c-1,0-2,0-3.07,0a.49.49,0,0,0-.55.35c-1,3-2.1,5.93-3.07,8.93-.19.57-.18.57.43.57.44,0,.89,0,1.34,0s.49-.15.49-.51c0-1.86,0-3.71,0-5.57a.86.86,0,0,1,.09-.55c.18-.25.41-.45.73-.35a.68.68,0,0,1,.55.65c0,.56,0,1.12,0,1.68,0,1.37,0,2.75,0,4.13,0,.39.13.53.53.52.85,0,1.7,0,2.55,0a.8.8,0,0,1,.86.76c0,.41-.34.68-.85.72a16.1,16.1,0,0,1-2.69.06c-.29,0-.42.06-.39.36s-.09.6.39.6c.89,0,1.79,0,2.69,0a.65.65,0,0,1,.65.39.77.77,0,0,1,0,.81.62.62,0,0,1-.62.28c-.83,0-1.66,0-2.5,0-.42,0-.63.11-.58.56a.77.77,0,0,1-.38.85H81.4c.9,0,1.27.34,1.19,1.23,0,.52.12.61.58.6,1.48,0,3,0,4.42,0,.75,0,.75,0,.75-.72q0-8.26,0-16.51c0-.46,0-.88.52-1.13H87c.29.2.27.47.27.74V33.13a.76.76,0,0,1-1,.84c-.43-.09-.57-.37-.57-.8,0-3.15,0-6.3,0-9.45a16.54,16.54,0,0,1,0-2.44c0-.3-.21-.24-.34-.31a1.15,1.15,0,0,1-.67-1,1.17,1.17,0,0,1,.61-1.07,1.22,1.22,0,0,1,.7-.12h6.82a1.19,1.19,0,0,1,1.27,1c.1.58-.27,1.09-1,1.31a.87.87,0,0,1,.28.77V33.14c0,.57-.24.85-.73.85s-.74-.3-.74-.89q0-5.52,0-11c0-.37,0-.74.45-1H89.93c.67.29.66.76.66,1.25q0,8.21,0,16.41c0,.71,0,.71.72.71h2.21c.27,0,.38-.08.33-.37a1.43,1.43,0,0,1,.08-.84.87.87,0,0,1,.91-.62c1.13,0,2.25,0,3.37,0,.4,0,.53-.12.52-.52q0-1.44,0-2.88c0-.42-.15-.55-.54-.49a12,12,0,0,1-2.54,0,.74.74,0,0,1,0-1.48c.83,0,1.66,0,2.49,0,.45,0,.58-.15.58-.58,0-3.42,0-6.85,0-10.27,0-.55.17-.74.68-.77s.79.2.79.76c0,3.39,0,6.78,0,10.17,0,.68,0,.68.69.68h2.45c.47,0,.7.27.69.77a.62.62,0,0,1-.7.71c-.88,0-1.76,0-2.64,0-.37,0-.51.12-.5.5,0,.94,0,1.89,0,2.83,0,.43.11.6.56.59,1.08,0,2.15,0,3.22,0,.8,0,1.11.31,1.12,1.13s0,.69.7.69c1.19,0,1.19,0,1.19-1.19V21.78c0-.78,0-.78.75-.78h11.58c.26,0,.52,0,.67.27a.87.87,0,0,1,0,.87c-.15.3-.43.24-.68.24h-9.85c-1.06,0-1-.11-1,.95V37c0,.64,0,.65.63.65h8.75c-.89-1.25-1.48-2.64-2.25-3.93-.27-.47-.55-.94-.83-1.4s-.37-.43-.64,0L111.63,36a7.25,7.25,0,0,1-.95,1.32c-.21.19-.43.37-.72.17a.62.62,0,0,1-.21-.77,7.32,7.32,0,0,1,.86-1.49c.84-1.25,1.68-2.5,2.56-3.72a1,1,0,0,0,0-1.34c-.77-1.07-1.51-2.15-2.27-3.22a7.58,7.58,0,0,1-.81-1.41c-.16-.38-.3-.81.13-1.08s.73.07,1,.37a31.24,31.24,0,0,1,2.39,3.53c.19.33.37.67.57,1s.33.32.53,0c.82-1.39,1.63-2.79,2.56-4.11a2.06,2.06,0,0,1,.58-.56c.28-.16.57-.31.84,0a.65.65,0,0,1,0,.85c-.35.59-.72,1.17-1.1,1.74-.67,1-1.36,2-2.06,2.95a.94.94,0,0,0,0,1.15c.88,1.45,1.73,2.92,2.58,4.38a4.89,4.89,0,0,1,.5,1.09.72.72,0,0,1-.1.87,6.68,6.68,0,0,0,.91,0c.87-.12,1.29.83,1.1,1.5a1.74,1.74,0,0,1-1.75,1.33H23.44a1.7,1.7,0,0,1-1.28-.51c-.79-.74-1.61-1.46-2.43-2.17-.52-.46-.52-.45,0-.92l6.06-5.75a15.47,15.47,0,0,0,1.47-1.45A2.46,2.46,0,0,0,27.08,26a13.29,13.29,0,0,0-1.92-1.51c-.45-.33-.46-.38,0-.74a8.2,8.2,0,0,0,2-2.31,2,2,0,0,0-.71-2.9,20.06,20.06,0,0,0-3.23-1.48c-.25-.11-.35,0-.36.26V32.51c0,.79,0,.79-.81.79-1.31,0-2.62,0-3.94,0-.46,0-.63-.18-.63-.61,0-1,0-1.89,0-2.83,0-4.84,0-9.67,0-14.5a1,1,0,0,1,.71-1.07c1.48-.56,2.93-1.19,4.4-1.79a1.76,1.76,0,0,1,1.35,0A53.78,53.78,0,0,1,29.66,15a7.22,7.22,0,0,1,2.49,1.92,4.34,4.34,0,0,1,0,5.5,7.09,7.09,0,0,1-.62.8c-.23.25-.21.43,0,.63a8.28,8.28,0,0,1,1.3,1.28,3.67,3.67,0,0,1,.77,2.11,7,7,0,0,1-2.33,5.52c-2.19,2.2-4.46,4.31-6.73,6.43a2.12,2.12,0,0,1-.2.12ZM43.69,28.54c0,1.89,0,3.78,0,5.66,0,.39.12.54.52.53h7c.4,0,.52-.14.52-.53q0-5.63,0-11.27c0-.41-.11-.56-.54-.56q-3.48,0-7,0c-.42,0-.54.15-.54.56C43.7,24.8,43.69,26.67,43.69,28.54ZM47.56,21c1.36,0,2.72,0,4.08,0,.13,0,.44.11.34-.21a2.94,2.94,0,0,0-.44-.79c-.16-.21-.39,0-.59,0a1.92,1.92,0,0,0-.24,0H44.43c-.14,0-.32,0-.42,0-.33-.23-.44,0-.54.23a3.39,3.39,0,0,1-.18.39c-.18.33-.08.44.29.44Zm-25.06.76v-.29c0-.83,0-.83-.84-.83h0c-1.4,0-1.18-.17-1.19,1.2,0,1.12-.11,1,1,1S22.49,23,22.5,21.76Zm-.17,4.93v-.38c0-.76,0-.76-.76-.76-1.25,0-1.25,0-1.25,1.32,0,1.05-.07.95.9.95C22.49,27.81,22.31,28,22.33,26.69Zm-2.22,2.37c0-1.28.16-1.1-1.12-1.12H18.8c-.73,0-.73,0-.73.72,0,.16,0,.32,0,.48-.06,1-.06,1,.95,1C20.26,30.14,20.09,30.28,20.11,29.06Zm.26,2.32c-.05,1.4,0,1.15,1,1.15,1.22,0,1.05.14,1.05-1.14s.15-1-1-1S20.4,30.35,20.37,31.38ZM18.1,24.2v.24c0,.9,0,.91.92.9,1.25,0,1.08.14,1.09-1.15s.13-1-1-1S18.11,23,18.1,24.2ZM20.2,19v-.19c0-1,.09-.93-.93-.93-1.29,0-1.05-.08-1.07,1.22,0,1.11,0,1,.93,1C20.31,20.05,20.19,20.17,20.2,19Zm2.05-2.5c0-1.1,0-1.1-1.11-1.1h-.47a.31.31,0,0,0-.35.35v1.48a.32.32,0,0,0,.35.36h.48C22.25,17.57,22.25,17.57,22.25,16.47ZM47.63,37.61c1.21,0,1.11.24,1.12-1,0-.29-.14-.4-.42-.39H47c-.27,0-.4.09-.42.38-.08,1-.09,1,1,1Z"/><path class="cls-1" d="M89.48,17.58h-.91c-.81,0-1-.2-1.15-1a1,1,0,0,1,1.07-1.25h2a.91.91,0,0,1,1,.88,1,1,0,0,1-1.11,1.36Z"/><path class="cls-1" d="M72.13,21.72a1.17,1.17,0,1,1-2.33,0,1.17,1.17,0,1,1,2.33,0Z"/></svg>