<?xml version="1.0" encoding="UTF-8"?>
<svg width="36px" height="36px" viewBox="0 0 36 36" version="1.1" xmlns="http://www.w3.org/2000/svg" xmlns:xlink="http://www.w3.org/1999/xlink">
    <title>icon-06</title>
    <g id="页面-1" stroke="none" stroke-width="1" fill="none" fill-rule="evenodd" opacity="0.5">
        <g id="课程详情" transform="translate(-1222.000000, -606.000000)">
            <g id="编组-26" transform="translate(80.000000, 576.000000)">
                <g id="icon-06" transform="translate(1142.000000, 30.000000)">
                    <path d="M31.5,6 L16.5,6 L15,1.5 L4.5,1.5 C2.85,1.5 1.5,2.85 1.5,4.5 L1.5,27 C1.5,28.65 2.85,30 4.5,30 L16.5,30 L18,34.5 L31.5,34.5 C33.15,34.5 34.5,33.15 34.5,31.5 L34.5,9 C34.5,7.35 33.15,6 31.5,6 Z M10.5,24 C6.36,24 3,20.64 3,16.5 C3,12.36 6.36,9 10.5,9 C12.525,9 14.22,9.75 15.525,10.95 L13.545,12.855 C12.975,12.315 11.985,11.685 10.5,11.685 C7.89,11.685 5.775,13.845 5.775,16.5 C5.775,19.155 7.89,21.315 10.5,21.315 C13.515,21.315 14.76,19.155 14.88,17.7 L10.5,17.7 L10.5,15.135 L17.52,15.135 C17.625,15.6 17.7,16.05 17.7,16.665 C17.7,20.955 14.835,24 10.5,24 Z M19.755,15.87 L25.305,15.87 C24.66,17.745 23.64,19.515 22.23,21.075 C21.765,20.55 21.33,19.995 20.94,19.425 L19.755,15.87 L19.755,15.87 Z M32.25,30.75 C32.25,31.575 31.575,32.25 30.75,32.25 L21,32.25 L24,28.5 L22.44,23.85 L27.09,28.5 L28.47,27.12 L23.52,22.245 L23.55,22.215 C25.245,20.34 26.445,18.18 27.15,15.885 L30,15.885 L30,13.935 L23.205,13.935 L23.205,12 L21.27,12 L21.27,13.935 L19.11,13.935 L17.19,8.25 L30.75,8.25 C31.575,8.25 32.25,8.925 32.25,9.75 L32.25,30.75 Z" id="形状" fill="#000000" fill-rule="nonzero"></path>
                    <path d="M0,0 L36,0 L36,36 L0,36 L0,0 Z M0,0 L36,0 L36,36 L0,36 L0,0 Z" id="形状"></path>
                </g>
            </g>
        </g>
    </g>
</svg>