<?xml version="1.0" encoding="UTF-8"?>
<svg width="36px" height="36px" viewBox="0 0 36 36" version="1.1" xmlns="http://www.w3.org/2000/svg" xmlns:xlink="http://www.w3.org/1999/xlink">
    <title>icon-03</title>
    <g id="页面-1" stroke="none" stroke-width="1" fill="none" fill-rule="evenodd" opacity="0.5">
        <g id="课程详情" transform="translate(-598.000000, -606.000000)">
            <g id="编组-26" transform="translate(80.000000, 576.000000)">
                <g id="icon-03" transform="translate(518.000000, 30.000000)">
                    <rect id="矩形" x="0" y="0" width="36" height="36"></rect>
                    <path d="M28.5,4.5 L7.485,4.5 C5.835,4.5 4.5,5.85 4.5,7.5 L4.515,28.5 C4.515,30.15 5.85,31.5 7.5,31.5 L22.5,31.5 L31.5,22.5 L31.5,7.5 C31.5,5.85 30.15,4.5 28.5,4.5 Z M10.5,12 L25.5,12 L25.5,15 L10.5,15 L10.5,12 Z M18,21 L10.5,21 L10.5,18 L18,18 L18,21 Z M21,29.25 L21,21 L29.25,21 L21,29.25 Z" id="形状" fill="#000000" fill-rule="nonzero"></path>
                </g>
            </g>
        </g>
    </g>
</svg>