<?xml version="1.0" encoding="UTF-8"?>
<svg width="36px" height="36px" viewBox="0 0 36 36" version="1.1" xmlns="http://www.w3.org/2000/svg" xmlns:xlink="http://www.w3.org/1999/xlink">
    <title>icon-onlineqa</title>
    <g id="页面-2" stroke="none" stroke-width="1" fill="none" fill-rule="evenodd" opacity="0.5">
        <g id="桌面端-HD备份-3" transform="translate(-1082.000000, -606.000000)">
            <g id="编组-26" transform="translate(80.000000, 576.000000)">
                <g id="icon-onlineqa" transform="translate(1002.000000, 30.000000)">
                    <rect id="矩形" x="0" y="0" width="36" height="36"></rect>
                    <path d="M28.5,18 C24.35625,18 21,21.35625 21,25.5 C21,29.64375 24.35625,33 28.5,33 C32.64375,33 36,29.64375 36,25.5 C36,21.35625 32.64375,18 28.5,18 Z M28.5,20.5875 C29.6625,20.5875 30.6,21.54375 30.6,22.6875 C30.6,23.83125 29.64375,24.7875 28.5,24.7875 C27.35625,24.7875 26.4,23.83125 26.4,22.6875 C26.4,21.54375 27.3375,20.5875 28.5,20.5875 Z M28.5,30.65625 C26.75625,30.65625 25.2375,29.79375 24.3,28.4625 C24.39375,27.1125 27.13125,26.4375 28.5,26.4375 C29.86875,26.4375 32.60625,27.1125 32.7,28.4625 C31.7625,29.79375 30.24375,30.65625 28.5,30.65625 Z M18,25.5 C18,19.695 22.695,15 28.5,15 C30.12,15 31.635,15.375 33,16.02 L33,6 C33,4.35 31.65,3 30,3 L6,3 C4.35,3 3,4.35 3,6 L3,33 L9,27 L18,27 L18,27 C18,26.745 18.015,26.505 18.045,26.25 C18.015,26.01 18,25.755 18,25.5 Z" id="形状" fill="#000000" fill-rule="nonzero"></path>
                </g>
            </g>
        </g>
    </g>
</svg>