<?xml version="1.0" encoding="UTF-8"?>
<svg width="36px" height="36px" viewBox="0 0 36 36" version="1.1" xmlns="http://www.w3.org/2000/svg" xmlns:xlink="http://www.w3.org/1999/xlink">
    <title>icon-02</title>
    <g id="页面-1" stroke="none" stroke-width="1" fill="none" fill-rule="evenodd" opacity="0.5">
        <g id="课程详情" transform="translate(-390.000000, -606.000000)">
            <g id="编组-26" transform="translate(80.000000, 576.000000)">
                <g id="icon-02" transform="translate(310.000000, 30.000000)">
                    <polygon id="路径" points="0 0 36 0 36 36 0 36"></polygon>
                    <path d="M13.5,17.625 C12.465,17.625 11.625,18.465 11.625,19.5 C11.625,20.535 12.465,21.375 13.5,21.375 C14.535,21.375 15.375,20.535 15.375,19.5 C15.375,18.465 14.535,17.625 13.5,17.625 Z M22.5,17.625 C21.465,17.625 20.625,18.465 20.625,19.5 C20.625,20.535 21.465,21.375 22.5,21.375 C23.535,21.375 24.375,20.535 24.375,19.5 C24.375,18.465 23.535,17.625 22.5,17.625 Z M18,3 C9.72,3 3,9.72 3,18 C3,26.28 9.72,33 18,33 C26.28,33 33,26.28 33,18 C33,9.72 26.28,3 18,3 Z M18,30 C11.385,30 6,24.615 6,18 C6,17.565 6.03,17.13 6.075,16.71 C9.615,15.135 12.42,12.24 13.89,8.655 C16.605,12.495 21.075,15 26.13,15 C27.3,15 28.425,14.865 29.505,14.61 C29.82,15.675 30,16.815 30,18 C30,24.615 24.615,30 18,30 Z" id="形状" fill="#000000" fill-rule="nonzero"></path>
                </g>
            </g>
        </g>
    </g>
</svg>