<?xml version="1.0" encoding="UTF-8"?>
<svg width="36px" height="36px" viewBox="0 0 36 36" version="1.1" xmlns="http://www.w3.org/2000/svg" xmlns:xlink="http://www.w3.org/1999/xlink">
    <title>icon-group</title>
    <g id="页面-2" stroke="none" stroke-width="1" fill="none" fill-rule="evenodd" opacity="0.5">
        <g id="桌面端-HD备份-3" transform="translate(-1151.000000, -606.000000)">
            <g id="编组-26" transform="translate(80.000000, 576.000000)">
                <g id="icon-group" transform="translate(1071.000000, 30.000000)">
                    <rect id="矩形" x="0" y="0" width="36" height="36"></rect>
                    <g id="编组" transform="translate(2.500000, 6.000000)" fill="#000000" fill-rule="nonzero">
                        <path d="M7.98,13.515 C9.42,13.545 10.755,14.265 11.655,15.525 C12.75,17.07 14.565,18 16.5,18 C18.435,18 20.25,17.07 21.345,15.51 C22.245,14.25 23.58,13.53 25.02,13.5 C23.94,11.67 19.62,10.5 16.5,10.5 C13.395,10.5 9.06,11.67 7.98,13.515 Z" id="路径"></path>
                        <path d="M4.5,13.5 L4.5,13.5 C6.99,13.5 9,11.49 9,9 C9,6.51 6.99,4.5 4.5,4.5 C2.01,4.5 0,6.51 0,9 C0,11.49 2.01,13.5 4.5,13.5 Z" id="路径"></path>
                        <path d="M28.5,13.5 L28.5,13.5 C30.99,13.5 33,11.49 33,9 C33,6.51 30.99,4.5 28.5,4.5 C26.01,4.5 24,6.51 24,9 C24,11.49 26.01,13.5 28.5,13.5 Z" id="路径"></path>
                        <path d="M16.5,9 C18.99,9 21,6.99 21,4.5 C21,2.01 18.99,0 16.5,0 C14.01,0 12,2.01 12,4.5 C12,6.99 14.01,9 16.5,9 Z" id="路径"></path>
                        <path d="M30,15 L25.095,15 C23.94,15 23.07,15.675 22.575,16.38 C22.515,16.47 20.535,19.5 16.5,19.5 C14.355,19.5 11.955,18.54 10.425,16.38 C9.84,15.555 8.925,15 7.905,15 L3,15 C1.35,15 0,16.35 0,18 L0,24 L10.5,24 L10.5,20.61 C12.225,21.81 14.31,22.5 16.5,22.5 C18.69,22.5 20.775,21.81 22.5,20.61 L22.5,24 L33,24 L33,18 C33,16.35 31.65,15 30,15 Z" id="路径"></path>
                    </g>
                </g>
            </g>
        </g>
    </g>
</svg>