<svg id="图层_1" data-name="图层 1" xmlns="http://www.w3.org/2000/svg" viewBox="0 0 140 50"><path d="M58.84,25.7l-.19-.38c-.07-.13-.15-.25-.23-.38l.61-.2c0,.09.08.17.11.25a2.29,2.29,0,0,1,.1.23l.09.22c0,.08.05.17.07.26h1.92l.72,0c.22,0,.42,0,.62,0v.56l-.67,0-.79,0H57.08l-.78,0-.67,0v-.56l1.36.06Zm3.47,2.77a3.71,3.71,0,0,0-.06.53c0,.21,0,.44,0,.71v1.63a2.45,2.45,0,0,1,0,.44.41.41,0,0,1-.17.27.88.88,0,0,1-.4.15,5.64,5.64,0,0,1-.74.07,1.55,1.55,0,0,0-.06-.31,1.08,1.08,0,0,0-.19-.31l.59,0a.85.85,0,0,0,.32-.05.2.2,0,0,0,.13-.15,1,1,0,0,0,0-.27V29H56.64v3.23H56c0-.11,0-.23.05-.33l0-.33c0-.11,0-.23,0-.35s0-.27,0-.42V29.71c0-.27,0-.5,0-.7a4.15,4.15,0,0,0-.05-.54l.43,0c.16,0,.35,0,.58,0h4.19l.62,0Zm-1.12-.39-.41,0H57c0-.12,0-.24,0-.36s0-.25,0-.4,0-.32,0-.43,0-.22,0-.34h4.18c0,.11,0,.22,0,.33s0,.26,0,.44,0,.27,0,.39S61.18,28,61.19,28.08Zm-.42,3.07-.28,0H58.1l-.33,0h-.29a7.58,7.58,0,0,0,.05-.9c0-.18,0-.33,0-.45s0-.23,0-.36l.32,0,.34,0h2l.32,0,.32,0c0,.12,0,.24,0,.36s0,.27,0,.45Q60.74,30.78,60.77,31.15ZM60.68,27H57.53v.68h3.15Zm-.41,2.92H58v.82h2.27Z"/><path d="M65.51,26.5l.5,0,.41-.06V27L66,26.93h-.5v.86l.34.29.27.25.25.25.25.25-.41.31L66,28.86a1.93,1.93,0,0,0-.17-.21l-.16-.19-.19-.19v2.92c0,.13,0,.25,0,.37l0,.35c0,.12,0,.25,0,.38H65l0-.38c0-.11,0-.23,0-.35s0-.25,0-.38,0-.28,0-.44V28.2q-.1.29-.21.54c-.07.17-.14.34-.22.5l-.25.49c-.08.16-.18.32-.28.49a.94.94,0,0,0-.27-.2.9.9,0,0,0-.28-.08,6.28,6.28,0,0,0,.47-.62,7.15,7.15,0,0,0,.42-.72,7.91,7.91,0,0,0,.35-.79,6.72,6.72,0,0,0,.27-.79v-.1h-.82L64,27l-.25,0v-.57l.24,0,.27,0h.83c0-.46,0-.82,0-1.09s0-.47,0-.63l.31,0a1.62,1.62,0,0,0,.3,0c.08,0,.13,0,.14,0s0,.08-.09.16a.56.56,0,0,0-.09.22,1.55,1.55,0,0,0,0,.33Zm3.24,4.37a3.16,3.16,0,0,1-.43.38,6.08,6.08,0,0,1-.53.36c-.2.11-.42.23-.66.34s-.51.23-.82.36a.66.66,0,0,0-.15-.29.8.8,0,0,0-.29-.18,8.87,8.87,0,0,0,1.45-.54,4.65,4.65,0,0,0,1.08-.78,5.2,5.2,0,0,1-.64-.86,4.78,4.78,0,0,1-.48-1l.43-.2a6.9,6.9,0,0,0,.43.91,4.26,4.26,0,0,0,.56.76,2.45,2.45,0,0,0,.26-.35,1.72,1.72,0,0,0,.14-.25,2.61,2.61,0,0,0,.14-.37,2.77,2.77,0,0,0,.12-.41,3.53,3.53,0,0,0,.06-.42,1.74,1.74,0,0,0,.33.17,1.25,1.25,0,0,0,.25.09q.12,0,.12.09s-.05.09-.16.15l0,.05-.06.1-.13.25-.21.45a4.58,4.58,0,0,1-.47.79,6.51,6.51,0,0,0,1.07.75,4.16,4.16,0,0,0,1.09.44A1.47,1.47,0,0,0,71,32a.9.9,0,0,0-.13.28c-.21-.09-.41-.19-.6-.29s-.36-.2-.53-.31l-.48-.35C69.07,31.16,68.91,31,68.75,30.87Zm-.61-3.67c.06,0,.09.06.08.1s-.06.08-.15.1l-.06,0a.22.22,0,0,0-.07.07l-.13.15-.21.29-.15.19c0,.06-.1.13-.16.19l-.18.2-.24.25a.65.65,0,0,0-.18-.21.78.78,0,0,0-.26-.13l.39-.32c.11-.09.21-.19.31-.29a3.12,3.12,0,0,0,.26-.38c.09-.14.19-.32.31-.55a1.3,1.3,0,0,0,.22.19A.53.53,0,0,0,68.14,27.2Zm2.91-.51-.43,0-.46,0H67.54l-.44,0-.43,0v-.51l.43,0,.44,0h2.62l.46,0,.43,0Zm-2.31-.55a3.36,3.36,0,0,0-.43-.56,3.72,3.72,0,0,0-.59-.53l.33-.33q.35.29.63.57t.48.54Zm1.94,2.59a8.42,8.42,0,0,0-.63-.73,7.91,7.91,0,0,0-.78-.72l.32-.34.79.73c.24.23.47.46.7.7Z"/><path d="M78.78,31.92a3.14,3.14,0,0,0-.4,0l-.62,0-.93,0H74.32l-.9,0-.61,0-.39,0q0-.29,0-.63c0-.23,0-.46,0-.7V26.38c0-.12,0-.25,0-.36s0-.23,0-.34,0-.19,0-.27l.35,0,.55,0,.83,0h3.37l.59,0,.38,0V26c-.15,0-.46,0-.92-.06s-1.13,0-2,0H73v5.49h3c.79,0,1.43,0,1.91,0a6.66,6.66,0,0,0,1-.06Zm-2.86-3.58c.31-.36.61-.72.87-1.08a7.85,7.85,0,0,0,.65-1.07,1.38,1.38,0,0,0,.25.22.71.71,0,0,0,.23.12c.07,0,.1,0,.11.08s0,.06-.13.1a.71.71,0,0,0-.22.16,4.31,4.31,0,0,0-.31.38c-.19.25-.38.5-.57.73s-.38.46-.58.68c.26.27.54.55.82.86l1,1.05-.42.35-.85-1q-.42-.48-.84-.93c-.34.35-.68.69-1,1s-.73.61-1.13.91a.58.58,0,0,0-.13-.26,1,1,0,0,0-.28-.19,7.71,7.71,0,0,0,1.14-.78,13.26,13.26,0,0,0,1.12-1c-.3-.32-.6-.63-.91-.94s-.64-.63-1-1L74,26.5l1,1Z"/><path d="M81.76,29.91a11.83,11.83,0,0,0,1.13-.42,1,1,0,0,0,0,.24A.69.69,0,0,0,83,30c-.61.17-1.15.34-1.6.5a10.39,10.39,0,0,0-1.1.44,1.34,1.34,0,0,0-.12-.3,1.24,1.24,0,0,0-.2-.31,11.91,11.91,0,0,0,1.3-.27V27.36l-.63,0-.46.05v-.59a3.16,3.16,0,0,0,.47.06l.62,0v-.79c0-.22,0-.41,0-.57a3.79,3.79,0,0,0,0-.38c0-.09,0-.17,0-.22a3.26,3.26,0,0,0,.62.06c.08,0,.12,0,.13.05s0,.07-.09.11a.21.21,0,0,0-.08.1.41.41,0,0,0,0,.16v1.48a6.17,6.17,0,0,0,1-.08v.59a6.77,6.77,0,0,0-1-.07Zm3-.9a5.91,5.91,0,0,1-.22.94,3.56,3.56,0,0,1-.41.8,4.46,4.46,0,0,1-.65.76,10.45,10.45,0,0,1-.94.8,1.17,1.17,0,0,0-.54-.4,11.73,11.73,0,0,0,1-.66,4.13,4.13,0,0,0,.67-.64,2.85,2.85,0,0,0,.4-.72,4.19,4.19,0,0,0,.22-.88c-.35,0-.68,0-1,0l-.75.05v-.55l.76.05,1,0c0-.3,0-.6.07-.91s0-.62,0-.94h-.87l-.57,0v-.52l.23,0,.33,0,.42,0h.46c0-.23,0-.48,0-.74s0-.53,0-.84l.32.06a1.87,1.87,0,0,0,.33,0c.08,0,.12,0,.13.05s0,.09-.1.15a.3.3,0,0,0-.05.1,1.71,1.71,0,0,0,0,.23,3.84,3.84,0,0,0,0,.39c0,.16,0,.37,0,.61h.58l.54,0,.45,0,.29,0-.13,2.33c.19,0,.36,0,.52,0l.42-.05v.55q-.39,0-1-.06c-.37,0-.83,0-1.36,0a6.32,6.32,0,0,0,.48.94,4.28,4.28,0,0,0,.53.7,4.51,4.51,0,0,0,.63.54,7.84,7.84,0,0,0,.77.47.82.82,0,0,0-.26.22,2,2,0,0,0-.17.27,7.41,7.41,0,0,1-.84-.65,6.14,6.14,0,0,1-.65-.71,4.2,4.2,0,0,1-.5-.81,6.13,6.13,0,0,1-.39-1Zm.14-2.24c0,.26,0,.56,0,.89s0,.65-.06,1h1.33l.09-1.85Z"/><path d="M89.31,26.42c-.11.18-.22.36-.35.54l-.35.51a.69.69,0,0,0-.21-.15.92.92,0,0,0-.25-.08,5.25,5.25,0,0,0,.53-.62A6,6,0,0,0,89.1,26a5.33,5.33,0,0,0,.31-.64,4.32,4.32,0,0,0,.19-.58l.24.13.25.08c.09,0,.13.05.13.08s0,.07-.14.13l-.12.13a1.36,1.36,0,0,0-.19.33,3.32,3.32,0,0,1-.22.41h1L91,26v.47l-.42,0H89.31Zm.24,1.37-.45,0-.36,0v-.51a3.08,3.08,0,0,0,.47.05l.62,0h.3l.22,0,.18,0,.18,0v.51l-.3-.05H90v1.14l.56,0,.44,0v.51l-.44,0-.56,0v1.75l.33-.25c.12-.09.26-.2.42-.34a.62.62,0,0,0,.17.44l-.69.49-.44.32a1.79,1.79,0,0,0-.28.27,2.3,2.3,0,0,0-.15-.23l-.17-.16a.83.83,0,0,0,.16-.17.52.52,0,0,0,.1-.18,1.32,1.32,0,0,0,0-.23,2.36,2.36,0,0,0,0-.3V29.32l-.65,0-.49,0v-.51l.49,0,.65,0Zm2,.43h-.41l-.3,0v-.53a1.81,1.81,0,0,0,.31.05h.61a2.32,2.32,0,0,0,.3-.05,3.53,3.53,0,0,0,0,.41c0,.16,0,.35,0,.57V31a5,5,0,0,0,.48.27,3.66,3.66,0,0,0,.46.18,2.6,2.6,0,0,0,.5.1,4,4,0,0,0,.62,0l.81,0,1.07-.1a1,1,0,0,0-.17.26,1.65,1.65,0,0,0-.05.33l-1.13,0-.81,0a3.84,3.84,0,0,1-.56-.06,2.13,2.13,0,0,1-.42-.11,2,2,0,0,1-.36-.17,3.76,3.76,0,0,1-.38-.24.84.84,0,0,0-.22-.1.53.53,0,0,0-.24,0,1.56,1.56,0,0,0-.31.2c-.11.09-.26.22-.43.39a.51.51,0,0,0-.15-.27.75.75,0,0,0-.21-.12l.41-.31.29-.2.21-.12.14-.06ZM91.75,27c-.11-.28-.23-.53-.34-.76s-.26-.45-.42-.69l.38-.23c.14.22.29.47.43.73a7.28,7.28,0,0,1,.37.74Zm1.46-.68-.43,0a3.61,3.61,0,0,0-.52,0v-.52c.23,0,.42,0,.58.05l.5,0a2.43,2.43,0,0,0,.09-.3c0-.1,0-.18.07-.27l.06-.28a2.4,2.4,0,0,0,0-.32,1.27,1.27,0,0,0,.52.17c.09,0,.13,0,.13.07s0,.07-.1.11l-.08.06-.07.13-.09.23c0,.1-.09.23-.14.4h.88l.48,0,.41-.05v.52l-.43-.06H93.64q-.12.34-.3.78c-.12.29-.25.57-.38.84h.88v-.33c0-.09,0-.17,0-.25s0-.15,0-.22,0-.13,0-.22l.25,0h.25c.08,0,.14,0,.15.05s0,.07-.08.12a.27.27,0,0,0-.09.16,1.1,1.1,0,0,0,0,.26V28l.59,0,.49,0v.51l-.26,0-.24,0h-.58v1.07h.84l.27,0,.26,0v.51l-.25,0-.26,0h-.86c0,.33,0,.63,0,.9s0,.5,0,.67h-.51c0-.08,0-.17,0-.28s0-.25,0-.39,0-.28,0-.44,0-.3,0-.46H93l-.66.05v-.51l.65.05h.9V28.35h-.4l-.32,0-.28,0-.27,0a.92.92,0,0,0-.08-.25,1.3,1.3,0,0,0-.17-.21,1.91,1.91,0,0,0,.46-.61A10.16,10.16,0,0,0,93.21,26.33Z"/><path d="M97.88,26.81l-.7,0-.55.05v-.52l.26,0,.32,0,.35,0h.32c0-.43,0-.78,0-1a4.12,4.12,0,0,0-.07-.59,1.55,1.55,0,0,0,.34.05h.27c.14,0,.22,0,.23,0s0,.1-.11.17a.38.38,0,0,0-.13.32v1.05l.5,0,.4-.05v.52l-.4-.05-.5,0v1.55c.14-.08.28-.16.41-.25l.38-.26a1.47,1.47,0,0,0,0,.51l-.4.21-.43.24v2.52a1,1,0,0,1-.06.37.58.58,0,0,1-.22.25,1.48,1.48,0,0,1-.41.15c-.17,0-.39.06-.64.08a.83.83,0,0,0-.06-.34,1.08,1.08,0,0,0-.2-.32,1.72,1.72,0,0,0,.85.08c.17-.05.25-.2.25-.45V29.09c-.22.12-.42.25-.62.37l-.52.32a1.48,1.48,0,0,0-.35-.61,9.15,9.15,0,0,0,1.49-.56ZM100,28.33h-.22l-.24,0v-.49l.83,0h1V26.56l-1.06,0-.81.05v-.51l.81.05h1.06c0-.32,0-.59,0-.8s0-.39,0-.53l.29,0a1.8,1.8,0,0,0,.33,0c.07,0,.11,0,.12.07a.13.13,0,0,1-.06.12.48.48,0,0,0-.08.21,1.15,1.15,0,0,0,0,.33v.57H103c.35,0,.64,0,.87-.05v.51q-.34,0-.87-.06h-1.15v1.36l.94,0,.78,0a8.09,8.09,0,0,1-.27.83,5.88,5.88,0,0,1-.33.72,6.17,6.17,0,0,1-.91,1.24,5.67,5.67,0,0,0,1.06.61,4.93,4.93,0,0,0,1.05.31,1.75,1.75,0,0,0-.24.23,2.13,2.13,0,0,0-.18.31,7.77,7.77,0,0,1-1.15-.54,8.78,8.78,0,0,1-.87-.59,5.25,5.25,0,0,1-1,.67,6.6,6.6,0,0,1-1.38.53.93.93,0,0,0-.23-.3,2.27,2.27,0,0,0-.32-.22,5.89,5.89,0,0,0,1.46-.39,5,5,0,0,0,1.08-.63c-.13-.13-.26-.28-.4-.45s-.25-.37-.37-.57a6.25,6.25,0,0,1-.33-.63C100.15,28.78,100.06,28.56,100,28.33Zm.46,0a3.13,3.13,0,0,0,.24.6c.1.2.2.38.31.56a3.64,3.64,0,0,0,.36.49,4.74,4.74,0,0,0,.35.39,4.05,4.05,0,0,0,.77-.92,5.72,5.72,0,0,0,.48-1.12Z"/><path d="M108.72,26.85h1.16l.92,0,.69,0,.53,0v.59l-.44,0h-2.37a8.07,8.07,0,0,0,1.41,2.16,5.71,5.71,0,0,0,1.79,1.36,1.34,1.34,0,0,0-.27.27,1.6,1.6,0,0,0-.16.27,12.83,12.83,0,0,1-1.08-.89,8.5,8.5,0,0,1-.87-.94,8.09,8.09,0,0,1-.68-1,7.64,7.64,0,0,1-.53-1.19h-.1v4.34c0,.1,0,.22,0,.34s0,.24,0,.36h-.62c0-.13,0-.25,0-.37s0-.23,0-.33V27.3h-.1a7.62,7.62,0,0,1-1.06,2.19,10.23,10.23,0,0,1-1.93,2.06,2.11,2.11,0,0,0-.22-.26,2.45,2.45,0,0,0-.3-.21,5.47,5.47,0,0,0,.94-.65,8,8,0,0,0,.86-.88,7.35,7.35,0,0,0,.73-1.06,7.49,7.49,0,0,0,.54-1.19h-2.29l-.44,0v-.59q.47,0,1.26.06l2,0V25.8c0-.23,0-.43,0-.62s0-.32,0-.41l.34,0h.29c.09,0,.14,0,.16.08s0,.09-.09.14a.3.3,0,0,0-.11.07.16.16,0,0,0,0,.12Zm2.08-.35a6.56,6.56,0,0,0-.59-.59c-.23-.2-.46-.4-.69-.58l.34-.28c.24.17.47.36.7.55s.43.37.62.56Z"/><path d="M114.43,28.84a6.57,6.57,0,0,1-.48.57,7.47,7.47,0,0,1-.57.54,1.52,1.52,0,0,0-.17-.18,1.59,1.59,0,0,0-.29-.19,5.73,5.73,0,0,0,.67-.48,4.48,4.48,0,0,0,.56-.59,4.58,4.58,0,0,0,.49-.7,9.1,9.1,0,0,0,.46-.83h-.83l-.58,0-.39,0-.24.05v-.62a3.54,3.54,0,0,0,.53.06l.84,0a9.22,9.22,0,0,0,1.44-.08c-.05.12-.12.27-.22.46s-.21.38-.34.58a3.45,3.45,0,0,1-.2.32l-.19.3v.09c.22.15.45.32.7.52s.46.38.65.55l-.4.37a6.66,6.66,0,0,0-.44-.51,5.79,5.79,0,0,0-.51-.48V31c0,.24,0,.47,0,.68s0,.45,0,.69h-.61c0-.26,0-.49,0-.69s0-.44,0-.68Zm.66-2.66a3.94,3.94,0,0,0-.53-.57,6.78,6.78,0,0,0-.67-.53l.33-.37c.21.16.42.33.63.52l.64.61Zm3.26,5c.52,0,1,0,1.33,0s.66,0,.89-.05v.58l-.47,0-.61,0h-2.81l-.64,0-.47,0v-.58l.41,0,.56,0,.63,0h.65V27.82a16,16,0,0,0-1.77.08v-.58c.25,0,.51.05.79.06h1V26.07c0-.34,0-.6,0-.77a3.67,3.67,0,0,0,0-.43,4.35,4.35,0,0,0,.66.06c.08,0,.12,0,.13.07s0,.1-.1.16a.35.35,0,0,0-.07.12.51.51,0,0,0,0,.17v1.94h1c.28,0,.54,0,.77-.06v.58c-.23,0-.49,0-.77,0l-1,0Z"/><path d="M128.15,31.92a3.14,3.14,0,0,0-.4,0l-.63,0-.92,0h-2.52l-.9,0-.61,0a2.77,2.77,0,0,0-.38,0q0-.29,0-.63c0-.23,0-.46,0-.7V26.74c0-.11,0-.23,0-.36V26c0-.12,0-.23,0-.34s0-.19,0-.27l.35,0,.54,0,.84,0h3.36l.6,0,.38,0V26c-.16,0-.46,0-.93-.06s-1.13,0-2,0h-2.62v5.49h3c.79,0,1.42,0,1.91,0a6.79,6.79,0,0,0,1-.06Zm-2.87-3.58c.32-.36.61-.72.88-1.08a7.85,7.85,0,0,0,.65-1.07,1.11,1.11,0,0,0,.25.22.71.71,0,0,0,.23.12c.07,0,.1,0,.1.08s0,.06-.12.1a.71.71,0,0,0-.22.16,4.31,4.31,0,0,0-.31.38c-.19.25-.38.5-.57.73s-.39.46-.58.68c.26.27.53.55.81.86l1,1.05-.42.35-.86-1q-.4-.48-.84-.93a13.86,13.86,0,0,1-1,1c-.35.31-.73.61-1.12.91a.71.71,0,0,0-.13-.26,1.13,1.13,0,0,0-.28-.19,7.71,7.71,0,0,0,1.14-.78,11.76,11.76,0,0,0,1.11-1c-.29-.32-.6-.63-.9-.94s-.64-.63-1-1l.34-.28,1,1Z"/><path d="M55.54,20.54H56a.94.94,0,0,1,.54.14.51.51,0,0,1,.18.41.5.5,0,0,1-.07.27.48.48,0,0,1-.22.2.69.69,0,0,1,.35.23.56.56,0,0,1,.12.36.58.58,0,0,1-.2.46.76.76,0,0,1-.53.18h-.62Zm.23.22v.72h.12a.83.83,0,0,0,.44-.09.32.32,0,0,0,.15-.3q0-.33-.45-.33Zm0,.95v.86h.28a.81.81,0,0,0,.35-.05.4.4,0,0,0,.19-.15.31.31,0,0,0,.07-.2.36.36,0,0,0,0-.19.57.57,0,0,0-.12-.15.66.66,0,0,0-.19-.09,2,2,0,0,0-.42,0Z"/><path d="M57.27,20.49h.21v2.3h-.21Z"/><path d="M57.85,22a.93.93,0,0,1,.25-.63.85.85,0,0,1,.62-.26.83.83,0,0,1,.61.26.89.89,0,0,1,0,1.25.87.87,0,0,1-1.24,0A.84.84,0,0,1,57.85,22Zm1.52,0a.68.68,0,0,0-.19-.47.62.62,0,0,0-.46-.21.6.6,0,0,0-.46.21.65.65,0,0,0-.19.48.64.64,0,0,0,.19.47.59.59,0,0,0,.45.2.63.63,0,0,0,.47-.2A.65.65,0,0,0,59.37,22Z"/><path d="M61.61,21.47l-.17.11a.73.73,0,0,0-.6-.29.72.72,0,0,0-.51.19.66.66,0,0,0-.2.48.68.68,0,0,0,.71.69.76.76,0,0,0,.6-.29l.17.11a.78.78,0,0,1-.34.28,1,1,0,0,1-.45.1.94.94,0,0,1-.65-.25.86.86,0,0,1-.26-.63.83.83,0,0,1,.27-.62.87.87,0,0,1,.67-.27,1,1,0,0,1,.45.11A.77.77,0,0,1,61.61,21.47Z"/><path d="M62,20.49h.22V21.8l.76-.67h.32l-.91.79,1,.87H63L62.2,22v.75H62Z"/><path d="M65.21,21.47l-.17.11a.7.7,0,0,0-.6-.29.68.68,0,0,0-.5.19.63.63,0,0,0-.21.48.7.7,0,0,0,.2.49A.76.76,0,0,0,65,22.36l.17.11a.75.75,0,0,1-.33.28,1.06,1.06,0,0,1-.46.1.9.9,0,0,1-.64-.25.88.88,0,0,1,0-1.25.89.89,0,0,1,.67-.27,1,1,0,0,1,.45.11A.77.77,0,0,1,65.21,21.47Z"/><path d="M65.61,20.49h.22v.94a.76.76,0,0,1,.62-.35.58.58,0,0,1,.34.11.56.56,0,0,1,.22.26,1.5,1.5,0,0,1,.06.49v.85h-.22V22a2.94,2.94,0,0,0,0-.35.62.62,0,0,0-.07-.19.35.35,0,0,0-.14-.13.51.51,0,0,0-.22,0,.48.48,0,0,0-.24.06.55.55,0,0,0-.2.17.51.51,0,0,0-.11.22,2.07,2.07,0,0,0,0,.45v.61h-.22Z"/><path d="M69.19,21.13v1.66H69v-.28a.83.83,0,0,1-.66.34.85.85,0,0,1-.62-.26.93.93,0,0,1-.25-.63.87.87,0,0,1,.26-.62.81.81,0,0,1,.6-.26.8.8,0,0,1,.67.35v-.3ZM69,22a.69.69,0,0,0-.19-.48.65.65,0,0,0-.47-.2.63.63,0,0,0-.47.2.68.68,0,0,0-.19.48.66.66,0,0,0,.19.48.65.65,0,0,0,.47.2.62.62,0,0,0,.46-.19A.68.68,0,0,0,69,22Z"/><path d="M69.57,20.66a.18.18,0,0,1,.05-.12.15.15,0,0,1,.13-.05.15.15,0,0,1,.12.05.13.13,0,0,1,0,.12.17.17,0,0,1,0,.13.18.18,0,0,1-.12.05.19.19,0,0,1-.13-.05A.21.21,0,0,1,69.57,20.66Zm.07.47h.21v1.66h-.21Z"/><path d="M70.3,21.13h.21v.3a.77.77,0,0,1,.63-.35.57.57,0,0,1,.33.11.51.51,0,0,1,.22.26,1.5,1.5,0,0,1,.06.49v.85h-.21V22a1.77,1.77,0,0,0,0-.4.53.53,0,0,0-.08-.17.3.3,0,0,0-.14-.11.51.51,0,0,0-.44,0,.55.55,0,0,0-.2.17.65.65,0,0,0-.11.22,2.07,2.07,0,0,0,0,.45v.61H70.3Z"/><path d="M72.08,20.76v-.22h1.23v.22h-.5v2h-.23v-2Z"/><path d="M75,22.25l.18.1a.86.86,0,0,1-.8.5.84.84,0,0,1-.62-.26.92.92,0,0,1,0-1.25.79.79,0,0,1,.6-.26.81.81,0,0,1,.61.25.9.9,0,0,1,.26.65h-1.5a.68.68,0,0,0,.19.49.59.59,0,0,0,.44.18A.67.67,0,0,0,75,22.25Zm0-.45a.57.57,0,0,0-.22-.37.66.66,0,0,0-.41-.14.61.61,0,0,0-.61.51Z"/><path d="M77.26,21.47l-.17.11a.7.7,0,0,0-.6-.29.68.68,0,0,0-.5.19.63.63,0,0,0-.21.48.7.7,0,0,0,.2.49.76.76,0,0,0,1.11-.09l.17.11a.75.75,0,0,1-.33.28,1.06,1.06,0,0,1-.46.1.9.9,0,0,1-.64-.25.88.88,0,0,1,0-1.25.89.89,0,0,1,.67-.27,1,1,0,0,1,.45.11A.77.77,0,0,1,77.26,21.47Z"/><path d="M77.66,20.49h.22v.94a.76.76,0,0,1,.62-.35.58.58,0,0,1,.34.11.56.56,0,0,1,.22.26,1.5,1.5,0,0,1,.06.49v.85H78.9V22a2.94,2.94,0,0,0,0-.35.62.62,0,0,0-.07-.19.43.43,0,0,0-.14-.13.51.51,0,0,0-.22,0,.48.48,0,0,0-.24.06.55.55,0,0,0-.2.17.51.51,0,0,0-.11.22,2.07,2.07,0,0,0,0,.45v.61h-.22Z"/><path d="M79.58,21.13h.21v.3a.77.77,0,0,1,.63-.35.62.62,0,0,1,.34.11.49.49,0,0,1,.21.26,1.5,1.5,0,0,1,.06.49v.85h-.21V22a1.77,1.77,0,0,0,0-.4.53.53,0,0,0-.08-.17.3.3,0,0,0-.14-.11.44.44,0,0,0-.21,0,.49.49,0,0,0-.23.06.64.64,0,0,0-.31.39,2.07,2.07,0,0,0,0,.45v.61h-.21Z"/><path d="M81.41,22a.88.88,0,0,1,.25-.63.85.85,0,0,1,.62-.26.83.83,0,0,1,.61.26.92.92,0,0,1,0,1.25.85.85,0,0,1-.62.26.87.87,0,0,1-.87-.88Zm1.52,0a.68.68,0,0,0-.19-.47.62.62,0,0,0-.46-.21.6.6,0,0,0-.46.21.65.65,0,0,0-.19.48.64.64,0,0,0,.19.47.59.59,0,0,0,.45.2.63.63,0,0,0,.47-.2A.69.69,0,0,0,82.93,22Z"/><path d="M83.51,20.49h.21v2.3h-.21Z"/><path d="M84.09,22a.93.93,0,0,1,.25-.63.85.85,0,0,1,.62-.26.83.83,0,0,1,.61.26.89.89,0,0,1,0,1.25.87.87,0,0,1-1.24,0A.84.84,0,0,1,84.09,22Zm1.52,0a.68.68,0,0,0-.19-.47.62.62,0,0,0-.46-.21.6.6,0,0,0-.46.21.65.65,0,0,0-.19.48.64.64,0,0,0,.19.47.6.6,0,0,0,.46.2.63.63,0,0,0,.46-.2A.65.65,0,0,0,85.61,22Z"/><path d="M87.68,21.13h.22v1.28a1.6,1.6,0,0,1-.06.51.78.78,0,0,1-.17.26.71.71,0,0,1-.28.16,1,1,0,0,1-.35.06.83.83,0,0,1-.86-.52h.23a.66.66,0,0,0,.62.33.87.87,0,0,0,.37-.08.64.64,0,0,0,.22-.21,1,1,0,0,0,.06-.4v-.07a1,1,0,0,1-.3.24.94.94,0,0,1-.37.07.83.83,0,0,1-.59-1.43.89.89,0,0,1,.62-.25.8.8,0,0,1,.64.34Zm0,.8a.61.61,0,0,0-.18-.45.62.62,0,0,0-.46-.19.66.66,0,0,0-.48.2.62.62,0,0,0-.19.46.58.58,0,0,0,.18.43.66.66,0,0,0,.48.18.63.63,0,0,0,.47-.17A.62.62,0,0,0,87.69,21.93Z"/><path d="M88.15,21.13h.23L89,22.41l.56-1.28h.23l-1,2.27h-.22l.32-.73Z"/><path d="M93.71,21l-.17.13a1,1,0,0,0-.81-.39A.94.94,0,0,0,92,21a1,1,0,0,0,0,1.37,1,1,0,0,0,.72.28,1,1,0,0,0,.79-.37l.17.13a1,1,0,0,1-.42.33,1.28,1.28,0,0,1-.56.12,1.16,1.16,0,0,1-1.22-1.2,1.21,1.21,0,0,1,.16-.59,1.11,1.11,0,0,1,.44-.42,1.27,1.27,0,0,1,.6-.15,1.34,1.34,0,0,1,.58.12A1,1,0,0,1,93.71,21Z"/><path d="M94.05,22a.93.93,0,0,1,.25-.63.85.85,0,0,1,.62-.26.82.82,0,0,1,.61.26.89.89,0,0,1,0,1.25.84.84,0,0,1-.62.26.85.85,0,0,1-.62-.26A.89.89,0,0,1,94.05,22Zm1.52,0a.64.64,0,0,0-.19-.47.61.61,0,0,0-.92,0,.69.69,0,0,0-.19.48.64.64,0,0,0,.19.47.6.6,0,0,0,.46.2.63.63,0,0,0,.46-.2A.65.65,0,0,0,95.57,22Z"/><path d="M96.18,21.13h.22v.29a.66.66,0,0,1,.57-.34.57.57,0,0,1,.33.11.54.54,0,0,1,.2.3.7.7,0,0,1,.26-.3.67.67,0,0,1,.37-.11.51.51,0,0,1,.37.17.83.83,0,0,1,.17.63v.91h-.22v-.91a1.43,1.43,0,0,0,0-.33.31.31,0,0,0-.13-.19.44.44,0,0,0-.25-.07.53.53,0,0,0-.29.1.5.5,0,0,0-.18.27,1.84,1.84,0,0,0,0,.48v.65h-.21v-.85a1.68,1.68,0,0,0,0-.38.35.35,0,0,0-.12-.19.41.41,0,0,0-.24-.08.53.53,0,0,0-.27.08.71.71,0,0,0-.19.23,1.18,1.18,0,0,0-.07.49v.7h-.22Z"/><path d="M99.13,21.13h.21v.29a.66.66,0,0,1,.57-.34.57.57,0,0,1,.33.11.54.54,0,0,1,.2.3.77.77,0,0,1,.26-.3.67.67,0,0,1,.37-.11.55.55,0,0,1,.38.17.88.88,0,0,1,.17.63v.91h-.22v-.91a1.31,1.31,0,0,0,0-.33.35.35,0,0,0-.12-.19.49.49,0,0,0-.25-.07.51.51,0,0,0-.29.1.52.52,0,0,0-.19.27,1.84,1.84,0,0,0,0,.48v.65h-.21v-.85a1.68,1.68,0,0,0,0-.38.35.35,0,0,0-.12-.19.41.41,0,0,0-.24-.08.53.53,0,0,0-.27.08.71.71,0,0,0-.19.23,1.18,1.18,0,0,0-.07.49v.7h-.21Z"/><path d="M103.5,22.79h-.22v-.3a.76.76,0,0,1-.62.35.58.58,0,0,1-.34-.11.56.56,0,0,1-.22-.26A1.5,1.5,0,0,1,102,22v-.85h.21v.79a1.71,1.71,0,0,0,0,.4.67.67,0,0,0,.08.17.36.36,0,0,0,.14.11.51.51,0,0,0,.44,0,.55.55,0,0,0,.2-.17.51.51,0,0,0,.11-.22,2.07,2.07,0,0,0,0-.45v-.61h.22Z"/><path d="M104,21.13h.22v.3a.76.76,0,0,1,.62-.35.58.58,0,0,1,.34.11.56.56,0,0,1,.22.26,1.5,1.5,0,0,1,.06.49v.85h-.22V22a2,2,0,0,0,0-.4.89.89,0,0,0-.08-.17.36.36,0,0,0-.14-.11.46.46,0,0,0-.21,0,.53.53,0,0,0-.24.06.61.61,0,0,0-.19.17.51.51,0,0,0-.11.22,2.07,2.07,0,0,0,0,.45v.61H104Z"/><path d="M105.79,20.66a.15.15,0,0,1,0-.12.13.13,0,0,1,.12-.05.17.17,0,0,1,.18.17.17.17,0,0,1-.18.18.17.17,0,0,1-.17-.18Zm.06.47h.22v1.66h-.22Z"/><path d="M106.92,22.53c0,.06,0,.09,0,.1a.2.2,0,0,0,.11,0h.13v.18l-.21,0a.24.24,0,0,1-.2-.07.29.29,0,0,1-.07-.22V21.31h-.29v-.18h.29v-.64h.22v.64h.34v.18h-.34Z"/><path d="M107.4,21.13h.22l.58,1.28.55-1.28H109l-1,2.27h-.23l.32-.73Z"/><path d="M107.93,22a.88.88,0,0,1,.25-.63.85.85,0,0,1,.62-.26.83.83,0,0,1,.61.26.88.88,0,0,1,.25.63.84.84,0,0,1-.25.62.82.82,0,0,1-.61.26.87.87,0,0,1-.87-.88Zm1.52,0a.68.68,0,0,0-.19-.47.62.62,0,0,0-.46-.21.6.6,0,0,0-.46.21.65.65,0,0,0-.19.48.67.67,0,0,0,.18.47.64.64,0,0,0,.93,0A.69.69,0,0,0,109.45,22Z"/><path d="M110.49,20.53v.21a.46.46,0,0,0-.21,0c-.07,0-.11,0-.13.06a.5.5,0,0,0,0,.2v.18h.34v.18h-.34v1.48h-.22V21.31h-.22v-.18h.22v-.22a.56.56,0,0,1,.08-.32.29.29,0,0,1,.25-.1A.85.85,0,0,1,110.49,20.53Z"/><path d="M112.4,20.54h.23V21.9a2.82,2.82,0,0,0,0,.32.39.39,0,0,0,.08.2.4.4,0,0,0,.18.16.51.51,0,0,0,.25.06.59.59,0,0,0,.23-.05.46.46,0,0,0,.17-.14.48.48,0,0,0,.09-.19,1.48,1.48,0,0,0,0-.36V20.54h.22V21.9a1.41,1.41,0,0,1-.07.52.6.6,0,0,1-.24.31.69.69,0,0,1-.41.12.93.93,0,0,1-.34-.06.74.74,0,0,1-.25-.17.89.89,0,0,1-.14-.25,2.3,2.3,0,0,1,0-.47Z"/><path d="M114.41,21.13h.22v.3a.76.76,0,0,1,.62-.35.58.58,0,0,1,.34.11.56.56,0,0,1,.22.26,1.5,1.5,0,0,1,.06.49v.85h-.21V22a1.77,1.77,0,0,0,0-.4.89.89,0,0,0-.08-.17.36.36,0,0,0-.14-.11.51.51,0,0,0-.44,0,.55.55,0,0,0-.2.17.51.51,0,0,0-.11.22,2.07,2.07,0,0,0,0,.45v.61h-.22Z"/><path d="M116.23,20.66a.15.15,0,0,1,0-.12.13.13,0,0,1,.12-.05.17.17,0,0,1,.18.17.17.17,0,0,1-.18.18.17.17,0,0,1-.17-.18Zm.07.47h.21v1.66h-.21Z"/><path d="M116.8,21.13H117l.55,1.26.56-1.26h.23l-.77,1.72h0Z"/><path d="M120.09,22.25l.18.1a.86.86,0,0,1-.79.5.82.82,0,0,1-.62-.26.84.84,0,0,1-.25-.62.88.88,0,0,1,.25-.63.86.86,0,0,1,1.22,0,.93.93,0,0,1,.25.65h-1.5a.72.72,0,0,0,.19.49.6.6,0,0,0,.44.18A.67.67,0,0,0,120.09,22.25Zm0-.45a.57.57,0,0,0-.22-.37.63.63,0,0,0-.4-.14.61.61,0,0,0-.62.51Z"/><path d="M120.17,21.13h.22v.24a1.12,1.12,0,0,1,.17-.22.34.34,0,0,1,.19-.07.36.36,0,0,1,.2.06l-.11.18a.17.17,0,0,0-.1,0,.28.28,0,0,0-.18.1.71.71,0,0,0-.13.26,3.4,3.4,0,0,0,0,.58v.56h-.22Z"/><path d="M122.31,21.31l-.14.14a.48.48,0,0,0-.33-.17.29.29,0,0,0-.18.07.22.22,0,0,0-.07.17.23.23,0,0,0,.07.17,2.76,2.76,0,0,0,.27.17.84.84,0,0,1,.29.21.46.46,0,0,1,0,.63.49.49,0,0,1-.36.15.66.66,0,0,1-.27-.06.65.65,0,0,1-.22-.18l.13-.15a.5.5,0,0,0,.35.19.29.29,0,0,0,.22-.09.27.27,0,0,0,.09-.2.24.24,0,0,0-.08-.19,1.08,1.08,0,0,0-.26-.16,1,1,0,0,1-.28-.21.39.39,0,0,1-.1-.29.42.42,0,0,1,.13-.3.52.52,0,0,1,.35-.13A.66.66,0,0,1,122.31,21.31Z"/><path d="M122.59,20.66a.18.18,0,0,1,0-.12.17.17,0,0,1,.13-.05.13.13,0,0,1,.12.05.14.14,0,0,1,.06.12.18.18,0,0,1-.06.13.17.17,0,0,1-.12.05.17.17,0,0,1-.18-.18Zm.07.47h.22v1.66h-.22Z"/><path d="M123.72,22.53c0,.06,0,.09,0,.1a.2.2,0,0,0,.11,0H124v.18l-.21,0a.28.28,0,0,1-.21-.07.34.34,0,0,1-.06-.22V21.31h-.3v-.18h.3v-.64h.21v.64h.34v.18h-.34Z"/><path d="M124.28,20.66a.18.18,0,0,1,0-.12.17.17,0,0,1,.13-.05.13.13,0,0,1,.12.05.14.14,0,0,1,.06.12.18.18,0,0,1-.06.13.17.17,0,0,1-.12.05.17.17,0,0,1-.18-.18Zm.07.47h.22v1.66h-.22Z"/><path d="M126.41,22.25l.18.1a.86.86,0,0,1-.79.5.81.81,0,0,1-.62-.26.84.84,0,0,1-.25-.62.88.88,0,0,1,.25-.63.85.85,0,0,1,1.21,0,.9.9,0,0,1,.26.65h-1.5a.72.72,0,0,0,.19.49.6.6,0,0,0,.44.18A.67.67,0,0,0,126.41,22.25Zm0-.45a.57.57,0,0,0-.22-.37.65.65,0,0,0-.4-.14.61.61,0,0,0-.62.51Z"/><path d="M127.88,21.31l-.13.14a.52.52,0,0,0-.34-.17.29.29,0,0,0-.18.07.22.22,0,0,0-.07.17.25.25,0,0,0,.08.17l.26.17a.84.84,0,0,1,.29.21.46.46,0,0,1-.05.63.49.49,0,0,1-.36.15.66.66,0,0,1-.27-.06.65.65,0,0,1-.22-.18l.13-.15a.52.52,0,0,0,.35.19.29.29,0,0,0,.22-.09.27.27,0,0,0,.09-.2.24.24,0,0,0-.08-.19,1.08,1.08,0,0,0-.26-.16,1,1,0,0,1-.28-.21.44.44,0,0,1-.09-.29.38.38,0,0,1,.13-.3.48.48,0,0,1,.34-.13A.66.66,0,0,1,127.88,21.31Z"/><path d="M39.76,14.61a11.17,11.17,0,0,0-10.6,7.67C28.51,23.74,28,24.55,27,24.76s-1.93-.19-3-1.29h0a6.67,6.67,0,0,0-1.43-1.16A1,1,0,0,0,21.59,24a4.46,4.46,0,1,1-6.76,3.83c0-.13,0-.27,0-.39L15.2,25h0s0-.06,0-.1a1,1,0,0,0-1.91-.14h0L13,27.13c0,.22,0,.44,0,.67A6.37,6.37,0,0,0,24.7,31.17c.88-1.24,1.5-1.91,2.58-1.91s1.86.56,2.68,1.84a11.16,11.16,0,1,0,9.8-16.49m.06,19.83a8.61,8.61,0,1,1,8.61-8.61,8.61,8.61,0,0,1-8.61,8.61"/><path d="M14.19,21.19a1.28,1.28,0,1,0-1.27-1.27,1.27,1.27,0,0,0,1.27,1.27"/></svg>