<svg id="图层_1" data-name="图层 1" xmlns="http://www.w3.org/2000/svg" xmlns:xlink="http://www.w3.org/1999/xlink" viewBox="0 0 140 50"><defs><style>.cls-1,.cls-7{fill:#fff;}.cls-1,.cls-12,.cls-15,.cls-18,.cls-20,.cls-21,.cls-22,.cls-23,.cls-24,.cls-25,.cls-3,.cls-5,.cls-7,.cls-9{fill-rule:evenodd;}.cls-2{mask:url(#mask);}.cls-3{fill:url(#未命名的渐变_9);}.cls-4{mask:url(#mask-2-2);}.cls-5{fill:#b38600;opacity:0.3;}.cls-5,.cls-7{isolation:isolate;}.cls-6{mask:url(#mask-3);}.cls-7{opacity:0.2;}.cls-8{mask:url(#mask-4);}.cls-9{fill:url(#未命名的渐变_9-2);}.cls-10{mask:url(#mask-6);}.cls-11{mask:url(#mask-7);}.cls-12{fill:url(#未命名的渐变_9-3);}.cls-13{mask:url(#mask-8-2);}.cls-14{mask:url(#mask-9);}.cls-15{fill:url(#未命名的渐变_9-4);}.cls-16{mask:url(#mask-10);}.cls-17{mask:url(#mask-11-3);}.cls-18{fill:url(#未命名的渐变_9-5);}.cls-19{mask:url(#mask-12);}.cls-20{fill:url(#未命名的渐变_9-6);}.cls-22{fill:#fff3b3;}.cls-23{fill:url(#未命名的渐变_9-7);}.cls-24{fill:url(#未命名的渐变_9-8);}.cls-25{fill:url(#未命名的渐变_9-9);}</style><mask id="mask" x="51.54" y="29.47" width="6.27" height="6.13" maskUnits="userSpaceOnUse"><g id="mask-2"><path id="path-1" class="cls-1" d="M51.56,32.63a13.8,13.8,0,0,0,.47,3h0a5.08,5.08,0,0,1,1.12-1h0c.92-.61,2.3-1.12,3.28-1.64h0c1-.56,1.64-1.57,1.28-2.26h0c-.47-.88-1.8-.84-2.64-1h0c-1.18-.15-2.19-.24-3.08-.27h0a8.21,8.21,0,0,0-.43,3.16"/></g></mask><linearGradient id="未命名的渐变_9" x1="-688.74" y1="1223.79" x2="-688.83" y2="1223.69" gradientTransform="matrix(43.61, 0, 0, -42.62, 30094.51, 52190.35)" gradientUnits="userSpaceOnUse"><stop offset="0" stop-color="#ffd600"/><stop offset="1" stop-color="#ffbf00"/></linearGradient><mask id="mask-2-2" x="51.54" y="29.41" width="6.27" height="6.18" maskUnits="userSpaceOnUse"><g id="mask-2-3" data-name="mask-2"><path id="path-1-2" data-name="path-1" class="cls-1" d="M51.56,32.63a13.8,13.8,0,0,0,.47,3h0a5.08,5.08,0,0,1,1.12-1h0c.92-.61,2.3-1.12,3.28-1.64h0c1-.56,1.64-1.57,1.28-2.26h0c-.47-.88-1.8-.84-2.64-1h0c-1.18-.15-2.19-.24-3.08-.27h0a8.21,8.21,0,0,0-.43,3.16"/></g></mask><mask id="mask-3" x="51.54" y="29.21" width="6.27" height="6.39" maskUnits="userSpaceOnUse"><g id="mask-2-4" data-name="mask-2"><path id="path-1-3" data-name="path-1" class="cls-1" d="M51.56,32.63a13.8,13.8,0,0,0,.47,3h0a5.08,5.08,0,0,1,1.12-1h0c.92-.61,2.3-1.12,3.28-1.64h0c1-.56,1.64-1.57,1.28-2.26h0c-.47-.88-1.8-.84-2.64-1h0c-1.18-.15-2.19-.24-3.08-.27h0a8.21,8.21,0,0,0-.43,3.16"/></g></mask><mask id="mask-4" x="34.25" y="20.43" width="7.19" height="13.69" maskUnits="userSpaceOnUse"><g id="mask-5"><path id="path-4" class="cls-1" d="M35.32,20.59c-1,.56-1.19,2-1,3.23h0c.22,1.31.77,2.79,1.36,5.12h0a12.84,12.84,0,0,1,.1,5.18h0A26.19,26.19,0,0,1,37.13,31h0a25,25,0,0,1,4.32-6h0a22.56,22.56,0,0,1-3.72-3.63h0a2.5,2.5,0,0,0-1.75-.9h0a1.34,1.34,0,0,0-.66.16"/></g></mask><linearGradient id="未命名的渐变_9-2" x1="-688.35" y1="1219.87" x2="-688.38" y2="1219.76" gradientTransform="matrix(50.03, 0, 0, -95.2, 34479.9, 116147.15)" xlink:href="#未命名的渐变_9"/><mask id="mask-6" x="34.25" y="20.43" width="7.19" height="14.96" maskUnits="userSpaceOnUse"><g id="mask-5-4" data-name="mask-5"><path id="path-4-3" data-name="path-4" class="cls-1" d="M35.32,20.59c-1,.56-1.19,2-1,3.23h0c.22,1.31.77,2.79,1.36,5.12h0a12.84,12.84,0,0,1,.1,5.18h0A26.19,26.19,0,0,1,37.13,31h0a25,25,0,0,1,4.32-6h0a22.56,22.56,0,0,1-3.72-3.63h0a2.5,2.5,0,0,0-1.75-.9h0a1.34,1.34,0,0,0-.66.16"/></g></mask><mask id="mask-7" x="34.39" y="24.57" width="18.36" height="18.84" maskUnits="userSpaceOnUse"><g id="mask-8"><path id="path-7" class="cls-1" d="M41.73,24.68A24.7,24.7,0,0,0,37.13,31h0c-1.44,2.79-4.21,10.46-1.78,12.09h0a2.09,2.09,0,0,0,1.18.32h0A7.57,7.57,0,0,0,40.37,42h0c1.3-.92,2.32-1.66,3.14-1.68h0c1.49-.05,2.55.78,4.4,2.38h0a2.72,2.72,0,0,0,2.94.46h0c2-1,2-4.11,1.76-5.34h0a24.5,24.5,0,0,1-1-5.18h0A7.78,7.78,0,0,1,51.83,30h0a7.21,7.21,0,0,1,.5-1.34h0A11.09,11.09,0,0,1,46.61,28h0a11.08,11.08,0,0,1-4.76-3.44h0Z"/></g></mask><linearGradient id="未命名的渐变_9-3" x1="-696.22" y1="1219.47" x2="-696.31" y2="1219.36" gradientTransform="matrix(127.72, 0, 0, -131.06, 88979.93, 159845.67)" xlink:href="#未命名的渐变_9"/><mask id="mask-8-2" x="34.39" y="20.34" width="22.44" height="23.07" maskUnits="userSpaceOnUse"><g id="mask-8-3" data-name="mask-8"><path id="path-7-2" data-name="path-7" class="cls-1" d="M41.73,24.68A24.7,24.7,0,0,0,37.13,31h0c-1.44,2.79-4.21,10.46-1.78,12.09h0a2.09,2.09,0,0,0,1.18.32h0A7.57,7.57,0,0,0,40.37,42h0c1.3-.92,2.32-1.66,3.14-1.68h0c1.49-.05,2.55.78,4.4,2.38h0a2.72,2.72,0,0,0,2.94.46h0c2-1,2-4.11,1.76-5.34h0a24.5,24.5,0,0,1-1-5.18h0A7.78,7.78,0,0,1,51.83,30h0a7.21,7.21,0,0,1,.5-1.34h0A11.09,11.09,0,0,1,46.61,28h0a11.08,11.08,0,0,1-4.76-3.44h0Z"/></g></mask><mask id="mask-9" x="38.99" y="15.14" width="2.31" height="3.75" maskUnits="userSpaceOnUse"><g id="mask-11"><path id="path-10" class="cls-1" d="M39.62,15.87l-.56,1.45a1.1,1.1,0,0,0,.61,1.43h0l.36.14A8,8,0,0,1,40.49,17h0a11.48,11.48,0,0,1,.81-1.65h0l-.28-.1a1,1,0,0,0-.37-.07h0a1.11,1.11,0,0,0-1,.73"/></g></mask><linearGradient id="未命名的渐变_9-4" x1="-662.47" y1="1224.33" x2="-662.5" y2="1224.22" gradientTransform="matrix(16.06, 0, 0, -26.1, 10677.47, 31971.91)" xlink:href="#未命名的渐变_9"/><mask id="mask-10" x="38.99" y="15.14" width="3.06" height="3.88" maskUnits="userSpaceOnUse"><g id="mask-11-2" data-name="mask-11"><path id="path-10-2" data-name="path-10" class="cls-1" d="M39.62,15.87l-.56,1.45a1.1,1.1,0,0,0,.61,1.43h0l.36.14A8,8,0,0,1,40.49,17h0a11.48,11.48,0,0,1,.81-1.65h0l-.28-.1a1,1,0,0,0-.37-.07h0a1.11,1.11,0,0,0-1,.73"/></g></mask><mask id="mask-11-3" x="57.52" y="22.25" width="2.4" height="3.72" maskUnits="userSpaceOnUse"><g id="mask-14"><path id="path-13" class="cls-1" d="M58.46,24a7.27,7.27,0,0,1-.94,1.74h0l.36.14a1.09,1.09,0,0,0,1.41-.66h0l.55-1.44a1.11,1.11,0,0,0-.6-1.44h0L59,22.25a10.67,10.67,0,0,1-.5,1.77"/></g></mask><linearGradient id="未命名的渐变_9-5" x1="-670.51" y1="1226.02" x2="-670.55" y2="1225.91" gradientTransform="matrix(16.67, 0, 0, -25.87, 11238.59, 31741.51)" xlink:href="#未命名的渐变_9"/><mask id="mask-12" x="57.3" y="22.25" width="2.62" height="3.72" maskUnits="userSpaceOnUse"><g id="mask-14-2" data-name="mask-14"><path id="path-13-2" data-name="path-13" class="cls-1" d="M58.46,24a7.27,7.27,0,0,1-.94,1.74h0l.36.14a1.09,1.09,0,0,0,1.41-.66h0l.55-1.44a1.11,1.11,0,0,0-.6-1.44h0L59,22.25a10.67,10.67,0,0,1-.5,1.77"/></g></mask><linearGradient id="未命名的渐变_9-6" x1="-696.61" y1="1219.2" x2="-696.7" y2="1219.14" gradientTransform="matrix(130.63, 0, 0, -94.67, 91057.76, 115438.35)" xlink:href="#未命名的渐变_9"/><linearGradient id="未命名的渐变_9-7" x1="-690.14" y1="1221.58" x2="-690.23" y2="1221.47" gradientTransform="matrix(64.63, 0, 0, -64.92, 44634.75, 79336.19)" xlink:href="#未命名的渐变_9"/><linearGradient id="未命名的渐变_9-8" x1="-683.98" y1="1227.57" x2="-684.07" y2="1227.46" gradientTransform="matrix(29.44, 0, 0, -29.56, 20195.98, 36325.02)" xlink:href="#未命名的渐变_9"/><linearGradient id="未命名的渐变_9-9" x1="-684.44" y1="1221.02" x2="-684.54" y2="1220.92" gradientTransform="matrix(39.51, 0, 0, -39.69, 27080.76, 48467.52)" xlink:href="#未命名的渐变_9"/></defs><g id="ChainNode"><g id="ChainNode_default" data-name="ChainNode default"><g id="logo"><g id="右手"><g class="cls-2"><path id="Fill-1" class="cls-3" d="M51.56,32.63a13.8,13.8,0,0,0,.47,3h0a5.08,5.08,0,0,1,1.12-1h0c.92-.61,2.3-1.12,3.28-1.64h0c1-.56,1.64-1.57,1.28-2.26h0c-.47-.88-1.8-.84-2.64-1h0c-1.18-.15-2.19-.24-3.08-.27h0a8.21,8.21,0,0,0-.43,3.16"/></g><g class="cls-4"><path id="Fill-3" class="cls-5" d="M52,29.41a9.66,9.66,0,0,0-.47,3.22,13.8,13.8,0,0,0,.47,3,7.26,7.26,0,0,1,1.12-.75A14.89,14.89,0,0,1,52,29.41Z"/></g><g class="cls-6"><path id="Fill-5" class="cls-7" d="M54.66,30.1h.42a3.4,3.4,0,0,1,2.54.66.9.9,0,0,0-.09-.32c-.47-.88-1.8-.85-2.64-1-1.18-.15-2.19-.24-3.08-.27a9.11,9.11,0,0,0-.27.95c.93-.06,2-.09,3.12-.06"/></g></g><g id="左手"><g class="cls-8"><path id="Fill-7" class="cls-9" d="M35.32,20.59c-1,.56-1.19,2-1,3.23h0c.22,1.31.77,2.79,1.36,5.12h0a12.84,12.84,0,0,1,.1,5.18h0A26.19,26.19,0,0,1,37.13,31h0a25,25,0,0,1,4.32-6h0a22.56,22.56,0,0,1-3.72-3.63h0a2.5,2.5,0,0,0-1.75-.9h0a1.34,1.34,0,0,0-.66.16"/></g><g class="cls-8"><path id="Fill-9" class="cls-7" d="M37.43,21.68l.26.34a26.43,26.43,0,0,0,3.2,3.51c.19-.2.37-.39.56-.57a22.56,22.56,0,0,1-3.72-3.63,2.3,2.3,0,0,0-2-.87,3.81,3.81,0,0,1,1.74,1.22"/></g><g class="cls-10"><path id="Fill-11" class="cls-5" d="M41.45,25c-1.76.85-4.26,3.45-5.76,5.91-1.72,2.82-.33,4.52-.33,4.52Z"/></g></g><g id="身体"><g class="cls-11"><path id="Fill-13" class="cls-12" d="M41.73,24.68A24.7,24.7,0,0,0,37.13,31h0c-1.44,2.79-4.21,10.46-1.78,12.09h0a2.09,2.09,0,0,0,1.18.32h0A7.57,7.57,0,0,0,40.37,42h0c1.3-.92,2.32-1.66,3.14-1.68h0c1.49-.05,2.55.78,4.4,2.38h0a2.72,2.72,0,0,0,2.94.46h0c2-1,2-4.11,1.76-5.34h0a24.5,24.5,0,0,1-1-5.18h0A7.78,7.78,0,0,1,51.83,30h0a7.21,7.21,0,0,1,.5-1.34h0A11.09,11.09,0,0,1,46.61,28h0a11.08,11.08,0,0,1-4.76-3.44h0Z"/></g><g class="cls-13"><path id="Fill-15" class="cls-5" d="M46.73,27.48a15.5,15.5,0,0,1-5.66-3.71,5.5,5.5,0,0,1-1.5-3.43A10.24,10.24,0,0,0,46,29.17,10.47,10.47,0,0,0,56.82,27a5.46,5.46,0,0,1-3.4,1.53A15.33,15.33,0,0,1,46.73,27.48Z"/></g></g><g id="左耳朵"><g class="cls-14"><path id="Fill-17" class="cls-15" d="M39.62,15.87l-.56,1.45a1.1,1.1,0,0,0,.61,1.43h0l.36.14A8,8,0,0,1,40.49,17h0a11.48,11.48,0,0,1,.81-1.65h0l-.28-.1a1,1,0,0,0-.37-.07h0a1.11,1.11,0,0,0-1,.73"/></g><g class="cls-16"><path id="Fill-19" class="cls-5" d="M41.81,15.5a1,1,0,0,0-.51-.18h0a11.39,11.39,0,0,0-1.09,1.42,8,8,0,0,0-.82,1.72h0a1,1,0,0,0,.3.33L40,19a8.55,8.55,0,0,1,.89-1.86,11.44,11.44,0,0,1,1.15-1.5Z"/></g></g><g id="右耳朵"><g class="cls-17"><path id="Fill-21" class="cls-18" d="M58.46,24a7.27,7.27,0,0,1-.94,1.74h0l.36.14a1.09,1.09,0,0,0,1.41-.66h0l.55-1.44a1.11,1.11,0,0,0-.6-1.44h0L59,22.25a10.67,10.67,0,0,1-.5,1.77"/></g><g class="cls-19"><path id="Fill-23" class="cls-5" d="M58.67,22.58A11.24,11.24,0,0,1,58.24,24a8,8,0,0,1-.94,1.74l.36.14a1,1,0,0,0,.61,0,1.82,1.82,0,0,0,.21-.47L58.89,24a1.7,1.7,0,0,0-.22-1.4"/></g></g><g id="头"><path id="路径" class="cls-20" d="M58.53,24A7.71,7.71,0,0,0,59,20.64a10,10,0,0,0-6.55-7.87,10,10,0,0,0-10.1,1.45,7.62,7.62,0,0,0-1.81,2.63,1.54,1.54,0,0,0-.08.19,10.17,10.17,0,0,1,9.34-6.7,9.44,9.44,0,0,1,3.35.62c5,1.94,7.36,7.71,5.4,13Z"/><path id="Fill-31" class="cls-21" d="M56.93,26.6l.06-.07.21-.24.07-.09.18-.24.09-.12.16-.23.09-.14c0-.08.09-.15.13-.22a1.14,1.14,0,0,0,.1-.19l.11-.19a2.56,2.56,0,0,0,.11-.24l.08-.16c.06-.14.12-.28.17-.42s0,0,0,0A7.8,7.8,0,0,0,59,20.64a10,10,0,0,0-6.55-7.87,10,10,0,0,0-10.1,1.45A7.79,7.79,0,0,0,40.44,17s0,0,0,0l-.15.43s0,.11-.05.17l-.07.25a2.25,2.25,0,0,0,0,.22,1.6,1.6,0,0,0-.05.21c0,.08,0,.16,0,.25l0,.17,0,.28s0,.09,0,.14,0,.2,0,.3,0,.08,0,.12V20c0,.11,0,.23,0,.34v.07a5.41,5.41,0,0,0,1.46,3.33,14.91,14.91,0,0,0,5.49,3.62,14.84,14.84,0,0,0,6.49,1,5.34,5.34,0,0,0,3.3-1.49l0,0,.24-.25"/><path id="Fill-33" class="cls-1" d="M55.28,20.81a.25.25,0,0,1,.21.29.28.28,0,0,1-.28.25.25.25,0,0,1-.22-.29.28.28,0,0,1,.29-.25"/><path id="Fill-35" class="cls-1" d="M55.64,18.26a.8.8,0,0,1,.69.93.87.87,0,0,1-.9.78.79.79,0,0,1-.69-.92.89.89,0,0,1,.9-.79"/><path id="Fill-37" class="cls-1" d="M54.19,17.05a.56.56,0,0,1,.49.65.64.64,0,0,1-.65.57.56.56,0,0,1-.48-.66.61.61,0,0,1,.64-.56"/><path id="Fill-27" class="cls-22" d="M53.34,28.39a14.84,14.84,0,0,1-6.49-1,14.91,14.91,0,0,1-5.49-3.62,5.41,5.41,0,0,1-1.46-3.33c.22,3.44,2.69,6.58,6.52,8.06s7.77.8,10.22-1.6a5.34,5.34,0,0,1-3.3,1.49"/></g><g id="星星"><path id="Fill-39" class="cls-23" d="M22.4,32.82A6.6,6.6,0,0,1,27,37.48h0a6.59,6.59,0,0,1,4.65-4.66h0A6.61,6.61,0,0,1,27,28.15h0a6.61,6.61,0,0,1-4.64,4.67"/><path id="Fill-41" class="cls-24" d="M58.15,37.18a3,3,0,0,1,2.12,2.12h0a3,3,0,0,1,2.11-2.12h0a3,3,0,0,1-2.11-2.13h0a3,3,0,0,1-2.12,2.13"/><path id="Fill-43" class="cls-25" d="M34.7,8.13A4,4,0,0,1,31.86,11h0a4,4,0,0,1,2.84,2.85h0A4,4,0,0,1,37.54,11h0A4.08,4.08,0,0,1,34.7,8.13Z"/></g></g><g id="chinese"><path id="Fill-45" class="cls-21" d="M95.67,14.9H94.44a.61.61,0,0,0-.61.62v.67H88.32V14.9H87.09a.62.62,0,0,0-.62.62v.67H84.28a.61.61,0,0,0-.61.62V18h2.8v1.59H87.7a.62.62,0,0,0,.62-.62V18h5.51v1.59h1.22a.62.62,0,0,0,.62-.62V18H97.8a.62.62,0,0,0,.62-.62V16.19H95.67Z"/><path id="Fill-47" class="cls-21" d="M97.75,21H85.24a.62.62,0,0,0-.62.62v1.23h4.63v8.28h1.22a.62.62,0,0,0,.62-.62V22.84h4.79v1.68a2.4,2.4,0,0,1-1.2,2.09L94,27l.54.93a.77.77,0,0,0,1,.29h0l.27-.16c1.43-.83,1.88-2.37,1.88-4V21Z"/><path id="Fill-49" class="cls-21" d="M98.87,29.76V31H108a.77.77,0,0,0,.77-.78V29H99.64a.77.77,0,0,0-.77.77Z"/><path id="Fill-51" class="cls-21" d="M110.67,29a.77.77,0,0,0-.77.77h0V31h1.73a.78.78,0,0,0,.77-.78V29Z"/><path id="Fill-53" class="cls-21" d="M109.8,25.39a.25.25,0,0,1-.25.25h-7.72V22.22a.25.25,0,0,1,.24-.25h7.73Zm1.84.4V20.11h-7.46V18h6.22a.61.61,0,0,0,.61-.62V16.19h-6.83V14.77H103a.62.62,0,0,0-.62.62v4.72h-.67a1.71,1.71,0,0,0-1.69,1.7v5.68h10a1.7,1.7,0,0,0,1.69-1.7Z"/><path id="Fill-55" class="cls-21" d="M69.38,22.1h.42a.61.61,0,0,0,.61-.62V20.25H67.56a.62.62,0,0,0-.62.62V22.1h.59v2h-1a.62.62,0,0,0-.62.62v1.24h1.67v3.13l-.21.12a.8.8,0,0,0-.38.67v1.69l3-1.77a.76.76,0,0,0,.39-.67V27.42l-1,.57V25.93h.91a.62.62,0,0,0,.62-.62V24.07H69.38Z"/><path id="Fill-57" class="cls-21" d="M76.6,22.1h1.71v2H76.06a.62.62,0,0,0-.62.62V26h2.87v2.52h1.23a.61.61,0,0,0,.61-.62V26h1.46a.62.62,0,0,0,.62-.62V24.1H80.15v-2h1.18a.78.78,0,0,0,.77-.77V20.25H80.15V19H78.93a.62.62,0,0,0-.62.62v.6h-1a.11.11,0,0,1-.11-.11.09.09,0,0,1,0-.05L78.18,18h3.3a.61.61,0,0,0,.61-.62V16.13H79l.41-.93H77.9a.75.75,0,0,0-.7.46l-.21.47H75.92a.61.61,0,0,0-.61.62V18h.86l-1,2.27A1.46,1.46,0,0,0,76.6,22.1"/><path id="Fill-59" class="cls-21" d="M74.75,29.69v1.23h7.62A.62.62,0,0,0,83,30.3V29.06H75.37a.62.62,0,0,0-.62.62Z"/><path id="Fill-61" class="cls-21" d="M71.34,16.78V18h2.27a.62.62,0,0,0,.62-.62V16.16H72a.61.61,0,0,0-.62.62"/><path id="Fill-63" class="cls-21" d="M68.05,18h1.74a.62.62,0,0,0,.62-.62V16.16h-2.1v-1h-1.1a.77.77,0,0,0-.77.77h0v.89a1.66,1.66,0,0,1-1,1.47v1.59a.25.25,0,0,0,.25.25h.06A3.65,3.65,0,0,0,68.05,18"/><path id="Fill-65" class="cls-21" d="M72.36,19.51H72a.62.62,0,0,0-.62.62v1.11a.12.12,0,0,0,.12.13h.9v5.46c0,1.36-.32,1.59-1,2.05V31a.19.19,0,0,0,.19.19.16.16,0,0,0,.09,0,4.49,4.49,0,0,0,2.54-4.41V19.51Z"/></g><g id="english"><path id="Fill-67" class="cls-21" d="M66.66,40.15h4.75a.51.51,0,0,0,.51-.52v-.51H67.69v-4h3.72a.51.51,0,0,0,.51-.52v-.51H67.17a.51.51,0,0,0-.51.51Z"/><path id="Fill-69" class="cls-21" d="M95,38.41l-3.72-4.49h-.52a.51.51,0,0,0-.51.51v5.72h.51a.52.52,0,0,0,.52-.52V35.55L95,40.15h.51a.51.51,0,0,0,.51-.52V33.92h-.51a.51.51,0,0,0-.52.51Z"/><path id="Fill-71" class="cls-21" d="M78.62,39.23h2.52v-.74H78.62Zm-.41-2.31h2.93v.65H78.21a.51.51,0,0,0-.51.52v2.06h4a.52.52,0,0,0,.52-.52V35.88H78.73a.52.52,0,0,0-.52.52Z"/><path id="Fill-73" class="cls-21" d="M73.6,34.49h-.52a.52.52,0,0,0-.51.52v5.14h.51a.52.52,0,0,0,.52-.52V36.92H76v3.23h.51a.51.51,0,0,0,.51-.51h0V35.88H73.6Z"/><path id="Fill-74" class="cls-21" d="M103.49,39.12V36.68h2.66v2.44Zm2.66-3.47h-3.22a.47.47,0,0,0-.47.47h0v4h4.25a.47.47,0,0,0,.47-.48V34.49h-.51a.52.52,0,0,0-.52.52Z"/><path id="Fill-75" class="cls-21" d="M85.38,35.88h0a.51.51,0,0,0-.51.52v3.75h.51a.52.52,0,0,0,.52-.52V36.92H88.3v3.23h.52a.51.51,0,0,0,.51-.51h0V35.88Z"/><path id="Fill-76" class="cls-21" d="M112.26,37.94v-.52H109v-.7h2.71a.51.51,0,0,0,.51-.52v-.52h-3.73a.52.52,0,0,0-.52.52v4h3.73a.52.52,0,0,0,.52-.52h0v-.51H109v-.71h2.71a.51.51,0,0,0,.51-.51"/><path id="Fill-77" class="cls-21" d="M97.89,39.12h2.7V36.69h-2.7Zm-1,1h4.25a.51.51,0,0,0,.51-.52v-4H97.38a.52.52,0,0,0-.52.52Z"/><path id="Fill-78" class="cls-21" d="M83,40.15h.51a.51.51,0,0,0,.51-.52V35.88h-.51a.51.51,0,0,0-.51.52Z"/></g></g></g></svg>