<?xml version="1.0" encoding="utf-8"?>
<!-- Generator: Adobe Illustrator 26.3.1, SVG Export Plug-In . SVG Version: 6.00 Build 0)  -->
<svg version="1.1" id="图层_1" xmlns="http://www.w3.org/2000/svg" xmlns:xlink="http://www.w3.org/1999/xlink" x="0px" y="0px"
	 viewBox="0 0 140 50" style="enable-background:new 0 0 140 50;" xml:space="preserve">
<style type="text/css">
	.st0{fill:url(#SVGID_1_);}
</style>
<linearGradient id="SVGID_1_" gradientUnits="userSpaceOnUse" x1="29.2234" y1="26.4068" x2="110.7766" y2="26.4068" gradientTransform="matrix(1 0 0 -1 0 52)">
	<stop  offset="0" style="stop-color:#E6173C"/>
	<stop  offset="5.680000e-02" style="stop-color:#EA3332"/>
	<stop  offset="0.1163" style="stop-color:#ED492A"/>
	<stop  offset="0.1738" style="stop-color:#EE5626"/>
	<stop  offset="0.2267" style="stop-color:#EF5A24"/>
	<stop  offset="0.2808" style="stop-color:#F06126"/>
	<stop  offset="0.3597" style="stop-color:#F2752B"/>
	<stop  offset="0.4533" style="stop-color:#F69434"/>
	<stop  offset="0.5167" style="stop-color:#F9AE3B"/>
	<stop  offset="0.7501" style="stop-color:#3496C2"/>
	<stop  offset="1" style="stop-color:#522783"/>
</linearGradient>
<path class="st0" d="M29.2,15.7h3.1v19.7h-3.1V15.7z M58.9,18.8v-3.1c0,0-17.9,0-18.6,0c-0.7,0-5.2-0.2-5.2,4.8c0,5,0,9.3,0,9.7
	c0,0.4-0.2,5.2,4.8,5.2c5,0,19.2,0,19.2,0v-3c0,0-18.7,0-19.2,0c-0.4,0-1.8-0.3-1.8-2.5c0-2.2,0-8,0-8.8c0-0.8-0.3-2.3,2.1-2.3
	C42.7,18.8,58.9,18.8,58.9,18.8z M84.5,21.2c0,5.2-3.1,6-4.6,6c-1.6,0-15.1,0-15.1,0v8.2h-3.1V15.7c0,0,15.4,0,17.2,0
	C80.8,15.7,84.5,16,84.5,21.2z M81.4,21.5c0-2.5-0.1-2.6-3.4-2.6c-3.4,0-13.2,0-13.2,0v5.3c0,0,13.9,0,14.8,0S81.4,24,81.4,21.5z
	 M87.3,30.6c0,3.9,2.9,4.9,4.4,4.9c1.5,0,19,0,19,0v-3c0,0-17.3,0-18.7,0c-1.4,0-1.7-1.1-1.7-1.8c0-0.7,0-14.8,0-14.8h-3
	C87.3,15.8,87.3,26.7,87.3,30.6z"/>
</svg>
