<svg id="图层_1" data-name="图层 1" xmlns="http://www.w3.org/2000/svg" viewBox="0 0 140 50"><defs><style>.cls-1{fill:#3f0;}</style></defs><path d="M50.29,37a1.94,1.94,0,0,0-.35,0,1.43,1.43,0,0,1-.35,0c-.3,0-.46-.26-.46-.78v-.22c0-.22,0-.44,0-.67a2.32,2.32,0,0,0-.57-1.71,3.44,3.44,0,0,0-1.93-.81,5.38,5.38,0,0,0,1.73-.64,2.36,2.36,0,0,0,1-2.09,3.08,3.08,0,0,0-1-2.46,4.23,4.23,0,0,0-2.85-.9c-.37,0-.93,0-1.69.08-1.14.08-2.08.11-2.83.11-.43,0-.83,0-1.21-.05l-1.35-.14h-.17a1.27,1.27,0,0,0-1,.39,1.45,1.45,0,0,0-.36,1,1.34,1.34,0,0,0,.29.89.9.9,0,0,0,.73.36,1.9,1.9,0,0,0,.46-.07,2.53,2.53,0,0,1,.45-.06c.25,0,.41.16.47.49a4.13,4.13,0,0,1,0,.78v5.25q0,1.29-.51,1.29a2.08,2.08,0,0,1-.44-.07,2.59,2.59,0,0,0-.47-.06.9.9,0,0,0-.73.36,1.33,1.33,0,0,0-.29.89,1.22,1.22,0,0,0,1.38,1.38,12.46,12.46,0,0,0,1.35-.09,10.68,10.68,0,0,1,1.4-.1,10,10,0,0,1,1.34.1,11.36,11.36,0,0,0,1.24.09q1.32,0,1.32-1.38a1.43,1.43,0,0,0-.27-.89A.82.82,0,0,0,44,37a2.16,2.16,0,0,0-.43.06,1.64,1.64,0,0,1-.41.07c-.31,0-.47-.43-.47-1.29v-.44a1.85,1.85,0,0,1,.09-.7c.09-.19.31-.28.67-.28a3.1,3.1,0,0,1,1.81.38,1.61,1.61,0,0,1,.5,1.36v.13l0,1.1a.41.41,0,0,0,0,.14,2.51,2.51,0,0,0,.43,1.52,1.32,1.32,0,0,0,1.13.58,5.09,5.09,0,0,0,.67,0c.3,0,.52,0,.67,0s.36,0,.65,0a4.72,4.72,0,0,0,.64,0,1.27,1.27,0,0,0,1.35-1.36,1.52,1.52,0,0,0-.26-.92A.77.77,0,0,0,50.29,37Zm-6.94-4.91a.81.81,0,0,1-.54-.14.84.84,0,0,1-.14-.57V30.27a.81.81,0,0,1,.42-.82,3.3,3.3,0,0,1,1-.09c1.16,0,1.75.43,1.75,1.29S45,32.11,43.35,32.11Z"/><path d="M55.2,35.33h4.63a1,1,0,0,0,.79-.27A2,2,0,0,0,60.81,34a4.09,4.09,0,0,0-1.2-3.09,4.44,4.44,0,0,0-3.21-1.16,4.61,4.61,0,0,0-3.5,1.42,5.16,5.16,0,0,0-1.34,3.7,4.94,4.94,0,0,0,1.35,3.64,4.82,4.82,0,0,0,3.6,1.37,5.35,5.35,0,0,0,2.93-.77,2.2,2.2,0,0,0,1.2-1.87,1,1,0,0,0-.35-.81,1.28,1.28,0,0,0-.92-.32,1.71,1.71,0,0,0-1.25.6,2.35,2.35,0,0,1-1.63.88,1.7,1.7,0,0,1-1.29-.54,1.82,1.82,0,0,1-.51-1.32q0-.27.09-.33S55,35.33,55.2,35.33Zm-.11-3a1.5,1.5,0,0,1,1.23-.59,1.56,1.56,0,0,1,1,.37,1.1,1.1,0,0,1,.44.87.29.29,0,0,1-.07.23s-.16.07-.35.07H55.24c-.23,0-.36,0-.4-.08a.29.29,0,0,1-.06-.19A1.17,1.17,0,0,1,55.09,32.37Z"/><path d="M68.55,29.75A3.73,3.73,0,0,0,65.8,31V27.46c0-.44-.18-.66-.53-.66-.14,0-.35,0-.64.05a7.62,7.62,0,0,1-1,.06,6.37,6.37,0,0,1-.72-.06c-.32,0-.56-.05-.72-.05a1,1,0,0,0-.84.35,1.32,1.32,0,0,0-.32.92c0,.69.31,1,.91,1a.9.9,0,0,0,.31,0,1,1,0,0,1,.34-.07c.21,0,.32.32.32,1v8.65A1,1,0,0,0,64,39.71c.7,0,1-.29,1-.87,0-.12,0-.27,0-.48A3.58,3.58,0,0,0,68,39.88a3.77,3.77,0,0,0,3.09-1.42,5.83,5.83,0,0,0,1.16-3.79,5.7,5.7,0,0,0-1-3.56A3.25,3.25,0,0,0,68.55,29.75Zm-1,7.72q-1.74,0-1.74-2.67a3.36,3.36,0,0,1,.5-1.89,1.5,1.5,0,0,1,1.28-.75c1.08,0,1.61.89,1.61,2.66S68.68,37.47,67.58,37.47Z"/><path d="M82.79,37.41l-.13,0a1.37,1.37,0,0,1-.29,0q-.3,0-.3-.6V32.92A2.76,2.76,0,0,0,81,30.38a5.86,5.86,0,0,0-3-.63,6.3,6.3,0,0,0-3,.59A1.79,1.79,0,0,0,73.88,32a1.47,1.47,0,0,0,.49,1.14,1.8,1.8,0,0,0,1.25.46,1.7,1.7,0,0,0,1.11-.36,1.1,1.1,0,0,0,.45-.89v-.08a2.45,2.45,0,0,1,0-.27c0-.26.21-.39.62-.39a1.39,1.39,0,0,1,.92.29.9.9,0,0,1,.37.73,1,1,0,0,1-.48.9,5.61,5.61,0,0,1-1.83.52,12.59,12.59,0,0,0-1.71.42A2.44,2.44,0,0,0,73.33,37a2.66,2.66,0,0,0,.89,2.09,3.45,3.45,0,0,0,2.39.79,4.47,4.47,0,0,0,3.15-1.25,2,2,0,0,0,2.08,1.25,2.37,2.37,0,0,0,1.43-.4,1.19,1.19,0,0,0,.56-1,1,1,0,0,0-1-1.05Zm-3.7-1.59c0,1.17-.56,1.75-1.68,1.75-.69,0-1-.29-1-.88,0-.36.35-.63,1-.81a14.42,14.42,0,0,0,1.67-.48Z"/><path d="M91.65,34.1a8,8,0,0,0-1.84-.52,10.27,10.27,0,0,1-1.9-.42.58.58,0,0,1-.36-.56c0-.51.37-.76,1.1-.76a1.9,1.9,0,0,1,1.57.87,1.54,1.54,0,0,0,1.25.72.89.89,0,0,0,1-1v-.51c0-.17,0-.27,0-.31a3.72,3.72,0,0,1,.06-.64,2,2,0,0,0,.07-.51q0-.69-1-.69c-.64,0-1,.27-1,.8a3.8,3.8,0,0,0-2.46-.82,3.42,3.42,0,0,0-2.46.9A3.05,3.05,0,0,0,84.74,33a2.94,2.94,0,0,0,.33,1.41,2,2,0,0,0,.88.9,8.5,8.5,0,0,0,1.9.57l1.1.23c.74.15,1.1.42,1.1.81,0,.57-.45.86-1.36.86a2.6,2.6,0,0,1-1.18-.22,3,3,0,0,1-.87-.92,1.89,1.89,0,0,0-.57-.59,1.63,1.63,0,0,0-.78-.15c-.7,0-1.06.28-1.06.85,0,.12,0,.29,0,.52s0,.39,0,.51a5.37,5.37,0,0,1,0,.58,5.68,5.68,0,0,0,0,.59c0,.56.34.84,1,.84a.83.83,0,0,0,.94-.93,4.83,4.83,0,0,0,3,1.06,4.06,4.06,0,0,0,2.78-1,3,3,0,0,0,1.11-2.41,2.72,2.72,0,0,0-.48-1.59A2.5,2.5,0,0,0,91.65,34.1Z"/><path d="M101.85,36.11a1.71,1.71,0,0,0-1.26.6,2.33,2.33,0,0,1-1.63.88,1.73,1.73,0,0,1-1.29-.54,1.82,1.82,0,0,1-.51-1.32q0-.27.09-.33a.76.76,0,0,1,.42-.07h4.63a.94.94,0,0,0,.79-.27,1.93,1.93,0,0,0,.2-1.06,4.06,4.06,0,0,0-1.21-3.09,4.44,4.44,0,0,0-3.21-1.16,4.61,4.61,0,0,0-3.5,1.42A5.16,5.16,0,0,0,94,34.87a4.94,4.94,0,0,0,1.35,3.64A4.84,4.84,0,0,0,99,39.88a5.35,5.35,0,0,0,2.93-.77,2.19,2.19,0,0,0,1.21-1.87,1.07,1.07,0,0,0-.35-.81A1.29,1.29,0,0,0,101.85,36.11Zm-4.29-3.74a1.52,1.52,0,0,1,1.23-.59,1.57,1.57,0,0,1,1,.37,1.12,1.12,0,0,1,.43.87.33.33,0,0,1-.06.23s-.16.07-.35.07H97.71c-.22,0-.36,0-.4-.08a.36.36,0,0,1,0-.19A1.14,1.14,0,0,1,97.56,32.37Z"/><path class="cls-1" d="M37.9,26a1.2,1.2,0,0,0,.82-.34C55.66,9.31,81.64,8.34,98.13,22.92l-2.37-.57-.56,2.3,6.06,1.46v0h0l.25,0a1.63,1.63,0,0,0,.95-.31,1.62,1.62,0,0,0,.64-1.05,1.51,1.51,0,0,0,0-.67h0l-1.61-5.74L99.24,19l.66,2.35C82.5,5.75,55,6.67,37.07,24a1.19,1.19,0,0,0,.83,2Z"/></svg>