<svg id="图层_1" data-name="图层 1" xmlns="http://www.w3.org/2000/svg" viewBox="0 0 140 50"><defs><style>.cls-1{fill:#e50012;}.cls-2{fill:#007ee2;}.cls-3{fill:#2ca6e0;}.cls-4{fill:#0096e2;}.cls-5{fill:#00cfad;}.cls-6{fill:#00cbfd;}.cls-7{fill:#009fe8;}.cls-8{fill:#009ee2;}.cls-9{fill:#00a0e2;}.cls-10{fill:#008bf7;}</style></defs><polygon class="cls-1" points="71.14 19.55 71.14 19.55 71.14 19.55 71.14 19.55"/><path class="cls-2" d="M62.67,19.55H55.61a4.25,4.25,0,0,1,0-8.49h5.65L58,5.44H55.61a9.87,9.87,0,1,0,0,19.73h7.06a4.25,4.25,0,0,1,0,8.49H57v5.63h5.65a9.87,9.87,0,1,0,0-19.74Z"/><rect class="cls-2" x="52.79" y="35.07" width="1.41" height="1.41"/><rect class="cls-2" x="48.55" y="35.07" width="1.41" height="1.41"/><polygon class="cls-3" points="51.92 35.07 51.38 35.07 51.38 36.48 51.92 36.48 52.79 36.48 52.79 35.07 51.92 35.07"/><rect class="cls-2" x="54.2" y="35.07" width="1.41" height="1.41"/><rect class="cls-2" x="55.61" y="33.66" width="1.41" height="1.41"/><rect class="cls-2" x="47.14" y="33.66" width="1.41" height="1.41"/><rect class="cls-2" x="54.2" y="33.66" width="1.41" height="1.41"/><polygon class="cls-2" points="51.92 33.66 51.38 33.66 51.38 35.07 51.92 35.07 52.79 35.07 52.79 33.66 51.92 33.66"/><rect class="cls-4" x="49.97" y="33.66" width="1.41" height="1.41"/><rect class="cls-2" x="48.55" y="37.88" width="1.41" height="1.41"/><rect class="cls-4" x="49.97" y="37.88" width="1.41" height="1.41"/><rect class="cls-2" x="55.61" y="37.88" width="1.41" height="1.41"/><rect class="cls-2" x="52.79" y="37.88" width="1.41" height="1.41"/><rect class="cls-5" x="49.97" y="36.48" width="1.41" height="1.41"/><rect class="cls-6" x="47.14" y="36.48" width="1.41" height="1.41"/><polygon class="cls-2" points="51.92 36.48 51.38 36.48 51.38 37.88 51.92 37.88 52.79 37.88 52.79 36.48 51.92 36.48"/><rect class="cls-2" x="55.61" y="36.48" width="1.41" height="1.41"/><rect class="cls-2" x="54.2" y="36.48" width="1.41" height="1.41"/><rect class="cls-6" x="44.32" y="33.66" width="1.41" height="1.41"/><path class="cls-2" d="M81.86,24.72a9.86,9.86,0,0,0-3-19.28H71.12v2.8h1.41V9.65H71.12v1.41h7.79a4.25,4.25,0,0,1,0,8.49H71.14L82.43,39.29h7.76Z"/><rect class="cls-3" x="65.48" y="6.84" width="1.41" height="1.41"/><rect class="cls-6" x="62.67" y="6.84" width="1.41" height="1.41"/><rect class="cls-5" x="66.89" y="6.84" width="1.41" height="1.41"/><rect class="cls-4" x="68.3" y="8.24" width="1.41" height="1.41"/><rect class="cls-5" x="64.07" y="9.65" width="0.01" height="1.41"/><rect class="cls-5" x="64.08" y="9.65" width="1.4" height="1.41"/><rect class="cls-2" x="65.48" y="8.24" width="1.41" height="1.41"/><rect class="cls-2" x="66.89" y="9.65" width="1.41" height="1.41"/><rect class="cls-7" x="68.3" y="5.42" width="1.41" height="0.01"/><rect class="cls-7" x="68.3" y="5.44" width="1.41" height="1.4"/><rect class="cls-2" x="66.89" y="5.42" width="1.41" height="0.01"/><rect class="cls-2" x="66.89" y="5.44" width="1.41" height="1.4"/><rect class="cls-8" x="69.71" y="8.24" width="1.41" height="1.41"/><rect class="cls-2" x="69.71" y="6.84" width="1.41" height="1.41"/><rect class="cls-9" x="61.26" y="5.42" width="1.41" height="1.41"/><polygon class="cls-10" points="64.08 6.84 64.08 5.44 65.48 5.44 65.48 5.42 64.07 5.42 64.07 6.84 64.08 6.84"/><rect class="cls-10" x="64.08" y="5.44" width="1.4" height="1.4"/><rect class="cls-2" x="69.71" y="9.65" width="1.41" height="1.41"/><path class="cls-2" d="M45.85,46.22v-.47A4,4,0,0,0,47,45.9c.52,0,.78-.14.78-.43s-.16-.31-.48-.31h-.53c-.68,0-1-.26-1-.79s.49-.86,1.47-.86a4.13,4.13,0,0,1,1.07.14v.47A3.74,3.74,0,0,0,47.2,44c-.56,0-.85.14-.85.41s.14.32.41.32h.53c.73,0,1.1.26,1.1.78s-.47.89-1.4.89A4.45,4.45,0,0,1,45.85,46.22Z"/><path class="cls-2" d="M48.92,45.23v-1.7h.62v1.7c0,.45.27.67.82.67s.82-.22.82-.67v-1.7h.63v1.7c0,.75-.48,1.13-1.45,1.13S48.92,46,48.92,45.23Z"/><path class="cls-2" d="M52.51,46.34V43.53h.63l1.77,2v-2h.6v2.81h-.62l-1.78-2.09v2.09Z"/><path class="cls-2" d="M57.27,46.33v-2.8H58.8c.69,0,1,.25,1,.75,0,.34-.27.62-.8.84l1.06,1.22h-.78l-1-1.23v-.23c.59-.09.89-.28.89-.58S59,44,58.76,44h-.85v2.34Z"/><path class="cls-2" d="M62.69,43.53V44H61v.7h1.61v.47H61v.73h1.72v.46H60.39V43.53Z"/><path class="cls-2" d="M66,46.22a3.33,3.33,0,0,1-1,.14c-1.21,0-1.81-.49-1.81-1.47s.6-1.38,1.81-1.38a3.33,3.33,0,0,1,1,.14v.47A2.9,2.9,0,0,0,65,44c-.81,0-1.21.31-1.21.93s.4,1,1.21,1a2.89,2.89,0,0,0,.94-.15Z"/><path class="cls-2" d="M66.56,46.33v-2.8h1.53c.69,0,1,.25,1,.75,0,.34-.27.62-.8.84l1.06,1.22H68.6l-1-1.23v-.23c.59-.09.89-.28.89-.58s-.14-.31-.42-.31H67.2v2.34Z"/><path class="cls-2" d="M69.68,45.23v-1.7h.62v1.7c0,.45.27.67.82.67s.83-.22.83-.67v-1.7h.62v1.7c0,.75-.48,1.13-1.45,1.13S69.68,46,69.68,45.23Z"/><path class="cls-2" d="M73.9,43.53v2.81h-.63V43.53Z"/><path class="cls-2" d="M76.8,43.53V44h-1v2.36h-.63V44h-1v-.45Z"/><path class="cls-2" d="M77.15,46.34V43.53h.65l1.14,2.13,1.11-2.13h.63v2.81H80.1v-2l-.91,2h-.53l-.93-2v2Z"/><path class="cls-2" d="M83.68,43.53V44H82v.7h1.6v.47H82v.73h1.73v.46H81.38V43.53Z"/><path class="cls-2" d="M84.29,46.34V43.53h.63l1.77,2v-2h.6v2.81h-.62l-1.78-2.09v2.09Z"/><path class="cls-2" d="M90.19,43.53V44h-1v2.36h-.62V44h-1v-.45Z"/></svg>