<svg id="图层_1" data-name="图层 1" xmlns="http://www.w3.org/2000/svg" xmlns:xlink="http://www.w3.org/1999/xlink" viewBox="0 0 140 50"><defs><style>.cls-1{fill:#fff;}.cls-1,.cls-3,.cls-5{fill-rule:evenodd;}.cls-2{mask:url(#mask);}.cls-3{fill:#00d4a1;}.cls-4{mask:url(#mask-2-2);}.cls-5,.cls-6{fill:#202020;}</style><mask id="mask" x="34.16" y="13.95" width="21.01" height="25.65" maskUnits="userSpaceOnUse"><g id="mask-2"><polygon id="path-1" class="cls-1" points="43.63 13.95 55.18 20.73 55.18 34.13 45.7 39.6 45.69 34.1 45.67 26.13 34.16 19.42 43.63 13.95"/></g></mask><mask id="mask-2-2" x="17.74" y="9.93" width="25.46" height="32.35" maskUnits="userSpaceOnUse"><g id="mask-4"><path id="path-3" class="cls-1" d="M35.36,32.07a6.93,6.93,0,0,1-3.68,1A7,7,0,0,1,28,20.19l10.67-6.25-6.92-4L17.74,18V34.18l14,8.11L43.2,35.63V27.54Z"/></g></mask></defs><g id="页面-1"><g id="THUBA-WEB-横版备份-13"><g id="编组-2"><g id="编组"><g class="cls-2"><polygon id="Fill-9" class="cls-3" points="43.63 13.95 55.18 20.73 55.18 34.13 45.7 39.6 45.69 34.1 45.67 26.13 34.16 19.42 43.63 13.95"/></g></g><g id="编组-2-2" data-name="编组"><g class="cls-4"><path id="Fill-23" class="cls-5" d="M35.36,32.07a6.93,6.93,0,0,1-3.68,1A7,7,0,0,1,28,20.19l10.67-6.25-6.92-4L17.74,18V34.18l14,8.11L43.2,35.63V27.54Z"/></g></g><path id="Fill-25" class="cls-3" d="M36.35,26.17a4.63,4.63,0,1,1-4.63-4.63A4.62,4.62,0,0,1,36.35,26.17Z"/></g><path id="形状结合" class="cls-3" d="M122.26,17.36V28.05h-3.71V25.67l-4,2.38h-3.4V19.88l4.16-2.52Zm-3.71,3.57h-3.66v3.55h3.66Z"/><path id="形状结合-2" data-name="形状结合" class="cls-5" d="M102.21,13.82v6.25l4.46-2.67,2.91,0v8.22l-4.27,2.47H98.5V15.91Zm3.66,7.11h-3.66v3.55h3.66Z"/><polygon id="路径" class="cls-5" points="85.82 19.5 85.82 28.05 88.86 28.05 93.19 25.56 93.19 28.05 96.89 28.05 96.89 17.36 93.19 19.5 93.19 24.48 89.53 24.48 89.53 17.36 85.82 19.5"/><polygon id="路径-2" data-name="路径" class="cls-5" points="84.21 28.05 84.21 17.36 80.87 17.49 76.85 19.86 76.85 13.82 73.14 15.95 73.14 28.05 76.85 28.05 76.85 20.93 80.51 20.93 80.51 28.05 84.21 28.05"/><path id="路径-3" data-name="路径" class="cls-5" d="M71.86,20.89V17.36H60.79v3.53h6.09L64.45,22.4v5.65h3.69V20.89Z"/><path id="Fill-9-2" data-name="Fill-9" class="cls-5" d="M61,31.7a5.54,5.54,0,0,1,.84.59l.31-.39a5.57,5.57,0,0,0-.86-.54Zm-.25,1.39a5.5,5.5,0,0,1,.89.61l.3-.4a5.36,5.36,0,0,0-.9-.56ZM61,35.8l.45.29c.25-.51.54-1.14.76-1.71l-.41-.29A15.62,15.62,0,0,1,61,35.8Zm38.38-4.27H94.9V36h4.58v-.48H95.39V32h4Zm14,1.69a3.56,3.56,0,0,1-.49,1.3,3.47,3.47,0,0,1,.37.26,4.18,4.18,0,0,0,.56-1.47Zm2.4.09a10,10,0,0,1,.34,1.55l.45-.11a13.24,13.24,0,0,0-.37-1.52Zm4.46,1.44a6,6,0,0,1,.55.57l-2.17.14a9,9,0,0,0,1-1.06h2.28v-.49h-4.39v.49h1.41a6.89,6.89,0,0,1-.8.89,1,1,0,0,1-.41.27,4.47,4.47,0,0,1,.17.52,20.31,20.31,0,0,1,3.28-.33,2.83,2.83,0,0,1,.28.43l.45-.28a6.64,6.64,0,0,0-1.2-1.38ZM118.35,33v.34h2.51V33a6.46,6.46,0,0,0,.87.44,2.51,2.51,0,0,1,.35-.44,6.58,6.58,0,0,1-2.18-1.28l.17-.23-.47-.21A5.64,5.64,0,0,1,117.14,33a1.93,1.93,0,0,1,.36.45A7.66,7.66,0,0,0,118.35,33Zm2.38-.12h-2.18a6.12,6.12,0,0,0,1.06-.88A7.67,7.67,0,0,0,120.73,32.89Zm-5.46-.14a9.45,9.45,0,0,1-.23,2.83.22.22,0,0,1-.2.08c-.11,0-.37,0-.66,0a1.08,1.08,0,0,1,.15.48,5.57,5.57,0,0,0,.73,0,.49.49,0,0,0,.41-.24c.18-.24.23-1,.28-3.37v-.24h-1.1v-1h-.48v1h-.88v.49h.87a3.88,3.88,0,0,1-1.36,3.09,1.82,1.82,0,0,1,.38.35,4.39,4.39,0,0,0,1.46-3.44Zm-3.16-1.49v1.25h-.56V33h.56v3.21h.48V33h.54v-.46h-.54V31.26Zm-4.58.3a7.94,7.94,0,0,1,.37,1l.43-.15a6.72,6.72,0,0,0-.39-1Zm.33,3.66a2.4,2.4,0,0,0-.58.47l.32.46c.18-.28.4-.57.54-.57s.25.13.44.25a1.84,1.84,0,0,0,1,.25c.32,0,.84,0,1.11,0a1.87,1.87,0,0,1,.11-.51,10.17,10.17,0,0,1-1.21.07,1.9,1.9,0,0,1-1-.21l-.33-.21v-2.1h-.9v.45h.45Zm.62-1.07v.43h1v.84h.45v-.84h.83v-.43h-.83v-.61h.72v-.41h-.73v-.61h-.45v.61H109c.12-.25.23-.53.34-.83h1.42v-.42h-1.27c.06-.18.11-.36.16-.54l-.48-.09a4.75,4.75,0,0,1-.14.63h-.6v.42h.47a5.3,5.3,0,0,1-.2.55c-.09.19-.16.33-.25.35a3.43,3.43,0,0,1,.14.42.91.91,0,0,1,.43-.08h.44v.61Zm-2.54-.23v.43h.55v.91a.68.68,0,0,1-.27.54,1.64,1.64,0,0,1,.26.33,5.74,5.74,0,0,1,1-.8,1.88,1.88,0,0,1-.14-.38l-.43.29v-.89h.56v-.43h-.56v-.66h.43v-.43h-1.19a5.87,5.87,0,0,0,.31-.56h1v-.44h-.82a3.73,3.73,0,0,0,.14-.44l-.42-.12a3.28,3.28,0,0,1-.57,1.28A2.13,2.13,0,0,1,106,33a.31.31,0,0,0,.09-.11v.37h.36v.66Zm-2.52.47a2.91,2.91,0,0,0,1.42,1.8,1.66,1.66,0,0,1,.35-.44,2.5,2.5,0,0,1-1.38-1.59h1.28v-.48h-.36V32.14h-1.18v-.82h-.49v.82h-.88v.47h.88v.55a4.52,4.52,0,0,1,0,.52h-1v.48H103a2.34,2.34,0,0,1-1.43,1.65,2,2,0,0,1,.34.38A2.62,2.62,0,0,0,103.42,34.39Zm.84-.71h-.73c0-.17,0-.35,0-.52v-.55h.71Zm-4,1.13.2.5c.47-.2,1.06-.48,1.62-.75l-.12-.44-.53.23V33h.55v-.47h-.55V31.33h-.47v1.19h-.61V33h.61v1.55Zm-4.42-2.1c.39.31.83.68,1.24,1.06a6.9,6.9,0,0,1-1.43,1.08,4.78,4.78,0,0,1,.39.39,9.15,9.15,0,0,0,1.41-1.14,15.73,15.73,0,0,1,1.1,1.13l.39-.37a12.52,12.52,0,0,0-1.15-1.12,9.67,9.67,0,0,0,1-1.32l-.48-.19a7,7,0,0,1-.88,1.19c-.42-.36-.85-.71-1.23-1Zm-4.61-1.44v1h-1a7.58,7.58,0,0,0,.28-.8L90,31.34a4.71,4.71,0,0,1-1,1.94,5,5,0,0,1,.45.3,4.09,4.09,0,0,0,.53-.83h1.19v1.07H89.66v.48h1.53v1.23H89.07V36h4.76v-.49H91.71V34.3h1.66v-.48H91.71V32.75h1.86v-.49H91.71v-1Zm-7.73,3v.47h2.08v.86c0,.07,0,.09-.14.1s-.48,0-.86,0a2.07,2.07,0,0,1,.21.49,3.28,3.28,0,0,0,1-.09c.22-.07.29-.21.29-.48v-.87h2.12v-.47H86.05V34.1a5.21,5.21,0,0,0,1.27-.81L87,33l-.1,0H84.38v.44h1.94a4.79,4.79,0,0,1-.78.4v.36Zm.09-2.13v1.1H84v-.66H87.6v.66h.49v-1.1h-.83a6.79,6.79,0,0,0,.49-.67l-.51-.16a5.31,5.31,0,0,1-.51.83h-.79l.3-.12a3.1,3.1,0,0,0-.43-.79l-.44.16a3.47,3.47,0,0,1,.37.75h-1l.21-.1a3.08,3.08,0,0,0-.5-.71L84,31.5a4.06,4.06,0,0,1,.42.63ZM79.9,33.9v.36H77.83v.47H79.9v.86c0,.07,0,.09-.13.1s-.48,0-.86,0a2.07,2.07,0,0,1,.21.49,3.17,3.17,0,0,0,1-.09c.22-.07.3-.21.3-.48v-.87h2.12v-.47H80.42V34.1a5.15,5.15,0,0,0,1.26-.81L81.36,33l-.1,0H78.74v.44h2A4.5,4.5,0,0,1,79.9,33.9Zm1.71-2.6a6.19,6.19,0,0,1-.51.83h-.79L80.6,32a3.39,3.39,0,0,0-.42-.79l-.45.16a3.53,3.53,0,0,1,.38.75h-1l.21-.1a3.08,3.08,0,0,0-.5-.71l-.43.18a3.52,3.52,0,0,1,.43.63h-.85v1.1h.47v-.66H82v.66h.49v-1.1h-.83c.16-.2.34-.44.49-.67Zm-9.4,1.44v.52h1.9a3.32,3.32,0,0,1-2,2.49,1.65,1.65,0,0,1,.38.42,3.69,3.69,0,0,0,2.07-2.46,4.15,4.15,0,0,0,2.07,2.46A1.87,1.87,0,0,1,77,35.7a3.74,3.74,0,0,1-2-2.44h2v-.52H74.74c.06-.53.06-1,.07-1.47h-.54a13.06,13.06,0,0,1-.07,1.47Zm-3.57,1.2v.61H66.52V35h2.12v1.14h.53V35H71.3v-.49H69.17v-.61Zm.4-2.6v1l-.9.27a2,2,0,0,1,.18.39c.23-.06.48-.12.72-.2v.34c0,.5.15.65.72.65h.86c.46,0,.6-.18.65-.82a1.41,1.41,0,0,1-.44-.18c0,.47-.06.56-.25.56h-.76c-.24,0-.27,0-.27-.21v-.5A7.54,7.54,0,0,0,71.14,32l-.37-.39a6.58,6.58,0,0,1-1.22.62v-.85Zm-1.65,1.28V34h.5V32.11a4.72,4.72,0,0,0,.51-.69l-.47-.17a4.43,4.43,0,0,1-1.47,1.45,3.23,3.23,0,0,1,.37.37A5.52,5.52,0,0,0,67.39,32.62ZM63,35.37h1.77v.29c0,.06,0,.08-.1.09H64.1a1.8,1.8,0,0,1,.14.43,2,2,0,0,0,.79-.08c.17-.07.21-.19.21-.42V33.6H62.53v2.58H63ZM64.77,35H63v-.34h1.77Zm0-.7H63V34h1.77ZM62.12,33v.37h3.56V33H64.13v-.31h1.21v-.35H64.13V32h1.35v-.36H64.13v-.4h-.5v.4H62.32V32h1.31v.29H62.46v.35h1.17V33Z"/><g id="TSINGHUA-UNIVERSITY"><polygon id="路径-4" data-name="路径" class="cls-6" points="61.22 38.46 60.79 38.46 60.79 38.26 61.88 38.26 61.88 38.46 61.45 38.46 61.45 39.52 61.22 39.52 61.22 38.46"/><path id="路径-5" data-name="路径" class="cls-6" d="M62.5,39.54a.87.87,0,0,1-.28,0,.5.5,0,0,1-.22-.1l.08-.19a.57.57,0,0,0,.19.1.66.66,0,0,0,.23,0,.43.43,0,0,0,.22,0,.13.13,0,0,0,.07-.12.1.1,0,0,0,0-.09l-.1-.06-.17,0-.23-.07a.31.31,0,0,1-.16-.11.27.27,0,0,1-.07-.19.31.31,0,0,1,.06-.19.44.44,0,0,1,.18-.14.74.74,0,0,1,.28,0,.85.85,0,0,1,.23,0,.76.76,0,0,1,.2.08l-.07.19a.71.71,0,0,0-.18-.08.55.55,0,0,0-.18,0,.41.41,0,0,0-.21,0,.15.15,0,0,0-.07.13.09.09,0,0,0,0,.08.21.21,0,0,0,.1.06l.17,0,.23.07A.36.36,0,0,1,63,39a.29.29,0,0,1,.06.19.32.32,0,0,1-.05.19.44.44,0,0,1-.18.14A.79.79,0,0,1,62.5,39.54Z"/><polygon id="路径-6" data-name="路径" class="cls-6" points="63.32 38.26 63.56 38.26 63.56 39.52 63.32 39.52 63.32 38.26"/><polygon id="路径-7" data-name="路径" class="cls-6" points="65.11 38.26 65.11 39.52 64.91 39.52 64.2 38.67 64.2 39.52 63.96 39.52 63.96 38.26 64.16 38.26 64.87 39.11 64.87 38.26 65.11 38.26"/><path id="路径-8" data-name="路径" class="cls-6" d="M66.39,38.87h.22v.51a.55.55,0,0,1-.23.11.86.86,0,0,1-.27,0,.68.68,0,0,1-.35-.09.56.56,0,0,1-.25-.23.63.63,0,0,1-.09-.33.6.6,0,0,1,.09-.33.56.56,0,0,1,.25-.23.68.68,0,0,1,.35-.09.94.94,0,0,1,.3,0,.6.6,0,0,1,.22.16l-.15.14a.47.47,0,0,0-.35-.14.62.62,0,0,0-.25,0,.41.41,0,0,0-.16.16.44.44,0,0,0-.06.23.46.46,0,0,0,.06.23.39.39,0,0,0,.16.15.48.48,0,0,0,.24.06.6.6,0,0,0,.27-.06Z"/><polygon id="路径-9" data-name="路径" class="cls-6" points="68.13 38.26 68.13 39.52 67.89 39.52 67.89 38.98 67.22 38.98 67.22 39.52 66.99 39.52 66.99 38.26 67.22 38.26 67.22 38.78 67.89 38.78 67.89 38.26 68.13 38.26"/><path id="路径-10" data-name="路径" class="cls-6" d="M69.09,39.54a.52.52,0,0,1-.57-.57v-.71h.24V39c0,.25.11.37.33.37s.32-.12.32-.37v-.7h.24V39a.57.57,0,0,1-.15.42A.56.56,0,0,1,69.09,39.54Z"/><path id="形状" class="cls-6" d="M70.85,39.23H70.2l-.12.29h-.25l.58-1.26h.24l.58,1.26H71ZM70.77,39l-.24-.55-.24.55Z"/><path id="路径-11" data-name="路径" class="cls-6" d="M72.57,39.54A.52.52,0,0,1,72,39v-.71h.24V39c0,.25.11.37.33.37s.32-.12.32-.37v-.7h.24V39a.57.57,0,0,1-.15.42A.56.56,0,0,1,72.57,39.54Z"/><polygon id="路径-12" data-name="路径" class="cls-6" points="74.67 38.26 74.67 39.52 74.47 39.52 73.76 38.67 73.76 39.52 73.52 39.52 73.52 38.26 73.72 38.26 74.43 39.11 74.43 38.26 74.67 38.26"/><polygon id="路径-13" data-name="路径" class="cls-6" points="75.07 38.26 75.31 38.26 75.31 39.52 75.07 39.52 75.07 38.26"/><polygon id="路径-14" data-name="路径" class="cls-6" points="76.88 38.26 76.32 39.52 76.08 39.52 75.52 38.26 75.78 38.26 76.21 39.23 76.64 38.26 76.88 38.26"/><polygon id="路径-15" data-name="路径" class="cls-6" points="78.04 39.32 78.04 39.52 77.07 39.52 77.07 38.26 78.01 38.26 78.01 38.46 77.31 38.46 77.31 38.78 77.93 38.78 77.93 38.98 77.31 38.98 77.31 39.32 78.04 39.32"/><path id="形状-2" data-name="形状" class="cls-6" d="M79.2,39.52l-.26-.37H78.6v.37h-.24V38.26h.53a.84.84,0,0,1,.29.05.38.38,0,0,1,.19.16.45.45,0,0,1,0,.48.43.43,0,0,1-.2.15l.29.42Zm0-.81a.26.26,0,0,0-.08-.19.43.43,0,0,0-.24-.06H78.6V39h.28a.36.36,0,0,0,.24-.07A.22.22,0,0,0,79.2,38.71Z"/><path id="路径-16" data-name="路径" class="cls-6" d="M80.16,39.54a1,1,0,0,1-.29,0,.64.64,0,0,1-.22-.1l.09-.19a.49.49,0,0,0,.19.1.66.66,0,0,0,.23,0,.43.43,0,0,0,.22,0,.15.15,0,0,0,.07-.12.13.13,0,0,0,0-.09l-.1-.06-.17,0-.24-.07a.33.33,0,0,1-.15-.11.24.24,0,0,1-.07-.19.31.31,0,0,1,.06-.19.47.47,0,0,1,.17-.14.84.84,0,0,1,.29,0,.85.85,0,0,1,.23,0,.93.93,0,0,1,.2.08l-.08.19a.53.53,0,0,0-.17-.08.55.55,0,0,0-.18,0,.37.37,0,0,0-.21,0,.15.15,0,0,0-.07.13.09.09,0,0,0,0,.08.21.21,0,0,0,.1.06l.16,0,.24.07a.42.42,0,0,1,.16.11.29.29,0,0,1,.06.19.41.41,0,0,1-.05.19.44.44,0,0,1-.18.14A.79.79,0,0,1,80.16,39.54Z"/><polygon id="路径-17" data-name="路径" class="cls-6" points="80.98 38.26 81.22 38.26 81.22 39.52 80.98 39.52 80.98 38.26"/><polygon id="路径-18" data-name="路径" class="cls-6" points="81.88 38.46 81.45 38.46 81.45 38.26 82.55 38.26 82.55 38.46 82.12 38.46 82.12 39.52 81.88 39.52 81.88 38.46"/><polygon id="路径-19" data-name="路径" class="cls-6" points="83.32 39.07 83.32 39.52 83.08 39.52 83.08 39.08 82.58 38.26 82.83 38.26 83.21 38.87 83.59 38.26 83.83 38.26 83.32 39.07"/><path id="路径-20" data-name="路径" class="cls-6" d="M85,39.54a1,1,0,0,1-.29,0,.64.64,0,0,1-.22-.1l.09-.19a.49.49,0,0,0,.19.1.62.62,0,0,0,.23,0,.43.43,0,0,0,.22,0,.15.15,0,0,0,.07-.12.13.13,0,0,0,0-.09l-.1-.06L85,39l-.24-.07a.33.33,0,0,1-.15-.11.24.24,0,0,1-.07-.19.31.31,0,0,1,.06-.19.47.47,0,0,1,.17-.14.84.84,0,0,1,.29,0,.85.85,0,0,1,.23,0,.93.93,0,0,1,.2.08l-.08.19a.53.53,0,0,0-.17-.08.55.55,0,0,0-.18,0,.37.37,0,0,0-.21,0,.15.15,0,0,0-.07.13.09.09,0,0,0,0,.08.17.17,0,0,0,.1.06l.16,0,.24.07a.42.42,0,0,1,.16.11.29.29,0,0,1,.06.19.33.33,0,0,1-.06.19.35.35,0,0,1-.17.14A.84.84,0,0,1,85,39.54Z"/><polygon id="路径-21" data-name="路径" class="cls-6" points="86.06 38.46 85.63 38.46 85.63 38.26 86.73 38.26 86.73 38.46 86.3 38.46 86.3 39.52 86.06 39.52 86.06 38.46"/><path id="路径-22" data-name="路径" class="cls-6" d="M87.49,39.54a.54.54,0,0,1-.41-.15.57.57,0,0,1-.15-.42v-.71h.24V39c0,.25.11.37.32.37s.33-.12.33-.37v-.7h.24V39a.52.52,0,0,1-.57.57Z"/><path id="形状-3" data-name="形状" class="cls-6" d="M88.45,38.26H89a.87.87,0,0,1,.37.08.51.51,0,0,1,.24.22.58.58,0,0,1,.09.33.63.63,0,0,1-.09.33.57.57,0,0,1-.24.22.87.87,0,0,1-.37.08h-.56ZM89,39.32a.66.66,0,0,0,.25,0,.39.39,0,0,0,.16-.15.47.47,0,0,0,0-.46.39.39,0,0,0-.16-.15.66.66,0,0,0-.25,0h-.31v.86Z"/><polygon id="路径-23" data-name="路径" class="cls-6" points="90.99 39.32 90.99 39.52 90.02 39.52 90.02 38.26 90.96 38.26 90.96 38.46 90.26 38.46 90.26 38.78 90.88 38.78 90.88 38.98 90.26 38.98 90.26 39.32 90.99 39.32"/><polygon id="路径-24" data-name="路径" class="cls-6" points="92.46 38.26 92.46 39.52 92.26 39.52 91.55 38.67 91.55 39.52 91.31 39.52 91.31 38.26 91.51 38.26 92.22 39.11 92.22 38.26 92.46 38.26"/><polygon id="路径-25" data-name="路径" class="cls-6" points="93.12 38.46 92.69 38.46 92.69 38.26 93.79 38.26 93.79 38.46 93.36 38.46 93.36 39.52 93.12 39.52 93.12 38.46"/><path id="形状-4" data-name="形状" class="cls-6" d="M95.5,38.86a.35.35,0,0,1,.17.12.32.32,0,0,1,.06.2.28.28,0,0,1-.13.25.63.63,0,0,1-.37.09h-.64V38.26h.6a.58.58,0,0,1,.35.09.27.27,0,0,1,.13.24.3.3,0,0,1,0,.16A.25.25,0,0,1,95.5,38.86Zm-.67-.42v.35h.34a.36.36,0,0,0,.19,0,.17.17,0,0,0,.07-.13.16.16,0,0,0-.07-.13.36.36,0,0,0-.19-.05Zm.38.89c.19,0,.28-.06.28-.18S95.4,39,95.21,39h-.38v.36Z"/><polygon id="路径-26" data-name="路径" class="cls-6" points="96.04 38.26 96.28 38.26 96.28 39.32 96.96 39.32 96.96 39.52 96.04 39.52 96.04 38.26"/><path id="形状-5" data-name="形状" class="cls-6" d="M97.78,39.54a.68.68,0,0,1-.35-.09.56.56,0,0,1-.25-.23.65.65,0,0,1,0-.66.56.56,0,0,1,.25-.23.68.68,0,0,1,.35-.09.74.74,0,0,1,.36.09.59.59,0,0,1,.24.23.61.61,0,0,1,.1.33.64.64,0,0,1-.1.33.59.59,0,0,1-.24.23A.74.74,0,0,1,97.78,39.54Zm0-.21a.44.44,0,0,0,.23-.06.33.33,0,0,0,.16-.15.47.47,0,0,0,0-.46A.35.35,0,0,0,98,38.5a.56.56,0,0,0-.23,0,.59.59,0,0,0-.23,0,.41.41,0,0,0-.16.16.47.47,0,0,0,0,.46.39.39,0,0,0,.16.15A.46.46,0,0,0,97.78,39.33Z"/><path id="路径-27" data-name="路径" class="cls-6" d="M99.38,39.54a.68.68,0,0,1-.35-.09.56.56,0,0,1-.25-.23.63.63,0,0,1-.09-.33.6.6,0,0,1,.09-.33.61.61,0,0,1,.25-.23.7.7,0,0,1,.35-.09.65.65,0,0,1,.29.06.48.48,0,0,1,.22.15l-.15.14a.48.48,0,0,0-.35-.14.59.59,0,0,0-.23,0,.43.43,0,0,0-.23.39.46.46,0,0,0,.06.23.41.41,0,0,0,.17.15.46.46,0,0,0,.23.06.45.45,0,0,0,.35-.15l.15.15a.57.57,0,0,1-.22.15A.68.68,0,0,1,99.38,39.54Z"/><polygon id="路径-28" data-name="路径" class="cls-6" points="100.62 38.99 100.42 39.2 100.42 39.52 100.18 39.52 100.18 38.26 100.42 38.26 100.42 38.91 101.06 38.26 101.32 38.26 100.78 38.82 101.36 39.52 101.08 39.52 100.62 38.99"/><path id="路径-29" data-name="路径" class="cls-6" d="M102.13,39.54a.68.68,0,0,1-.35-.09.56.56,0,0,1-.25-.23.63.63,0,0,1-.09-.33.6.6,0,0,1,.09-.33.56.56,0,0,1,.25-.23.68.68,0,0,1,.35-.09.68.68,0,0,1,.29.06.48.48,0,0,1,.22.15l-.16.14a.46.46,0,0,0-.34-.14.6.6,0,0,0-.24,0,.41.41,0,0,0-.16.16.44.44,0,0,0-.06.23.46.46,0,0,0,.06.23.39.39,0,0,0,.16.15.48.48,0,0,0,.24.06.43.43,0,0,0,.34-.15l.16.15a.57.57,0,0,1-.22.15A.72.72,0,0,1,102.13,39.54Z"/><polygon id="路径-30" data-name="路径" class="cls-6" points="104.07 38.26 104.07 39.52 103.83 39.52 103.83 38.98 103.17 38.98 103.17 39.52 102.92 39.52 102.92 38.26 103.17 38.26 103.17 38.78 103.83 38.78 103.83 38.26 104.07 38.26"/><path id="形状-6" data-name="形状" class="cls-6" d="M105.31,39.23h-.65l-.12.29h-.25l.58-1.26h.24l.58,1.26h-.25Zm-.08-.19-.24-.55-.25.55Z"/><polygon id="路径-31" data-name="路径" class="cls-6" points="105.91 38.26 106.15 38.26 106.15 39.52 105.91 39.52 105.91 38.26"/><polygon id="路径-32" data-name="路径" class="cls-6" points="107.69 38.26 107.69 39.52 107.5 39.52 106.79 38.67 106.79 39.52 106.55 39.52 106.55 38.26 106.75 38.26 107.46 39.11 107.46 38.26 107.69 38.26"/><path id="形状-7" data-name="形状" class="cls-6" d="M109.5,39.23h-.65l-.12.29h-.25l.58-1.26h.23l.59,1.26h-.25Zm-.08-.19-.24-.55-.25.55Z"/><path id="路径-33" data-name="路径" class="cls-6" d="M110.5,39.54a.93.93,0,0,1-.29,0,.5.5,0,0,1-.22-.1l.08-.19a.57.57,0,0,0,.19.1.67.67,0,0,0,.24,0,.41.41,0,0,0,.21,0,.13.13,0,0,0,.07-.12.1.1,0,0,0,0-.09l-.1-.06-.16,0-.24-.07a.36.36,0,0,1-.16-.11.27.27,0,0,1-.06-.19.3.3,0,0,1,0-.19.44.44,0,0,1,.18-.14.78.78,0,0,1,.28,0,1,1,0,0,1,.24,0l.19.08-.07.19a.71.71,0,0,0-.18-.08.55.55,0,0,0-.18,0,.41.41,0,0,0-.21,0,.17.17,0,0,0-.07.13.12.12,0,0,0,0,.08.21.21,0,0,0,.1.06l.17,0,.23.07A.31.31,0,0,1,111,39a.29.29,0,0,1,.07.19.33.33,0,0,1-.06.19.44.44,0,0,1-.18.14A.78.78,0,0,1,110.5,39.54Z"/><path id="路径-34" data-name="路径" class="cls-6" d="M111.71,39.54a.93.93,0,0,1-.29,0,.64.64,0,0,1-.22-.1l.08-.19a.79.79,0,0,0,.43.14.37.37,0,0,0,.21,0,.13.13,0,0,0,.07-.12.12.12,0,0,0,0-.09l-.11-.06-.16,0-.24-.07a.42.42,0,0,1-.16-.11.27.27,0,0,1-.06-.19.31.31,0,0,1,.06-.19.4.4,0,0,1,.17-.14.84.84,0,0,1,.29,0,.91.91,0,0,1,.23,0,.93.93,0,0,1,.2.08l-.08.19a.49.49,0,0,0-.18-.08.52.52,0,0,0-.17,0,.37.37,0,0,0-.21,0,.15.15,0,0,0-.07.13.09.09,0,0,0,0,.08.17.17,0,0,0,.1.06l.16,0,.24.07a.42.42,0,0,1,.16.11.29.29,0,0,1,.06.19.33.33,0,0,1-.06.19.4.4,0,0,1-.17.14A.84.84,0,0,1,111.71,39.54Z"/><path id="形状-8" data-name="形状" class="cls-6" d="M113.13,39.54a.71.71,0,0,1-.36-.09.61.61,0,0,1-.25-.23.65.65,0,0,1,0-.66.61.61,0,0,1,.25-.23.71.71,0,0,1,.36-.09.68.68,0,0,1,.35.09.56.56,0,0,1,.25.23.6.6,0,0,1,.09.33.63.63,0,0,1-.09.33.56.56,0,0,1-.25.23A.68.68,0,0,1,113.13,39.54Zm0-.21a.46.46,0,0,0,.23-.06.39.39,0,0,0,.16-.15.47.47,0,0,0,0-.46.41.41,0,0,0-.16-.16.59.59,0,0,0-.23,0,.6.6,0,0,0-.24,0,.49.49,0,0,0-.16.16.47.47,0,0,0,0,.46.46.46,0,0,0,.16.15A.48.48,0,0,0,113.13,39.33Z"/><path id="路径-35" data-name="路径" class="cls-6" d="M114.73,39.54a.74.74,0,0,1-.36-.09.59.59,0,0,1-.24-.23.63.63,0,0,1-.09-.33.6.6,0,0,1,.09-.33.56.56,0,0,1,.25-.23.68.68,0,0,1,.35-.09.72.72,0,0,1,.29.06.54.54,0,0,1,.22.15l-.16.14a.46.46,0,0,0-.34-.14.6.6,0,0,0-.24,0,.41.41,0,0,0-.16.16.44.44,0,0,0-.06.23.46.46,0,0,0,.06.23.39.39,0,0,0,.16.15.48.48,0,0,0,.24.06.43.43,0,0,0,.34-.15l.16.15a.66.66,0,0,1-.22.15A.72.72,0,0,1,114.73,39.54Z"/><polygon id="路径-36" data-name="路径" class="cls-6" points="115.52 38.26 115.76 38.26 115.76 39.52 115.52 39.52 115.52 38.26"/><path id="形状-9" data-name="形状" class="cls-6" d="M117,39.23h-.64l-.13.29H116l.58-1.26h.24l.58,1.26h-.25Zm-.08-.19-.24-.55-.24.55Z"/><polygon id="路径-37" data-name="路径" class="cls-6" points="117.8 38.46 117.37 38.46 117.37 38.26 118.47 38.26 118.47 38.46 118.04 38.46 118.04 39.52 117.8 39.52 117.8 38.46"/><polygon id="路径-38" data-name="路径" class="cls-6" points="118.7 38.26 118.94 38.26 118.94 39.52 118.7 39.52 118.7 38.26"/><path id="形状-10" data-name="形状" class="cls-6" d="M120,39.54a.74.74,0,0,1-.36-.09.61.61,0,0,1-.25-.23.65.65,0,0,1,0-.66.61.61,0,0,1,.25-.23.74.74,0,0,1,.36-.09.68.68,0,0,1,.35.09.56.56,0,0,1,.25.23.6.6,0,0,1,.09.33.63.63,0,0,1-.09.33.56.56,0,0,1-.25.23A.68.68,0,0,1,120,39.54Zm0-.21a.46.46,0,0,0,.23-.06.39.39,0,0,0,.16-.15.47.47,0,0,0,0-.46.41.41,0,0,0-.16-.16.59.59,0,0,0-.23,0,.6.6,0,0,0-.24,0,.49.49,0,0,0-.16.16.47.47,0,0,0,0,.46.46.46,0,0,0,.16.15A.48.48,0,0,0,120,39.33Z"/><polygon id="路径-39" data-name="路径" class="cls-6" points="122.1 38.26 122.1 39.52 121.9 39.52 121.19 38.67 121.19 39.52 120.95 39.52 120.95 38.26 121.15 38.26 121.86 39.11 121.86 38.26 122.1 38.26"/></g></g></g></svg>